0
SECTION
2
HEADER
9
$INSUNITS
70
4
9
$ACADVER
1
AC1014
9
$HANDSEED
5
FFFF
0
ENDSEC
0
SECTION
2
TABLES
0
TABLE
2
VPORT
5
8
100
AcDbSymbolTable
0
ENDTAB
0
TABLE
2
LTYPE
5
5
100
AcDbSymbolTable
0
LTYPE
5
14
100
AcDbSymbolTableRecord
100
AcDbLinetypeTableRecord
2
BYBLOCK
70
0
0
LTYPE
5
15
100
AcDbSymbolTableRecord
100
AcDbLinetypeTableRecord
2
BYLAYER
70
0
0
LTYPE
5
16
100
AcDbSymbolTableRecord
100
AcDbLinetypeTableRecord
2
DASHED
70
0
3
Dashed __ __ __ __ __ __ __ __ __ __ __ __ __ _
72
65
73
2
40
0.75
49
0.5
74
0
49
-0.25
74
0
0
ENDTAB
0
TABLE
2
LAYER
5
2
100
AcDbSymbolTable
70
2
0
LAYER
5
50
100
AcDbSymbolTableRecord
100
AcDbLayerTableRecord
2
0
70
0
62
7
6
CONTINUOUS
0
ENDTAB
0
TABLE
2
STYLE
5
3
100
AcDbSymbolTable
70
1
0
STYLE
5
11
100
AcDbSymbolTableRecord
100
AcDbTextStyleTableRecord
2
STANDARD
70
0
0
ENDTAB
0
TABLE
2
VIEW
5
6
100
AcDbSymbolTable
70
0
0
ENDTAB
0
TABLE
2
UCS
5
7
100
AcDbSymbolTable
70
0
0
ENDTAB
0
TABLE
2
APPID
5
9
100
AcDbSymbolTable
70
2
0
APPID
5
12
100
AcDbSymbolTableRecord
100
AcDbRegAppTableRecord
2
ACAD
70
0
0
ENDTAB
0
TABLE
2
DIMSTYLE
5
A
100
AcDbSymbolTable
70
1
0
ENDTAB
0
TABLE
2
BLOCK_RECORD
5
1
100
AcDbSymbolTable
70
1
0
BLOCK_RECORD
5
1F
100
AcDbSymbolTableRecord
100
AcDbBlockTableRecord
2
*MODEL_SPACE
0
BLOCK_RECORD
5
1B
100
AcDbSymbolTableRecord
100
AcDbBlockTableRecord
2
*PAPER_SPACE
0
ENDTAB
0
ENDSEC
0
SECTION
2
BLOCKS
0
BLOCK
5
20
100
AcDbEntity
100
AcDbBlockBegin
2
*MODEL_SPACE
0
ENDBLK
5
21
100
AcDbEntity
100
AcDbBlockEnd
0
BLOCK
5
1C
100
AcDbEntity
100
AcDbBlockBegin
2
*PAPER_SPACE
0
ENDBLK
5
1D
100
AcDbEntity
100
AcDbBlockEnd
0
ENDSEC
0
SECTION
2
ENTITIES
0
LWPOLYLINE
5
100
100
AcDbEntity
8
0
100
AcDbPolyline
90
28
70
1
43
0.0
10
-147.80625000229352
20
100.66246093588819
42
0.0062502441618804616
10
-147.7937500022928
20
100.66246093594538
42
-0.0031250927051724399
10
-147.78750000000002
20
100.66250000000004
10
-134.78750000000002
20
100.66249999988554
42
-0.0031250904140405398
10
-134.78125000229349
20
100.66246093588819
42
0.0062502441618804616
10
-134.76875000229279
20
100.66246093594538
42
-0.0031250927051724399
10
-134.76249999999999
20
100.66250000000004
10
-106.21250000000001
20
100.66250000000004
42
-0.41421356237309503
10
-105.71249999999999
20
100.16250000000002
10
-105.71249999999999
20
87.162500000000023
42
-0.41421356237309503
10
-106.21250000000001
20
86.662500000000023
10
-127.76250000000002
20
86.662500000000023
42
0.41421356237309503
10
-128.26250000000002
20
86.162500000000009
42
-0.41421356237309503
10
-128.76250000000002
20
85.662499999999994
10
-134.76249999999999
20
85.662499999999994
42
-0.41421356237309503
10
-135.26250000000002
20
86.162500000000009
42
0.41421356237309503
10
-135.76250000000002
20
86.662500000000023
10
-146.81250000000003
20
86.662500000000023
42
0.41421356237309503
10
-147.31250000000003
20
86.162500000000009
42
-0.41421356237309503
10
-147.81250000000003
20
85.662499999999994
10
-153.8125
20
85.662499999999994
42
-0.41421356237309503
10
-154.31250000000003
20
86.162500000000009
42
0.4142135623730534
10
-154.81250000000003
20
86.66249999999998
10
-176.36250000000004
20
86.662499999999966
42
-0.41421356237310542
10
-176.86250000000004
20
87.162499999999994
10
-176.86250000000001
20
100.16249999999999
42
-0.41421356237310542
10
-176.36250000000004
20
100.66249999999999
10
-147.81250000000003
20
100.66249999988554
42
-0.0031250904140405398
0
LWPOLYLINE
5
101
100
AcDbEntity
8
0
100
AcDbPolyline
90
24
70
1
43
0.0
10
-46.181250000000006
20
58.300000000000018
42
0.41421356237309503
10
-45.681250000000013
20
57.800000000000018
10
-41.918749999999996
20
57.800000000000011
42
-0.41421356237308982
10
-41.418750000000003
20
57.300000000000011
10
-41.418750000000003
20
39.25
42
0.41421356237309503
10
-40.91875000000001
20
38.750000000000007
10
-39.537499999999994
20
38.750000000000007
42
-0.41421356237308982
10
-39.037500000000009
20
38.250000000000014
10
-39.037500000000009
20
25.250000000000007
42
-0.41421356237309503
10
-39.537500000000001
20
24.750000000000011
10
-243.03750000000002
20
24.749999999999979
42
-0.41421356237310025
10
-243.53750000000002
20
25.249999999999993
10
-243.53750000000002
20
43.299999999999997
42
0.4142135623730222
10
-244.03750000000002
20
43.800000000000026
10
-247.80000000000001
20
43.800000000000011
42
-0.41421356237312101
10
-248.30000000000001
20
44.29999999999999
10
-248.30000000000001
20
62.349999999999994
42
0.4142135623730222
10
-248.80000000000001
20
62.850000000000023
10
-257.32500000000005
20
62.850000000000001
42
-0.41421356237312623
10
-257.82500000000005
20
63.349999999999994
10
-257.82499999999999
20
76.349999999999994
42
-0.4142135623730222
10
-257.32500000000005
20
76.849999999999994
10
-46.681249999999999
20
76.850000000000009
42
-0.41421356237308982
10
-46.181250000000006
20
76.350000000000023
0
LWPOLYLINE
5
102
100
AcDbEntity
8
0
100
AcDbPolyline
90
8
70
1
43
0.0
10
-260.49375000000003
20
43.012499999999989
10
-260.49375000000003
20
30.012499999999992
42
-0.41421356237305079
10
-260.99375000000003
20
29.512499999999996
10
-273.99374999999998
20
29.512499999999974
42
-0.41421356237310281
10
-274.49374999999998
20
30.012499999999992
10
-274.49374999999998
20
43.012499999999989
42
-0.4142135623730222
10
-273.99374999999998
20
43.512499999999989
10
-260.99375000000003
20
43.512499999999967
42
-0.41421356237312101
0
LWPOLYLINE
5
103
100
AcDbEntity
8
0
100
AcDbPolyline
90
8
70
1
43
0.0
10
-259.99374999999998
20
44.950499999999991
10
-273.99374999999998
20
44.950500000000005
42
-0.41421356237312101
10
-274.49374999999998
20
45.450499999999991
10
-274.49374999999998
20
51.450499999999984
42
-0.4142135623730222
10
-273.99374999999998
20
51.950499999999984
10
-259.99374999999998
20
51.950499999999963
42
-0.41421356237312101
10
-259.49374999999998
20
51.450499999999984
10
-259.49375000000003
20
45.450499999999991
42
-0.4142135623730222
0
LWPOLYLINE
5
104
100
AcDbEntity
8
0
100
AcDbPolyline
90
8
70
1
43
0.0
10
-243.53750000000002
20
87.162499999999994
10
-243.53749999999997
20
100.16249999999999
42
-0.41421356237310542
10
-243.03750000000002
20
100.66249999999999
10
-227.65625000000006
20
100.66250000000002
42
-0.41421356237310542
10
-227.15625000000006
20
100.16249999999999
10
-227.15625000000011
20
87.162499999999994
42
-0.41421356237310542
10
-227.65625000000006
20
86.66249999999998
10
-243.03750000000002
20
86.662499999999966
42
-0.41421356237310542
0
LWPOLYLINE
5
105
100
AcDbEntity
8
0
100
AcDbPolyline
90
8
70
1
43
0.0
10
-55.41875000000001
20
87.162500000000023
10
-55.418750000000017
20
100.16250000000002
42
-0.41421356237309503
10
-54.91875000000001
20
100.66250000000004
10
-39.537499999999994
20
100.66250000000004
42
-0.41421356237310025
10
-39.037500000000009
20
100.16250000000002
10
-39.037500000000001
20
87.162500000000023
42
-0.41421356237309503
10
-39.537500000000009
20
86.662500000000023
10
-54.918750000000003
20
86.662500000000023
42
-0.41421356237309503
0
LWPOLYLINE
5
106
100
AcDbEntity
8
0
100
AcDbPolyline
90
8
70
1
43
0.0
10
-205.72500000000002
20
100.16249999999999
10
-205.72500000000005
20
87.162499999999994
42
-0.41421356237310542
10
-206.22500000000002
20
86.66249999999998
10
-221.60625000000005
20
86.662499999999966
42
-0.41421356237310542
10
-222.10625000000005
20
87.162499999999994
10
-222.10624999999999
20
100.16249999999999
42
-0.41421356237310542
10
-221.60625000000005
20
100.66249999999999
10
-206.22500000000002
20
100.66250000000002
42
-0.41421356237310542
0
LWPOLYLINE
5
107
100
AcDbEntity
8
0
100
AcDbPolyline
90
8
70
1
43
0.0
10
-259.99374999999998
20
21.074499999999997
10
-273.99374999999998
20
21.074499999999972
42
-0.41421356237310281
10
-274.49374999999998
20
21.574499999999993
10
-274.49374999999998
20
27.574499999999993
42
-0.41421356237304563
10
-273.99374999999998
20
28.074499999999993
10
-259.99374999999998
20
28.074500000000011
42
-0.41421356237310025
10
-259.49374999999998
20
27.574499999999993
10
-259.49374999999998
20
21.574499999999993
42
-0.41421356237305079
0
LWPOLYLINE
5
108
100
AcDbEntity
8
0
100
AcDbPolyline
90
14
70
1
43
0.0
10
-89.662499999999994
20
86.662500000000023
42
0.41421356237309503
10
-90.162499999999994
20
86.162500000000009
42
-0.41421356237309503
10
-90.662499999999994
20
85.662499999999994
10
-96.662500000000023
20
85.662499999999994
42
-0.41421356237309503
10
-97.162500000000023
20
86.162500000000009
42
0.41421356237309503
10
-97.662500000000023
20
86.662500000000023
10
-102.54374999999999
20
86.662500000000023
42
-0.41421356237309503
10
-103.04375
20
87.162500000000023
10
-103.04375
20
100.16250000000002
42
-0.41421356237309503
10
-102.54374999999999
20
100.66250000000004
10
-89.543750000000017
20
100.66250000000004
42
-0.41421356237309503
10
-89.043750000000017
20
100.16250000000002
10
-89.043750000000017
20
87.162500000000023
42
-0.41421356237309503
10
-89.543750000000017
20
86.662500000000023
0
LWPOLYLINE
5
109
100
AcDbEntity
8
0
100
AcDbPolyline
90
8
70
1
43
0.0
10
-262.87500000000006
20
76.349999999999994
10
-262.87500000000011
20
63.349999999999994
42
-0.4142135623730222
10
-263.37500000000006
20
62.849999999999994
10
-276.375
20
62.850000000000001
42
-0.41421356237312623
10
-276.87500000000006
20
63.349999999999994
10
-276.875
20
76.349999999999994
42
-0.4142135623730222
10
-276.375
20
76.849999999999994
10
-263.37500000000006
20
76.849999999999994
42
-0.41421356237312623
0
LWPOLYLINE
5
110
100
AcDbEntity
8
0
100
AcDbPolyline
90
8
70
1
43
0.0
10
-76.850000000000023
20
87.162500000000023
10
-76.850000000000037
20
100.16250000000002
42
-0.41421356237310025
10
-76.350000000000023
20
100.66250000000004
10
-60.968750000000007
20
100.66250000000004
42
-0.4142135623730846
10
-60.468750000000014
20
100.16250000000002
10
-60.468750000000007
20
87.162500000000023
42
-0.41421356237309503
10
-60.968750000000014
20
86.662500000000023
10
-76.350000000000023
20
86.662499999999994
42
-0.41421356237310542
0
CIRCLE
5
111
100
AcDbEntity
8
0
100
AcDbCircle
10
-40.125189398912994
20
109.18750000018474
30
0
40
1.6250000000000009
210
0
220
0
230
1
0
CIRCLE
5
112
100
AcDbEntity
8
0
100
AcDbCircle
10
-185.29981060108707
20
16.224999999815278
30
0
40
1.6250000000000142
210
0
220
0
230
1
0
CIRCLE
5
113
100
AcDbEntity
8
0
100
AcDbCircle
10
-97.275189398912985
20
16.224999999815278
30
0
40
1.6249999999999964
210
0
220
0
230
1
0
CIRCLE
5
114
100
AcDbEntity
8
0
100
AcDbCircle
10
-242.44981060108705
20
109.18750000018474
30
0
40
1.6250000000000142
210
0
220
0
230
1
0
CIRCLE
5
115
100
AcDbEntity
8
0
100
AcDbCircle
10
-185.29981060108707
20
109.18750000018474
30
0
40
1.6250000000000142
210
0
220
0
230
1
0
CIRCLE
5
116
100
AcDbEntity
8
0
100
AcDbCircle
10
-242.44981060108705
20
16.224999999815278
30
0
40
1.6250000000000142
210
0
220
0
230
1
0
CIRCLE
5
117
100
AcDbEntity
8
0
100
AcDbCircle
10
-40.125189398912994
20
16.224999999815278
30
0
40
1.6250000000000009
210
0
220
0
230
1
0
CIRCLE
5
118
100
AcDbEntity
8
0
100
AcDbCircle
10
-97.275189398912985
20
109.18750000018474
30
0
40
1.6249999999999964
210
0
220
0
230
1
0
LWPOLYLINE
5
119
100
AcDbEntity
8
0
100
AcDbPolyline
90
14
70
1
43
0.0
10
-192.41250000000005
20
86.162500000000009
42
0.41421356237303258
10
-192.91250000000005
20
86.66249999999998
10
-193.03125
20
86.662499999999966
42
-0.41421356237310542
10
-193.53125000000003
20
87.162499999999994
10
-193.53125
20
100.16249999999999
42
-0.41421356237310542
10
-193.03125
20
100.66249999999999
10
-180.03125000000006
20
100.66250000000002
42
-0.41421356237310542
10
-179.53125000000003
20
100.16249999999999
10
-179.53125000000006
20
87.162499999999994
42
-0.41421356237310542
10
-180.03125000000006
20
86.66249999999998
10
-184.91250000000002
20
86.66249999999998
42
0.41421356237303258
10
-185.41250000000005
20
86.162500000000009
42
-0.41421356237310542
10
-185.91250000000002
20
85.662499999999994
10
-191.91250000000002
20
85.66249999999998
42
-0.41421356237310542
0
LWPOLYLINE
5
120
100
AcDbEntity
8
0
100
AcDbPolyline
90
24
70
1
43
0.0
10
-27.224999999999994
20
76.850000000000009
42
0.41421356237309764
10
-26.724999999999991
20
77.350000000000009
10
-26.724999999999994
20
79.850000000000023
42
-0.41421356237309503
10
-26.224999999999994
20
80.350000000000023
10
-18.224999999999998
20
80.350000000000023
42
-0.41421356237309503
10
-17.724999999999998
20
79.850000000000023
10
-17.724999999999991
20
77.350000000000009
42
0.41421356237309631
10
-17.224999999999998
20
76.850000000000009
10
-15.725000000000016
20
76.850000000000009
42
-0.41421356237310025
10
-15.225000000000009
20
76.350000000000023
10
-15.225000000000007
20
25.250000000000004
42
-0.4142135623730937
10
-15.725000000000007
20
24.750000000000011
10
-17.224999999999994
20
24.750000000000011
42
0.41421356237309243
10
-17.724999999999998
20
24.250000000000011
10
-17.724999999999998
20
22.750000000000014
42
-0.41421356237309631
10
-18.224999999999998
20
22.250000000000011
10
-26.225000000000005
20
22.250000000000011
42
-0.41421356237309243
10
-26.724999999999998
20
22.750000000000007
10
-26.725000000000001
20
24.250000000000011
42
0.41421356237309503
10
-27.224999999999998
20
24.750000000000011
10
-28.724999999999987
20
24.750000000000011
42
-0.41421356237310542
10
-29.225000000000001
20
25.250000000000007
10
-29.225000000000012
20
76.350000000000023
42
-0.41421356237309764
10
-28.725000000000009
20
76.850000000000009
0
LWPOLYLINE
5
121
100
AcDbEntity
8
0
100
AcDbPolyline
90
107
70
1
43
0.0
10
-242.44981060108705
20
22.225000000000005
10
-220.44981060108705
20
22.225000000000005
42
-0.99999999999999989
10
-220.44981060108705
20
21.224999999976045
10
-242.44981060108705
20
21.224999999976045
42
1.7320508075688794
10
-238.1196835820256
20
13.724999999734882
10
-235.95462007244856
20
17.474999999935783
42
-0.26794919243112214
10
-234.22256926480998
20
18.474999999976049
10
-219.93204364840773
20
18.474999999976049
42
0.19891236737966025
10
-218.51783008553613
20
19.06078643780943
10
-215.93940296075064
20
21.639213562594914
42
-0.19891236737965753
10
-214.52518939891306
20
22.225000000000005
10
-163.29981060108705
20
22.225000000000005
42
-0.99999999999999989
10
-163.29981060108705
20
21.224999999976045
10
-185.29981060108707
20
21.224999999976045
42
1.732050807568883
10
-180.9696835820256
20
13.724999999734898
10
-178.80462007244856
20
17.474999999935825
42
-0.26794919243111986
10
-177.07256926480997
20
18.474999999976049
10
-162.78204364840769
20
18.474999999976049
42
0.19891236737963661
10
-161.36783008553607
20
19.060786437809377
10
-158.78940296075064
20
21.639213562594904
42
-0.19891236737965845
10
-157.37518939891305
20
22.225000000000005
10
-125.19981060108699
20
22.225000000000009
42
-0.19891236737965845
10
-123.78559703924938
20
21.639213562594911
10
-121.20716991446389
20
19.060786437809423
42
0.19891236737965803
10
-119.79295635159234
20
18.474999999976049
10
-105.50243073519007
20
18.474999999976045
42
-0.26794919243112286
10
-103.7703799275515
20
17.474999999935807
10
-101.60531641797442
20
13.724999999734894
42
1.7320508075688785
10
-97.275189398912985
20
21.224999999976056
10
-119.275189398913
20
21.224999999976045
42
-0.99999999999999989
10
-119.275189398913
20
22.225000000000005
10
-68.049810601086989
20
22.225000000000005
42
-0.19891236737965765
10
-66.635597039249376
20
21.639213562594911
10
-64.057169914463884
20
19.060786437809423
42
0.19891236737965803
10
-62.642956351592332
20
18.474999999976049
10
-48.352430735190083
20
18.474999999976053
42
-0.26794919243112331
10
-46.620379927551497
20
17.474999999935807
10
-44.455316417974416
20
13.724999999734894
42
1.7320508075688776
10
-40.125189398912994
20
21.224999999976049
10
-62.125189398913008
20
21.224999999976045
42
-0.99999999999999989
10
-62.125189398913008
20
22.225000000000005
10
-33.267102754380609
20
22.225000000000005
42
-0.28634349957439986
10
-31.470819105260329
20
21.104411764705887
42
0.28634349957439986
10
-29.450000000000003
20
19.843750000000004
10
-15.200000000000006
20
19.84375
42
0.41421356237309503
10
-12.700000000000012
20
22.343749999999996
10
-12.700000000000006
20
80.375000000000014
42
0.41421356237309453
10
-15.200000000000005
20
82.875000000000014
10
-34.012500000000017
20
82.875000000000014
42
-0.41421356237309503
10
-36.512500000000017
20
85.375000000000014
10
-36.512500000000031
20
100.68750000000001
42
0.41421356237309398
10
-39.01250000000001
20
103.18750000000001
10
-62.125189398913008
20
103.18750000000001
42
-0.99999999999999989
10
-62.125189398913008
20
104.18750000002397
10
-40.125189398912994
20
104.18750000002397
42
1.7320508075688732
10
-44.455316417974402
20
111.68750000026513
10
-46.62037992755149
20
107.9375000000642
42
-0.26794919243112275
10
-48.352430735190083
20
106.93750000002396
10
-62.642956351592332
20
106.93750000002396
42
0.19891236737965723
10
-64.057169914463884
20
106.3517135621906
10
-66.63559703924939
20
103.7732864374051
42
-0.1989123673796564
10
-68.049810601086989
20
103.18750000000001
10
-119.275189398913
20
103.18750000000001
42
-0.99999999999999989
10
-119.275189398913
20
104.18750000002397
10
-97.275189398912985
20
104.18750000002397
42
1.7320508075688776
10
-101.60531641797441
20
111.68750000026512
10
-103.77037992755149
20
107.9375000000642
42
-0.26794919243112142
10
-105.50243073519007
20
106.93750000002396
10
-119.79295635159234
20
106.93750000002396
42
0.19891236737965801
10
-121.20716991446389
20
106.3517135621906
10
-123.78559703924938
20
103.77328643740512
42
-0.19891236737965801
10
-125.19981060108699
20
103.18750000000001
10
-157.37518939891305
20
103.18750000000001
42
-0.19891236737965801
10
-158.78940296075064
20
103.7732864374051
10
-161.3678300855361
20
106.3517135621906
42
0.19891236737963683
10
-162.78204364840769
20
106.9375000000239
10
-177.07256926480997
20
106.93750000002402
42
-0.26794919243111903
10
-178.80462007244853
20
107.9375000000642
10
-180.96968358202562
20
111.68750000026513
42
1.7320508075688759
10
-185.29981060108707
20
104.18750000002399
10
-163.29981060108705
20
104.18750000002397
42
-0.99999999999999989
10
-163.29981060108705
20
103.18750000000001
10
-214.52518939891306
20
103.1875
42
-0.19891236737965801
10
-215.93940296075064
20
103.7732864374051
10
-218.51783008553613
20
106.3517135621906
42
0.19891236737965967
10
-219.93204364840773
20
106.93750000002397
10
-234.22256926480998
20
106.93750000002396
42
-0.26794919243111681
10
-235.95462007244851
20
107.9375000000642
10
-238.11968358202563
20
111.68750000026513
42
1.7320508075688759
10
-242.44981060108705
20
104.18750000002399
10
-220.44981060108705
20
104.18750000002397
42
-0.99999999999999989
10
-220.44981060108705
20
103.18750000000001
10
-243.56250000000003
20
103.1875
42
0.41421356237310336
10
-246.06250000000003
20
100.68750000000001
10
-246.06250000000003
20
81.875
42
-0.41421356237309503
10
-248.56250000000003
20
79.375
10
-276.90000000000003
20
79.375
42
0.41421356237310125
10
-279.40000000000003
20
76.875
10
-279.40000000000003
20
62.053677301833559
42
-0.41421356237309503
10
-281.00992730183356
20
60.443750000000037
10
-281.89999992234107
20
60.443750000000037
42
0.41421356237309503
10
-284.28125000000006
20
58.062499922341061
10
-284.28125000000006
20
14.962500077500014
42
0.41421356237309453
10
-281.8999999225
20
12.581249999999983
10
-252.83789901301435
20
12.581249999999983
42
0.27125191644603197
10
-250.65760542840871
20
13.858008451928949
10
-247.68251520430192
20
19.160779715276057
42
-0.27125191644603136
0
LWPOLYLINE
5
122
100
AcDbEntity
8
0
100
AcDbPolyline
90
4
70
1
43
0.0
10
-247.44375000000005
20
32.75
10
-247.44375000000005
20
22.017299999999999
42
-0.99999999999999989
10
-249.44375000000008
20
22.017299999999999
10
-249.44375000000008
20
32.75
42
-0.99999999999999989
0
LWPOLYLINE
5
123
100
AcDbEntity
8
0
100
AcDbPolyline
90
4
70
1
43
0.0
10
-252.20624999999998
20
51.003100000000003
10
-252.20624999999998
20
40.272399999999998
42
-0.99999999999999989
10
-254.20625000000001
20
40.272399999999998
10
-254.20625000000001
20
51.003100000000003
42
-0.99999999999999989
0
LWPOLYLINE
5
124
100
AcDbEntity
8
0
100
AcDbPolyline
90
4
70
1
43
0.0
10
-274.84375000000006
20
58.943750000000051
10
-260.14375000000001
20
58.943750000000051
42
-0.99999999999999989
10
-260.14375000000001
20
56.943750000000023
10
-274.84375000000006
20
56.943750000000023
42
-0.99999999999999989
0
LWPOLYLINE
5
125
100
AcDbEntity
8
0
100
AcDbPolyline
90
4
70
1
43
0.0
10
-255.36509999999998
20
14.081249999999972
42
0.99999999999999989
10
-255.36509999999998
20
16.081249999999997
10
-274.84375000000006
20
16.081249999999997
42
0.99999999999999989
10
-274.84375000000006
20
14.081249999999972
0
LWPOLYLINE
5
126
100
AcDbEntity
8
0
100
AcDbPolyline
90
4
70
1
43
0.0
10
-282.78125000000006
20
22.017299999999995
42
0.99999999999999989
10
-280.78125000000006
20
22.017300000000006
10
-280.78125000000006
20
51.003099999999996
42
0.99999999999999989
10
-282.78125000000006
20
51.003100000000003
0
ENDSEC
0
SECTION
2
OBJECTS
0
DICTIONARY
5
C
100
AcDbDictionary
3
ACAD_GROUP
350
D
3
ACAD_MLINESTYLE
350
17
0
DICTIONARY
5
D
100
AcDbDictionary
0
DICTIONARY
5
1A
330
C
100
AcDbDictionary
0
DICTIONARY
5
17
100
AcDbDictionary
0
ENDSEC
0
EOF
