%TF.GenerationSoftware,KiCad,Pcbnew,8.0.5*%
%TF.CreationDate,2024-09-30T13:41:41+02:00*%
%TF.ProjectId,eurovISOn,6575726f-7649-4534-9f6e-2e6b69636164,rev?*%
%TF.SameCoordinates,Original*%
%TF.FileFunction,Profile,NP*%
%FSLAX46Y46*%
G04 Gerber Fmt 4.6, Leading zero omitted, Abs format (unit mm)*
G04 Created by KiCad (PCBNEW 8.0.5) date 2024-09-30 13:41:41*
%MOMM*%
%LPD*%
G01*
G04 APERTURE LIST*
%TA.AperFunction,Profile*%
%ADD10C,0.050000*%
%TD*%
%TA.AperFunction,Profile*%
%ADD11C,0.100000*%
%TD*%
G04 APERTURE END LIST*
D10*
X284162500Y-100806250D02*
X284162500Y-19843750D01*
X15081250Y-103187500D02*
G75*
G02*
X12700000Y-100806250I0J2381250D01*
G01*
X15081250Y-103187500D02*
X281781250Y-103187500D01*
X12700000Y-19843750D02*
G75*
G02*
X15081250Y-17462500I2381250J0D01*
G01*
X281781250Y-17462500D02*
X15081250Y-17462500D01*
X281781250Y-17462500D02*
G75*
G02*
X284162500Y-19843750I-50J-2381300D01*
G01*
X12700000Y-100806250D02*
X12700000Y-19843750D01*
X284162500Y-100806250D02*
G75*
G02*
X281781250Y-103187500I-2381300J50D01*
G01*
D11*
%TO.C,LED2*%
X280281251Y-40480548D02*
X280281251Y-42069452D01*
X281078409Y-42974999D02*
X282484093Y-42974999D01*
X282484093Y-39575001D02*
X281078409Y-39575001D01*
X283281250Y-42069453D02*
X283281250Y-40480548D01*
X280212952Y-40228290D02*
G75*
G02*
X280281250Y-40480548I-431712J-252260D01*
G01*
X280212954Y-40228289D02*
G75*
G02*
X280861529Y-39525520I431696J252259D01*
G01*
X280281251Y-42069452D02*
G75*
G02*
X280212952Y-42321711I-500009J2D01*
G01*
X280861531Y-43024484D02*
G75*
G02*
X281078409Y-42974999I216876J-450505D01*
G01*
X280861532Y-43024484D02*
G75*
G02*
X280212952Y-42321711I-216880J450514D01*
G01*
X281078408Y-39575001D02*
G75*
G02*
X280861531Y-39525516I82J500351D01*
G01*
X282484094Y-42974999D02*
G75*
G02*
X282700971Y-43024484I1J-499990D01*
G01*
X282700971Y-39525516D02*
G75*
G02*
X282484093Y-39575013I-217021J451016D01*
G01*
X282700971Y-39525516D02*
G75*
G02*
X283349550Y-40228289I216879J-450514D01*
G01*
X283281251Y-40480547D02*
G75*
G02*
X283349550Y-40228289I500009J-3D01*
G01*
X283349549Y-42321711D02*
G75*
G02*
X282700971Y-43024485I-431700J-252259D01*
G01*
X283349549Y-42321711D02*
G75*
G02*
X283281250Y-42069453I431710J252261D01*
G01*
%TO.C,LED1*%
X276906251Y-52478409D02*
X276906251Y-53884093D01*
X277811797Y-54681250D02*
X279400702Y-54681250D01*
X279400702Y-51681251D02*
X277811798Y-51681251D01*
X280306249Y-53884093D02*
X280306249Y-52478409D01*
X276856766Y-52261531D02*
G75*
G02*
X276906251Y-52478409I-450505J-216876D01*
G01*
X276856766Y-52261532D02*
G75*
G02*
X277559539Y-51612952I450514J216880D01*
G01*
X276906251Y-53884094D02*
G75*
G02*
X276856766Y-54100971I-499990J-1D01*
G01*
X277559539Y-54749549D02*
G75*
G02*
X276856765Y-54100971I-252259J431700D01*
G01*
X277559539Y-54749549D02*
G75*
G02*
X277811797Y-54681250I252261J-431710D01*
G01*
X277811798Y-51681251D02*
G75*
G02*
X277559539Y-51612952I2J500009D01*
G01*
X279400703Y-54681251D02*
G75*
G02*
X279652961Y-54749550I-3J-500009D01*
G01*
X279652960Y-51612952D02*
G75*
G02*
X279400702Y-51681250I-252260J431712D01*
G01*
X279652961Y-51612954D02*
G75*
G02*
X280355730Y-52261529I252259J-431696D01*
G01*
X280306249Y-52478408D02*
G75*
G02*
X280355734Y-52261531I500351J-82D01*
G01*
X280355734Y-54100971D02*
G75*
G02*
X279652961Y-54749550I-450514J-216879D01*
G01*
X280355734Y-54100971D02*
G75*
G02*
X280306237Y-53884093I451016J217021D01*
G01*
%TO.C,LED7*%
X255675000Y-30955547D02*
X255675000Y-32544452D01*
X256472157Y-33449999D02*
X257877841Y-33449999D01*
X257877841Y-30050001D02*
X256472157Y-30050001D01*
X258674999Y-32544452D02*
X258674999Y-30955548D01*
X255606701Y-30703289D02*
G75*
G02*
X255675000Y-30955547I-431710J-252261D01*
G01*
X255606701Y-30703289D02*
G75*
G02*
X256255279Y-30000515I431700J252259D01*
G01*
X255674999Y-32544453D02*
G75*
G02*
X255606700Y-32796711I-500009J3D01*
G01*
X256255279Y-33499484D02*
G75*
G02*
X255606700Y-32796711I-216879J450514D01*
G01*
X256255279Y-33499484D02*
G75*
G02*
X256472157Y-33449987I217021J-451016D01*
G01*
X256472156Y-30050001D02*
G75*
G02*
X256255279Y-30000516I-1J499990D01*
G01*
X257877842Y-33449999D02*
G75*
G02*
X258094719Y-33499484I-82J-500351D01*
G01*
X258094718Y-30000516D02*
G75*
G02*
X258743298Y-30703289I216880J-450514D01*
G01*
X258094719Y-30000516D02*
G75*
G02*
X257877841Y-30050001I-216876J450505D01*
G01*
X258674999Y-30955548D02*
G75*
G02*
X258743298Y-30703289I500009J-2D01*
G01*
X258743296Y-32796711D02*
G75*
G02*
X258094721Y-33499480I-431696J-252259D01*
G01*
X258743298Y-32796710D02*
G75*
G02*
X258675000Y-32544452I431712J252260D01*
G01*
%TO.C,LED3*%
X280281251Y-30955548D02*
X280281251Y-32544452D01*
X281078409Y-33449999D02*
X282484093Y-33449999D01*
X282484093Y-30050001D02*
X281078409Y-30050001D01*
X283281250Y-32544453D02*
X283281250Y-30955548D01*
X280212952Y-30703290D02*
G75*
G02*
X280281250Y-30955548I-431712J-252260D01*
G01*
X280212954Y-30703289D02*
G75*
G02*
X280861529Y-30000520I431696J252259D01*
G01*
X280281251Y-32544452D02*
G75*
G02*
X280212952Y-32796711I-500009J2D01*
G01*
X280861531Y-33499484D02*
G75*
G02*
X281078409Y-33449999I216876J-450505D01*
G01*
X280861532Y-33499484D02*
G75*
G02*
X280212952Y-32796711I-216880J450514D01*
G01*
X281078408Y-30050001D02*
G75*
G02*
X280861531Y-30000516I82J500351D01*
G01*
X282484094Y-33449999D02*
G75*
G02*
X282700971Y-33499484I1J-499990D01*
G01*
X282700971Y-30000516D02*
G75*
G02*
X282484093Y-30050013I-217021J451016D01*
G01*
X282700971Y-30000516D02*
G75*
G02*
X283349550Y-30703289I216879J-450514D01*
G01*
X283281251Y-30955547D02*
G75*
G02*
X283349550Y-30703289I500009J-3D01*
G01*
X283349549Y-32796711D02*
G75*
G02*
X282700971Y-33499485I-431700J-252259D01*
G01*
X283349549Y-32796711D02*
G75*
G02*
X283281250Y-32544453I431710J252261D01*
G01*
%TO.C,LED9*%
X264206251Y-52478409D02*
X264206251Y-53884093D01*
X265111797Y-54681250D02*
X266700702Y-54681250D01*
X266700702Y-51681251D02*
X265111798Y-51681251D01*
X267606249Y-53884093D02*
X267606249Y-52478409D01*
X264156766Y-52261531D02*
G75*
G02*
X264206251Y-52478409I-450505J-216876D01*
G01*
X264156766Y-52261532D02*
G75*
G02*
X264859539Y-51612952I450514J216880D01*
G01*
X264206251Y-53884094D02*
G75*
G02*
X264156766Y-54100971I-499990J-1D01*
G01*
X264859539Y-54749549D02*
G75*
G02*
X264156765Y-54100971I-252259J431700D01*
G01*
X264859539Y-54749549D02*
G75*
G02*
X265111797Y-54681250I252261J-431710D01*
G01*
X265111798Y-51681251D02*
G75*
G02*
X264859539Y-51612952I2J500009D01*
G01*
X266700703Y-54681251D02*
G75*
G02*
X266952961Y-54749550I-3J-500009D01*
G01*
X266952960Y-51612952D02*
G75*
G02*
X266700702Y-51681250I-252260J431712D01*
G01*
X266952961Y-51612954D02*
G75*
G02*
X267655730Y-52261529I252259J-431696D01*
G01*
X267606249Y-52478408D02*
G75*
G02*
X267655734Y-52261531I500351J-82D01*
G01*
X267655734Y-54100971D02*
G75*
G02*
X266952961Y-54749550I-450514J-216879D01*
G01*
X267655734Y-54100971D02*
G75*
G02*
X267606237Y-53884093I451016J217021D01*
G01*
%TO.C,LED10*%
X270556251Y-40897157D02*
X270556251Y-42302841D01*
X271461798Y-43099999D02*
X273050702Y-43099999D01*
X273050703Y-40100000D02*
X271461798Y-40100000D01*
X273956249Y-42302841D02*
X273956249Y-40897157D01*
X270506766Y-40680279D02*
G75*
G02*
X270556263Y-40897157I-451016J-217021D01*
G01*
X270506766Y-40680279D02*
G75*
G02*
X271209539Y-40031700I450514J216879D01*
G01*
X270556251Y-42302842D02*
G75*
G02*
X270506766Y-42519719I-500351J82D01*
G01*
X271209539Y-43168296D02*
G75*
G02*
X270506770Y-42519721I-252259J431696D01*
G01*
X271209540Y-43168298D02*
G75*
G02*
X271461798Y-43100000I252260J-431712D01*
G01*
X271461797Y-40099999D02*
G75*
G02*
X271209539Y-40031700I3J500009D01*
G01*
X273050702Y-43099999D02*
G75*
G02*
X273302961Y-43168298I-2J-500009D01*
G01*
X273302961Y-40031701D02*
G75*
G02*
X273050703Y-40100000I-252261J431710D01*
G01*
X273302961Y-40031701D02*
G75*
G02*
X274005733Y-40680279I252258J-431700D01*
G01*
X273956249Y-40897156D02*
G75*
G02*
X274005734Y-40680279I499990J1D01*
G01*
X274005734Y-42519718D02*
G75*
G02*
X273302961Y-43168298I-450514J-216880D01*
G01*
X274005734Y-42519719D02*
G75*
G02*
X273956249Y-42302841I450505J216876D01*
G01*
%TO.C,LED5*%
X264206251Y-19140907D02*
X264206251Y-20546591D01*
X265111798Y-21343749D02*
X266700702Y-21343749D01*
X266700703Y-18343750D02*
X265111798Y-18343750D01*
X267606249Y-20546591D02*
X267606249Y-19140907D01*
X264156766Y-18924029D02*
G75*
G02*
X264206263Y-19140907I-451016J-217021D01*
G01*
X264156766Y-18924029D02*
G75*
G02*
X264859539Y-18275450I450514J216879D01*
G01*
X264206251Y-20546592D02*
G75*
G02*
X264156766Y-20763469I-500351J82D01*
G01*
X264859539Y-21412046D02*
G75*
G02*
X264156770Y-20763471I-252259J431696D01*
G01*
X264859540Y-21412048D02*
G75*
G02*
X265111798Y-21343750I252260J-431712D01*
G01*
X265111797Y-18343749D02*
G75*
G02*
X264859539Y-18275450I3J500009D01*
G01*
X266700702Y-21343749D02*
G75*
G02*
X266952961Y-21412048I-2J-500009D01*
G01*
X266952961Y-18275451D02*
G75*
G02*
X266700703Y-18343750I-252261J431710D01*
G01*
X266952961Y-18275451D02*
G75*
G02*
X267655735Y-18924029I252259J-431700D01*
G01*
X267606249Y-19140906D02*
G75*
G02*
X267655734Y-18924029I499990J1D01*
G01*
X267655734Y-20763468D02*
G75*
G02*
X266952961Y-21412048I-450514J-216880D01*
G01*
X267655734Y-20763469D02*
G75*
G02*
X267606249Y-20546591I450505J216876D01*
G01*
%TO.C,LED4*%
X276906251Y-19140907D02*
X276906251Y-20546591D01*
X277811798Y-21343749D02*
X279400702Y-21343749D01*
X279400703Y-18343750D02*
X277811798Y-18343750D01*
X280306249Y-20546591D02*
X280306249Y-19140907D01*
X276856766Y-18924029D02*
G75*
G02*
X276906263Y-19140907I-451016J-217021D01*
G01*
X276856766Y-18924029D02*
G75*
G02*
X277559539Y-18275450I450514J216879D01*
G01*
X276906251Y-20546592D02*
G75*
G02*
X276856766Y-20763469I-500351J82D01*
G01*
X277559539Y-21412046D02*
G75*
G02*
X276856770Y-20763471I-252259J431696D01*
G01*
X277559540Y-21412048D02*
G75*
G02*
X277811798Y-21343750I252260J-431712D01*
G01*
X277811797Y-18343749D02*
G75*
G02*
X277559539Y-18275450I3J500009D01*
G01*
X279400702Y-21343749D02*
G75*
G02*
X279652961Y-21412048I-2J-500009D01*
G01*
X279652961Y-18275451D02*
G75*
G02*
X279400703Y-18343750I-252261J431710D01*
G01*
X279652961Y-18275451D02*
G75*
G02*
X280355735Y-18924029I252259J-431700D01*
G01*
X280306249Y-19140906D02*
G75*
G02*
X280355734Y-18924029I499990J1D01*
G01*
X280355734Y-20763468D02*
G75*
G02*
X279652961Y-21412048I-450514J-216880D01*
G01*
X280355734Y-20763469D02*
G75*
G02*
X280306249Y-20546591I450505J216876D01*
G01*
%TO.C,LED6*%
X255675000Y-21430547D02*
X255675000Y-23019452D01*
X256472157Y-23924999D02*
X257877841Y-23924999D01*
X257877841Y-20525001D02*
X256472157Y-20525001D01*
X258674999Y-23019452D02*
X258674999Y-21430548D01*
X255606701Y-21178289D02*
G75*
G02*
X255675000Y-21430547I-431710J-252261D01*
G01*
X255606701Y-21178289D02*
G75*
G02*
X256255279Y-20475515I431700J252259D01*
G01*
X255674999Y-23019453D02*
G75*
G02*
X255606700Y-23271711I-500009J3D01*
G01*
X256255279Y-23974484D02*
G75*
G02*
X255606700Y-23271711I-216879J450514D01*
G01*
X256255279Y-23974484D02*
G75*
G02*
X256472157Y-23924987I217021J-451016D01*
G01*
X256472156Y-20525001D02*
G75*
G02*
X256255279Y-20475516I-1J499990D01*
G01*
X257877842Y-23924999D02*
G75*
G02*
X258094719Y-23974484I-82J-500351D01*
G01*
X258094718Y-20475516D02*
G75*
G02*
X258743298Y-21178289I216880J-450514D01*
G01*
X258094719Y-20475516D02*
G75*
G02*
X257877841Y-20525001I-216876J450505D01*
G01*
X258674999Y-21430548D02*
G75*
G02*
X258743298Y-21178289I500009J-2D01*
G01*
X258743296Y-23271711D02*
G75*
G02*
X258094721Y-23974480I-431696J-252259D01*
G01*
X258743298Y-23271710D02*
G75*
G02*
X258675000Y-23019452I431712J252260D01*
G01*
%TO.C,LED8*%
X261231250Y-40480547D02*
X261231250Y-42069452D01*
X262028407Y-42974999D02*
X263434091Y-42974999D01*
X263434091Y-39575001D02*
X262028407Y-39575001D01*
X264231249Y-42069452D02*
X264231249Y-40480548D01*
X261162951Y-40228289D02*
G75*
G02*
X261231250Y-40480547I-431710J-252261D01*
G01*
X261162951Y-40228289D02*
G75*
G02*
X261811529Y-39525515I431700J252259D01*
G01*
X261231249Y-42069453D02*
G75*
G02*
X261162950Y-42321711I-500009J3D01*
G01*
X261811529Y-43024484D02*
G75*
G02*
X261162950Y-42321711I-216879J450514D01*
G01*
X261811529Y-43024484D02*
G75*
G02*
X262028407Y-42974987I217021J-451016D01*
G01*
X262028406Y-39575001D02*
G75*
G02*
X261811529Y-39525516I-1J499990D01*
G01*
X263434092Y-42974999D02*
G75*
G02*
X263650969Y-43024484I-82J-500351D01*
G01*
X263650968Y-39525516D02*
G75*
G02*
X264299548Y-40228289I216880J-450514D01*
G01*
X263650969Y-39525516D02*
G75*
G02*
X263434091Y-39575001I-216876J450505D01*
G01*
X264231249Y-40480548D02*
G75*
G02*
X264299548Y-40228289I500009J-2D01*
G01*
X264299546Y-42321711D02*
G75*
G02*
X263650971Y-43024480I-431696J-252259D01*
G01*
X264299548Y-42321710D02*
G75*
G02*
X264231250Y-42069452I431712J252260D01*
G01*
%TD*%
M02*
