M48
; DRILL file {KiCad 8.0.9} date 2025-11-23T23:32:48+0100
; FORMAT={-:-/ absolute / inch / decimal}
; #@! TF.CreationDate,2025-11-23T23:32:48+01:00
; #@! TF.GenerationSoftware,Kicad,Pcbnew,8.0.9
; #@! TF.FileFunction,NonPlated,1,2,NPTH
FMAT,2
INCH
; #@! TA.AperFunction,NonPlated,NPTH,ComponentDrill
T1C0.0256
; #@! TA.AperFunction,NonPlated,NPTH,ComponentDrill
T2C0.0390
; #@! TA.AperFunction,NonPlated,NPTH,ComponentDrill
T3C0.0689
; #@! TA.AperFunction,NonPlated,NPTH,ComponentDrill
T4C0.1570
%
G90
G05
T1
X5.4014Y-0.8718
X5.629Y-0.8718
T2
X9.6563Y-3.3813
X9.8563Y-3.3413
X9.8563Y-3.4213
T3
X0.675Y-1.25
X0.675Y-2.0
X0.675Y-2.75
X1.075Y-1.25
X1.075Y-2.0
X1.075Y-2.75
X1.6125Y-1.25
X1.6125Y-3.6875
X1.7063Y-2.0
X1.7063Y-3.6875
X1.8938Y-2.75
X2.0125Y-1.25
X2.0125Y-3.6875
X2.1062Y-2.0
X2.1062Y-3.6875
X2.2937Y-2.75
X2.3625Y-1.25
X2.4562Y-3.6875
X2.55Y-2.0
X2.55Y-3.6875
X2.7625Y-1.25
X2.8562Y-3.6875
X2.925Y-2.75
X2.95Y-2.0
X2.95Y-3.6875
X3.1125Y-1.25
X3.3Y-2.0
X3.325Y-2.75
X3.5125Y-1.25
X3.5812Y-3.6875
X3.675Y-2.75
X3.7Y-2.0
X3.8625Y-1.25
X3.9812Y-3.6875
X4.05Y-2.0
X4.075Y-2.75
X4.2375Y-3.6875
X4.2625Y-1.25
X4.425Y-2.75
X4.45Y-2.0
X4.6125Y-1.25
X4.6375Y-3.6875
X4.7062Y-3.6875
X4.8Y-2.0
X4.825Y-2.75
X5.0125Y-1.25
X5.1063Y-3.6875
X5.175Y-2.75
X5.2Y-2.0
X5.3625Y-1.25
X5.3625Y-3.6875
X5.55Y-2.0
X5.575Y-2.75
X5.7625Y-1.25
X5.7625Y-3.6875
X5.925Y-2.75
X5.95Y-2.0
X6.0187Y-3.6875
X6.1125Y-1.25
X6.3Y-2.0
X6.325Y-2.75
X6.4188Y-3.6875
X6.4875Y-3.6875
X6.5125Y-1.25
X6.675Y-2.75
X6.7Y-2.0
X6.8625Y-1.25
X6.8875Y-3.6875
X7.05Y-2.0
X7.075Y-2.75
X7.1437Y-3.6875
X7.2625Y-1.25
X7.425Y-2.75
X7.45Y-2.0
X7.5438Y-3.6875
X7.6125Y-1.25
X7.8Y-2.0
X7.825Y-2.75
X8.0125Y-1.25
X8.175Y-2.75
X8.175Y-3.6875
X8.2Y-2.0
X8.2687Y-3.6875
X8.3625Y-1.25
X8.55Y-2.0
X8.575Y-2.75
X8.575Y-3.6875
X8.6687Y-3.6875
X8.7625Y-1.25
X8.925Y-2.75
X8.95Y-2.0
X9.0187Y-3.6875
X9.1125Y-1.25
X9.1125Y-3.6875
X9.3Y-2.0
X9.325Y-2.75
X9.4187Y-3.6875
X9.5125Y-1.25
X9.5125Y-3.6875
X9.675Y-2.75
X9.7Y-2.0
X10.075Y-2.75
X10.3312Y-1.4375
X10.425Y-2.75
X10.7312Y-1.4375
X10.825Y-2.75
T4
X0.875Y-1.25
X0.875Y-2.0
X0.875Y-2.75
X1.8125Y-1.25
X1.8125Y-3.6875
X1.9062Y-2.0
X1.9062Y-3.6875
X2.0938Y-2.75
X2.5625Y-1.25
X2.6562Y-3.6875
X2.75Y-2.0
X2.75Y-3.6875
X3.125Y-2.75
X3.3125Y-1.25
X3.5Y-2.0
X3.6875Y-3.3625
X3.6875Y-3.3625
X3.7812Y-3.6875
X3.875Y-2.75
X4.0625Y-1.25
X4.25Y-2.0
X4.4375Y-3.6875
X4.625Y-2.75
X4.8125Y-1.25
X4.9062Y-3.6875
X5.0Y-2.0
X5.1875Y-3.3625
X5.375Y-2.75
X5.5625Y-1.25
X5.5625Y-3.6875
X5.75Y-2.0
X5.9375Y-3.3625
X6.125Y-2.75
X6.2188Y-3.6875
X6.3125Y-1.25
X6.5Y-2.0
X6.6875Y-3.6875
X6.875Y-2.75
X7.0625Y-1.25
X7.25Y-2.0
X7.3438Y-3.6875
X7.4375Y-3.3625
X7.4375Y-3.3625
X7.625Y-2.75
X7.8125Y-1.25
X8.0Y-2.0
X8.375Y-2.75
X8.375Y-3.6875
X8.4688Y-3.6875
X8.5625Y-1.25
X8.75Y-2.0
X9.125Y-2.75
X9.2188Y-3.6875
X9.3125Y-1.25
X9.3125Y-3.6875
X9.5Y-2.0
X9.875Y-2.75
X10.2062Y-0.9688
X10.2062Y-1.9062
X10.5312Y-1.4375
X10.625Y-2.75
M30
