%TF.GenerationSoftware,KiCad,Pcbnew,9.0.7*%
%TF.CreationDate,2026-06-10T22:08:31+02:00*%
%TF.ProjectId,eurovISOn REV,6575726f-7649-4534-9f6e-205245562e6b,rev?*%
%TF.SameCoordinates,Original*%
%TF.FileFunction,Profile,NP*%
%FSLAX46Y46*%
G04 Gerber Fmt 4.6, Leading zero omitted, Abs format (unit mm)*
G04 Created by KiCad (PCBNEW 9.0.7) date 2026-06-10 22:08:31*
%MOMM*%
%LPD*%
G01*
G04 APERTURE LIST*
%TA.AperFunction,Profile*%
%ADD10C,0.200000*%
%TD*%
%TA.AperFunction,Profile*%
%ADD11C,0.100000*%
%TD*%
G04 APERTURE END LIST*
D10*
X250640746Y-13855725D02*
G75*
G02*
X252821042Y-12578964I2180296J-1223241D01*
G01*
X247665655Y-19158493D02*
G75*
G02*
X242432950Y-22222713I-5232702J2935776D01*
G01*
X250640746Y-13855727D02*
X247665655Y-19158493D01*
X252821042Y-12578964D02*
X281900000Y-12581250D01*
X209550000Y-27781199D02*
G75*
G02*
X208756199Y-28575000I-793800J-1D01*
G01*
X243665750Y-100798649D02*
G75*
G02*
X241284500Y-103179950I-2381250J-51D01*
G01*
X100621228Y-101726540D02*
G75*
G02*
X102004678Y-100806200I1383472J-579660D01*
G01*
X128587499Y-103187500D02*
G75*
G02*
X126391300Y-101726528I1J2381200D01*
G01*
X35718749Y-84137500D02*
X37306250Y-84137500D01*
X86518750Y-95250000D02*
X86518750Y-100806250D01*
X205581250Y-95250000D02*
X205581250Y-100811604D01*
X149613850Y-6462800D02*
X142467750Y-6462800D01*
X29368750Y-19843750D02*
G75*
G02*
X31564978Y-21304710I0J-2381250D01*
G01*
X157567178Y-100806250D02*
X179776573Y-100806250D01*
X34925000Y-84931250D02*
G75*
G02*
X35718749Y-84137500I793800J-50D01*
G01*
X249248292Y-103187500D02*
X277018751Y-103187500D01*
X246046949Y-96831300D02*
G75*
G02*
X246840700Y-97625101I-49J-793800D01*
G01*
X137708349Y-22225000D02*
X97631249Y-22225000D01*
X76993750Y-100806250D02*
X76993750Y-95250000D01*
X40481250Y-103187500D02*
X74612500Y-103187500D01*
X209550000Y-24606250D02*
G75*
G02*
X211931249Y-22225000I2381300J-50D01*
G01*
X29368750Y-19843750D02*
X15081249Y-19843750D01*
X196056250Y-100806250D02*
G75*
G02*
X193675000Y-103187450I-2381250J50D01*
G01*
X281900000Y-12581250D02*
G75*
G02*
X284281250Y-14962500I0J-2381250D01*
G01*
X88900000Y-103187500D02*
X98424999Y-103187500D01*
X94456199Y-28575000D02*
X92868801Y-28575000D01*
X244459551Y-96831300D02*
X246046949Y-96831300D01*
X15081250Y-103187500D02*
G75*
G02*
X12700000Y-100806250I0J2381250D01*
G01*
X92075000Y-27781199D02*
X92075000Y-24606301D01*
X12700000Y-22225000D02*
X12700000Y-100806250D01*
X34925000Y-100806250D02*
G75*
G02*
X32543750Y-103187500I-2381250J0D01*
G01*
X243665750Y-100798649D02*
X243665750Y-97625101D01*
X100621228Y-101726540D02*
G75*
G02*
X98424999Y-103187531I-2196228J920240D01*
G01*
X89693699Y-22225000D02*
G75*
G02*
X92075000Y-24606301I1J-2381300D01*
G01*
X207962079Y-103179900D02*
X241284500Y-103179900D01*
X140088050Y-19845300D02*
G75*
G02*
X137708349Y-22225050I-2379750J0D01*
G01*
X76993750Y-100806250D02*
G75*
G02*
X74612500Y-103187500I-2381250J0D01*
G01*
X34925000Y-100806250D02*
X34925000Y-84931250D01*
X140088050Y-8842500D02*
X140088050Y-19845300D01*
X140088050Y-8842500D02*
G75*
G02*
X142467750Y-6462750I2379750J0D01*
G01*
X88900000Y-103187500D02*
G75*
G02*
X86518700Y-100806250I0J2381300D01*
G01*
X246840750Y-97625101D02*
X246840750Y-100798479D01*
X183356249Y-103187500D02*
G75*
G02*
X181160008Y-101726546I-49J2381200D01*
G01*
X203993766Y-22225000D02*
G75*
G02*
X206375000Y-24606301I-66J-2381300D01*
G01*
X179776573Y-100806250D02*
G75*
G02*
X181160018Y-101726542I27J-1499950D01*
G01*
X279406342Y-100806264D02*
X279509933Y-61939753D01*
X154375483Y-22223600D02*
G75*
G02*
X151993000Y-19840992I17J2382500D01*
G01*
X196056250Y-95250000D02*
G75*
G02*
X198437499Y-92868750I2381250J0D01*
G01*
X128587499Y-103187500D02*
X153987499Y-103187500D01*
X249248292Y-103187500D02*
G75*
G02*
X246840770Y-100798479I-13092J2394400D01*
G01*
X242432952Y-22222663D02*
X211931249Y-22225000D01*
X79374999Y-92868750D02*
X84137500Y-92868750D01*
X37306250Y-84137500D02*
G75*
G02*
X38100000Y-84931250I-50J-793800D01*
G01*
X125007823Y-100806250D02*
G75*
G02*
X126391226Y-101726559I-23J-1499950D01*
G01*
X279406342Y-100806264D02*
G75*
G02*
X277018751Y-103187450I-2387542J6364D01*
G01*
X38100000Y-84931250D02*
X38100000Y-100806250D01*
X12700000Y-22225000D02*
G75*
G02*
X15081249Y-19843750I2381250J0D01*
G01*
X95250000Y-24606250D02*
X95250000Y-27781199D01*
X198437499Y-92868750D02*
X203200000Y-92868750D01*
X196056250Y-100806250D02*
X196056250Y-95250000D01*
X183356249Y-103187500D02*
X193675000Y-103187500D01*
X209550000Y-24606250D02*
X209550000Y-27781199D01*
X84137500Y-92868750D02*
G75*
G02*
X86518750Y-95250000I0J-2381250D01*
G01*
X207168801Y-28575000D02*
G75*
G02*
X206375000Y-27781199I-1J793800D01*
G01*
X156183728Y-101726540D02*
G75*
G02*
X157567178Y-100806200I1383472J-579660D01*
G01*
X151993050Y-19840992D02*
X151993550Y-8842608D01*
X243665750Y-97625101D02*
G75*
G02*
X244459551Y-96831250I793850J1D01*
G01*
X207962079Y-103179900D02*
G75*
G02*
X205581267Y-100811604I-12479J2368300D01*
G01*
X156183728Y-101726540D02*
G75*
G02*
X153987499Y-103187531I-2196228J920240D01*
G01*
X284281250Y-58062500D02*
X284281250Y-14962500D01*
X32948427Y-22225000D02*
G75*
G02*
X31564953Y-21304720I-27J1500000D01*
G01*
X206375000Y-27781199D02*
X206375000Y-24606301D01*
X95250000Y-24606250D02*
G75*
G02*
X97631249Y-22225000I2381300J-50D01*
G01*
X208756199Y-28575000D02*
X207168801Y-28575000D01*
X203993766Y-22225000D02*
X154375483Y-22223600D01*
X95250000Y-27781199D02*
G75*
G02*
X94456199Y-28575000I-793800J-1D01*
G01*
X149613850Y-6462800D02*
G75*
G02*
X151993500Y-8842608I-50J-2379700D01*
G01*
X92868801Y-28575000D02*
G75*
G02*
X92075000Y-27781199I-1J793800D01*
G01*
X281009930Y-60443750D02*
X281900000Y-60443750D01*
X76993750Y-95250000D02*
G75*
G02*
X79374999Y-92868750I2381250J0D01*
G01*
X89693699Y-22225000D02*
X32948427Y-22225000D01*
X284281250Y-58062500D02*
G75*
G02*
X281900000Y-60443750I-2381250J0D01*
G01*
X102004678Y-100806250D02*
X125007823Y-100806250D01*
X40481250Y-103187500D02*
G75*
G02*
X38100000Y-100806250I50J2381300D01*
G01*
X279509933Y-61939753D02*
G75*
G02*
X281009930Y-60443828I1499967J-4047D01*
G01*
X15081250Y-103187500D02*
X32543750Y-103187500D01*
X203200000Y-92868750D02*
G75*
G02*
X205581250Y-95250000I0J-2381250D01*
G01*
D11*
%TO.C,LED6*%
X246928100Y-22222847D02*
X246928100Y-23811752D01*
X247725257Y-24717299D02*
X249130941Y-24717299D01*
X249130941Y-21317301D02*
X247725257Y-21317301D01*
X249928099Y-23811752D02*
X249928099Y-22222848D01*
X246859801Y-21970589D02*
G75*
G02*
X246928100Y-22222847I-431710J-252261D01*
G01*
X246859801Y-21970589D02*
G75*
G02*
X247508379Y-21267815I431700J252259D01*
G01*
X246928099Y-23811753D02*
G75*
G02*
X246859800Y-24064011I-500009J3D01*
G01*
X247508379Y-24766784D02*
G75*
G02*
X246859800Y-24064011I-216879J450514D01*
G01*
X247508379Y-24766784D02*
G75*
G02*
X247725257Y-24717310I216921J-450816D01*
G01*
X247725256Y-21317301D02*
G75*
G02*
X247508379Y-21267816I-1J499990D01*
G01*
X249130942Y-24717299D02*
G75*
G02*
X249347819Y-24766784I-82J-500351D01*
G01*
X249347818Y-21267816D02*
G75*
G02*
X249996398Y-21970589I216880J-450514D01*
G01*
X249347819Y-21267816D02*
G75*
G02*
X249130941Y-21317301I-216876J450505D01*
G01*
X249928099Y-22222848D02*
G75*
G02*
X249996398Y-21970589I500009J-2D01*
G01*
X249996396Y-24064011D02*
G75*
G02*
X249347821Y-24766780I-431696J-252259D01*
G01*
X249996398Y-24064010D02*
G75*
G02*
X249928100Y-23811752I431712J252260D01*
G01*
%TO.C,LED2*%
X280263501Y-49208648D02*
X280263501Y-50797552D01*
X281060659Y-51703099D02*
X282466343Y-51703099D01*
X282466343Y-48303101D02*
X281060659Y-48303101D01*
X283263500Y-50797553D02*
X283263500Y-49208648D01*
X280195202Y-48956390D02*
G75*
G02*
X280263500Y-49208648I-431712J-252260D01*
G01*
X280195204Y-48956389D02*
G75*
G02*
X280843779Y-48253620I431696J252259D01*
G01*
X280263501Y-50797552D02*
G75*
G02*
X280195202Y-51049811I-500009J2D01*
G01*
X280843781Y-51752584D02*
G75*
G02*
X281060659Y-51703099I216876J-450505D01*
G01*
X280843782Y-51752584D02*
G75*
G02*
X280195202Y-51049811I-216880J450514D01*
G01*
X281060658Y-48303101D02*
G75*
G02*
X280843781Y-48253616I82J500351D01*
G01*
X282466344Y-51703099D02*
G75*
G02*
X282683221Y-51752584I1J-499990D01*
G01*
X282683221Y-48253616D02*
G75*
G02*
X282466343Y-48303090I-216921J450816D01*
G01*
X282683221Y-48253616D02*
G75*
G02*
X283331800Y-48956389I216879J-450514D01*
G01*
X283263501Y-49208647D02*
G75*
G02*
X283331800Y-48956389I500009J-3D01*
G01*
X283331799Y-51049811D02*
G75*
G02*
X282683221Y-51752585I-431700J-252259D01*
G01*
X283331799Y-51049811D02*
G75*
G02*
X283263500Y-50797553I431710J252261D01*
G01*
%TO.C,LED1*%
X272126501Y-57237259D02*
X272126501Y-58642943D01*
X273032047Y-59440100D02*
X274620952Y-59440100D01*
X274620952Y-56440101D02*
X273032048Y-56440101D01*
X275526499Y-58642943D02*
X275526499Y-57237259D01*
X272077016Y-57020381D02*
G75*
G02*
X272126501Y-57237259I-450505J-216876D01*
G01*
X272077016Y-57020382D02*
G75*
G02*
X272779789Y-56371802I450514J216880D01*
G01*
X272126501Y-58642944D02*
G75*
G02*
X272077016Y-58859821I-499990J-1D01*
G01*
X272779789Y-59508399D02*
G75*
G02*
X272077015Y-58859821I-252259J431700D01*
G01*
X272779789Y-59508399D02*
G75*
G02*
X273032047Y-59440100I252261J-431710D01*
G01*
X273032048Y-56440101D02*
G75*
G02*
X272779789Y-56371802I2J500009D01*
G01*
X274620953Y-59440101D02*
G75*
G02*
X274873211Y-59508400I-3J-500009D01*
G01*
X274873210Y-56371802D02*
G75*
G02*
X274620952Y-56440100I-252260J431712D01*
G01*
X274873211Y-56371804D02*
G75*
G02*
X275575980Y-57020379I252259J-431696D01*
G01*
X275526499Y-57237258D02*
G75*
G02*
X275575984Y-57020381I500351J-82D01*
G01*
X275575984Y-58859821D02*
G75*
G02*
X274873211Y-59508400I-450514J-216879D01*
G01*
X275575984Y-58859821D02*
G75*
G02*
X275526510Y-58642943I450816J216921D01*
G01*
%TO.C,LED7*%
X246928100Y-30955547D02*
X246928100Y-32544452D01*
X247725257Y-33449999D02*
X249130941Y-33449999D01*
X249130941Y-30050001D02*
X247725257Y-30050001D01*
X249928099Y-32544452D02*
X249928099Y-30955548D01*
X246859801Y-30703289D02*
G75*
G02*
X246928100Y-30955547I-431710J-252261D01*
G01*
X246859801Y-30703289D02*
G75*
G02*
X247508379Y-30000515I431700J252259D01*
G01*
X246928099Y-32544453D02*
G75*
G02*
X246859800Y-32796711I-500009J3D01*
G01*
X247508379Y-33499484D02*
G75*
G02*
X246859800Y-32796711I-216879J450514D01*
G01*
X247508379Y-33499484D02*
G75*
G02*
X247725257Y-33450010I216921J-450816D01*
G01*
X247725256Y-30050001D02*
G75*
G02*
X247508379Y-30000516I-1J499990D01*
G01*
X249130942Y-33449999D02*
G75*
G02*
X249347819Y-33499484I-82J-500351D01*
G01*
X249347818Y-30000516D02*
G75*
G02*
X249996398Y-30703289I216880J-450514D01*
G01*
X249347819Y-30000516D02*
G75*
G02*
X249130941Y-30050001I-216876J450505D01*
G01*
X249928099Y-30955548D02*
G75*
G02*
X249996398Y-30703289I500009J-2D01*
G01*
X249996396Y-32796711D02*
G75*
G02*
X249347821Y-33499480I-431696J-252259D01*
G01*
X249996398Y-32796710D02*
G75*
G02*
X249928100Y-32544452I431712J252260D01*
G01*
%TO.C,LED3*%
X280263501Y-40477948D02*
X280263501Y-42066852D01*
X281060659Y-42972399D02*
X282466343Y-42972399D01*
X282466343Y-39572401D02*
X281060659Y-39572401D01*
X283263500Y-42066853D02*
X283263500Y-40477948D01*
X280195202Y-40225690D02*
G75*
G02*
X280263500Y-40477948I-431712J-252260D01*
G01*
X280195204Y-40225689D02*
G75*
G02*
X280843779Y-39522920I431696J252259D01*
G01*
X280263501Y-42066852D02*
G75*
G02*
X280195202Y-42319111I-500009J2D01*
G01*
X280843781Y-43021884D02*
G75*
G02*
X281060659Y-42972399I216876J-450505D01*
G01*
X280843782Y-43021884D02*
G75*
G02*
X280195202Y-42319111I-216880J450514D01*
G01*
X281060658Y-39572401D02*
G75*
G02*
X280843781Y-39522916I82J500351D01*
G01*
X282466344Y-42972399D02*
G75*
G02*
X282683221Y-43021884I1J-499990D01*
G01*
X282683221Y-39522916D02*
G75*
G02*
X282466343Y-39572390I-216921J450816D01*
G01*
X282683221Y-39522916D02*
G75*
G02*
X283331800Y-40225689I216879J-450514D01*
G01*
X283263501Y-40477947D02*
G75*
G02*
X283331800Y-40225689I500009J-3D01*
G01*
X283331799Y-42319111D02*
G75*
G02*
X282683221Y-43021885I-431700J-252259D01*
G01*
X283331799Y-42319111D02*
G75*
G02*
X283263500Y-42066853I431710J252261D01*
G01*
%TO.C,LED9*%
X259443751Y-57237259D02*
X259443751Y-58642943D01*
X260349297Y-59440100D02*
X261938202Y-59440100D01*
X261938202Y-56440101D02*
X260349298Y-56440101D01*
X262843749Y-58642943D02*
X262843749Y-57237259D01*
X259394266Y-57020381D02*
G75*
G02*
X259443751Y-57237259I-450505J-216876D01*
G01*
X259394266Y-57020382D02*
G75*
G02*
X260097039Y-56371802I450514J216880D01*
G01*
X259443751Y-58642944D02*
G75*
G02*
X259394266Y-58859821I-499990J-1D01*
G01*
X260097039Y-59508399D02*
G75*
G02*
X259394265Y-58859821I-252259J431700D01*
G01*
X260097039Y-59508399D02*
G75*
G02*
X260349297Y-59440100I252261J-431710D01*
G01*
X260349298Y-56440101D02*
G75*
G02*
X260097039Y-56371802I2J500009D01*
G01*
X261938203Y-59440101D02*
G75*
G02*
X262190461Y-59508400I-3J-500009D01*
G01*
X262190460Y-56371802D02*
G75*
G02*
X261938202Y-56440100I-252260J431712D01*
G01*
X262190461Y-56371804D02*
G75*
G02*
X262893230Y-57020379I252259J-431696D01*
G01*
X262843749Y-57237258D02*
G75*
G02*
X262893234Y-57020381I500351J-82D01*
G01*
X262893234Y-58859821D02*
G75*
G02*
X262190461Y-59508400I-450514J-216879D01*
G01*
X262893234Y-58859821D02*
G75*
G02*
X262843760Y-58642943I450816J216921D01*
G01*
%TO.C,LED10*%
X265793751Y-40897157D02*
X265793751Y-42302841D01*
X266699298Y-43099999D02*
X268288202Y-43099999D01*
X268288203Y-40100000D02*
X266699298Y-40100000D01*
X269193749Y-42302841D02*
X269193749Y-40897157D01*
X265744266Y-40680279D02*
G75*
G02*
X265793740Y-40897157I-450816J-216921D01*
G01*
X265744266Y-40680279D02*
G75*
G02*
X266447039Y-40031700I450514J216879D01*
G01*
X265793751Y-42302842D02*
G75*
G02*
X265744266Y-42519719I-500351J82D01*
G01*
X266447039Y-43168296D02*
G75*
G02*
X265744270Y-42519721I-252259J431696D01*
G01*
X266447040Y-43168298D02*
G75*
G02*
X266699298Y-43100000I252260J-431712D01*
G01*
X266699297Y-40099999D02*
G75*
G02*
X266447039Y-40031700I3J500009D01*
G01*
X268288202Y-43099999D02*
G75*
G02*
X268540461Y-43168298I-2J-500009D01*
G01*
X268540461Y-40031701D02*
G75*
G02*
X268288203Y-40100000I-252261J431710D01*
G01*
X268540461Y-40031701D02*
G75*
G02*
X269243234Y-40680279I252258J-431701D01*
G01*
X269193749Y-40897156D02*
G75*
G02*
X269243234Y-40680279I499990J1D01*
G01*
X269243234Y-42519718D02*
G75*
G02*
X268540461Y-43168298I-450514J-216880D01*
G01*
X269243234Y-42519719D02*
G75*
G02*
X269193749Y-42302841I450505J216876D01*
G01*
%TO.C,LED11*%
X280263501Y-32542452D02*
X280263501Y-30953548D01*
X281060659Y-30048001D02*
X282466343Y-30048001D01*
X282466343Y-33447999D02*
X281060659Y-33447999D01*
X283263500Y-30953548D02*
X283263500Y-32542453D01*
X280195202Y-30701290D02*
G75*
G02*
X280263500Y-30953548I-431712J-252260D01*
G01*
X280195204Y-30701289D02*
G75*
G02*
X280843779Y-29998520I431696J252259D01*
G01*
X280263501Y-32542452D02*
G75*
G02*
X280195202Y-32794711I-500009J2D01*
G01*
X280843781Y-33497484D02*
G75*
G02*
X281060659Y-33447999I216876J-450505D01*
G01*
X280843782Y-33497484D02*
G75*
G02*
X280195202Y-32794711I-216880J450514D01*
G01*
X281060658Y-30048001D02*
G75*
G02*
X280843781Y-29998517I82J500361D01*
G01*
X282466344Y-33447999D02*
G75*
G02*
X282683221Y-33497484I1J-499990D01*
G01*
X282683221Y-29998516D02*
G75*
G02*
X282466343Y-30047976I-216821J450516D01*
G01*
X282683221Y-29998516D02*
G75*
G02*
X283331800Y-30701289I216879J-450514D01*
G01*
X283263501Y-30953547D02*
G75*
G02*
X283331800Y-30701289I500009J-3D01*
G01*
X283331799Y-32794711D02*
G75*
G02*
X282683221Y-33497485I-431700J-252259D01*
G01*
X283331799Y-32794711D02*
G75*
G02*
X283263500Y-32542453I431710J252261D01*
G01*
%TO.C,LED5*%
X263425407Y-14377457D02*
X263425407Y-15783141D01*
X264330954Y-16580299D02*
X265919858Y-16580299D01*
X265919859Y-13580300D02*
X264330954Y-13580300D01*
X266825405Y-15783141D02*
X266825405Y-14377457D01*
X263375922Y-14160579D02*
G75*
G02*
X263425396Y-14377457I-450816J-216921D01*
G01*
X263375922Y-14160579D02*
G75*
G02*
X264078695Y-13512000I450514J216879D01*
G01*
X263425407Y-15783142D02*
G75*
G02*
X263375922Y-16000019I-500351J82D01*
G01*
X264078695Y-16648596D02*
G75*
G02*
X263375926Y-16000021I-252259J431696D01*
G01*
X264078696Y-16648598D02*
G75*
G02*
X264330954Y-16580300I252260J-431712D01*
G01*
X264330953Y-13580299D02*
G75*
G02*
X264078695Y-13512000I3J500009D01*
G01*
X265919858Y-16580299D02*
G75*
G02*
X266172117Y-16648598I-2J-500009D01*
G01*
X266172117Y-13512001D02*
G75*
G02*
X265919859Y-13580300I-252261J431710D01*
G01*
X266172117Y-13512001D02*
G75*
G02*
X266874891Y-14160579I252259J-431700D01*
G01*
X266825405Y-14377456D02*
G75*
G02*
X266874890Y-14160579I499990J1D01*
G01*
X266874890Y-16000018D02*
G75*
G02*
X266172117Y-16648598I-450514J-216880D01*
G01*
X266874890Y-16000019D02*
G75*
G02*
X266825405Y-15783141I450505J216876D01*
G01*
%TO.C,LED12*%
X280263501Y-23811752D02*
X280263501Y-22222848D01*
X281060659Y-21317301D02*
X282466343Y-21317301D01*
X282466343Y-24717299D02*
X281060659Y-24717299D01*
X283263500Y-22222848D02*
X283263500Y-23811753D01*
X280195202Y-21970590D02*
G75*
G02*
X280263500Y-22222848I-431712J-252260D01*
G01*
X280195204Y-21970589D02*
G75*
G02*
X280843779Y-21267820I431696J252259D01*
G01*
X280263501Y-23811752D02*
G75*
G02*
X280195202Y-24064011I-500009J2D01*
G01*
X280843781Y-24766784D02*
G75*
G02*
X281060659Y-24717299I216876J-450505D01*
G01*
X280843782Y-24766784D02*
G75*
G02*
X280195202Y-24064011I-216880J450514D01*
G01*
X281060658Y-21317301D02*
G75*
G02*
X280843781Y-21267817I82J500361D01*
G01*
X282466344Y-24717299D02*
G75*
G02*
X282683221Y-24766784I1J-499990D01*
G01*
X282683221Y-21267816D02*
G75*
G02*
X282466343Y-21317276I-216821J450516D01*
G01*
X282683221Y-21267816D02*
G75*
G02*
X283331800Y-21970589I216879J-450514D01*
G01*
X283263501Y-22222847D02*
G75*
G02*
X283331800Y-21970589I500009J-3D01*
G01*
X283331799Y-24064011D02*
G75*
G02*
X282683221Y-24766785I-431700J-252259D01*
G01*
X283331799Y-24064011D02*
G75*
G02*
X283263500Y-23811753I431710J252261D01*
G01*
%TO.C,LED14*%
X254665101Y-15783141D02*
X254665101Y-14377457D01*
X255570648Y-13580300D02*
X257159553Y-13580300D01*
X257159552Y-16580299D02*
X255570648Y-16580299D01*
X258065099Y-14377457D02*
X258065099Y-15783141D01*
X254615616Y-14160579D02*
G75*
G02*
X254665076Y-14377457I-450516J-216821D01*
G01*
X254615616Y-14160579D02*
G75*
G02*
X255318389Y-13512000I450514J216879D01*
G01*
X254665101Y-15783142D02*
G75*
G02*
X254615617Y-16000019I-500361J82D01*
G01*
X255318389Y-16648596D02*
G75*
G02*
X254615620Y-16000021I-252259J431696D01*
G01*
X255318390Y-16648598D02*
G75*
G02*
X255570648Y-16580300I252260J-431712D01*
G01*
X255570647Y-13580299D02*
G75*
G02*
X255318389Y-13512000I3J500009D01*
G01*
X257159552Y-16580299D02*
G75*
G02*
X257411811Y-16648598I-2J-500009D01*
G01*
X257411811Y-13512001D02*
G75*
G02*
X257159553Y-13580300I-252261J431710D01*
G01*
X257411811Y-13512001D02*
G75*
G02*
X258114585Y-14160579I252259J-431700D01*
G01*
X258065099Y-14377456D02*
G75*
G02*
X258114584Y-14160579I499990J1D01*
G01*
X258114584Y-16000018D02*
G75*
G02*
X257411811Y-16648598I-450514J-216880D01*
G01*
X258114584Y-16000019D02*
G75*
G02*
X258065099Y-15783141I450505J216876D01*
G01*
%TO.C,LED13*%
X251690300Y-50797552D02*
X251690300Y-49208647D01*
X252487457Y-48303101D02*
X253893141Y-48303101D01*
X253893141Y-51703099D02*
X252487457Y-51703099D01*
X254690299Y-49208648D02*
X254690299Y-50797552D01*
X251622001Y-48956389D02*
G75*
G02*
X251690300Y-49208647I-431710J-252261D01*
G01*
X251622001Y-48956389D02*
G75*
G02*
X252270579Y-48253615I431700J252259D01*
G01*
X251690299Y-50797553D02*
G75*
G02*
X251622000Y-51049811I-500009J3D01*
G01*
X252270579Y-51752584D02*
G75*
G02*
X251622000Y-51049811I-216879J450514D01*
G01*
X252270579Y-51752584D02*
G75*
G02*
X252487457Y-51703124I216821J-450516D01*
G01*
X252487456Y-48303101D02*
G75*
G02*
X252270579Y-48253616I-1J499990D01*
G01*
X253893142Y-51703099D02*
G75*
G02*
X254110019Y-51752583I-82J-500361D01*
G01*
X254110018Y-48253616D02*
G75*
G02*
X254758598Y-48956389I216880J-450514D01*
G01*
X254110019Y-48253616D02*
G75*
G02*
X253893141Y-48303101I-216876J450505D01*
G01*
X254690299Y-49208648D02*
G75*
G02*
X254758598Y-48956389I500009J-2D01*
G01*
X254758596Y-51049811D02*
G75*
G02*
X254110021Y-51752580I-431696J-252259D01*
G01*
X254758598Y-51049810D02*
G75*
G02*
X254690300Y-50797552I431712J252260D01*
G01*
%TO.C,LED4*%
X272143751Y-14377457D02*
X272143751Y-15783141D01*
X273049298Y-16580299D02*
X274638202Y-16580299D01*
X274638203Y-13580300D02*
X273049298Y-13580300D01*
X275543749Y-15783141D02*
X275543749Y-14377457D01*
X272094266Y-14160579D02*
G75*
G02*
X272143740Y-14377457I-450816J-216921D01*
G01*
X272094266Y-14160579D02*
G75*
G02*
X272797039Y-13512000I450514J216879D01*
G01*
X272143751Y-15783142D02*
G75*
G02*
X272094266Y-16000019I-500351J82D01*
G01*
X272797039Y-16648596D02*
G75*
G02*
X272094270Y-16000021I-252259J431696D01*
G01*
X272797040Y-16648598D02*
G75*
G02*
X273049298Y-16580300I252260J-431712D01*
G01*
X273049297Y-13580299D02*
G75*
G02*
X272797039Y-13512000I3J500009D01*
G01*
X274638202Y-16580299D02*
G75*
G02*
X274890461Y-16648598I-2J-500009D01*
G01*
X274890461Y-13512001D02*
G75*
G02*
X274638203Y-13580300I-252261J431710D01*
G01*
X274890461Y-13512001D02*
G75*
G02*
X275593235Y-14160579I252259J-431700D01*
G01*
X275543749Y-14377456D02*
G75*
G02*
X275593234Y-14160579I499990J1D01*
G01*
X275593234Y-16000018D02*
G75*
G02*
X274890461Y-16648598I-450514J-216880D01*
G01*
X275593234Y-16000019D02*
G75*
G02*
X275543749Y-15783141I450505J216876D01*
G01*
%TO.C,LED8*%
X251690300Y-40477947D02*
X251690300Y-42066852D01*
X252487457Y-42972399D02*
X253893141Y-42972399D01*
X253893141Y-39572401D02*
X252487457Y-39572401D01*
X254690299Y-42066852D02*
X254690299Y-40477948D01*
X251622001Y-40225689D02*
G75*
G02*
X251690300Y-40477947I-431710J-252261D01*
G01*
X251622001Y-40225689D02*
G75*
G02*
X252270579Y-39522915I431700J252259D01*
G01*
X251690299Y-42066853D02*
G75*
G02*
X251622000Y-42319111I-500009J3D01*
G01*
X252270579Y-43021884D02*
G75*
G02*
X251622000Y-42319111I-216879J450514D01*
G01*
X252270579Y-43021884D02*
G75*
G02*
X252487457Y-42972410I216921J-450816D01*
G01*
X252487456Y-39572401D02*
G75*
G02*
X252270579Y-39522916I-1J499990D01*
G01*
X253893142Y-42972399D02*
G75*
G02*
X254110019Y-43021884I-82J-500351D01*
G01*
X254110018Y-39522916D02*
G75*
G02*
X254758598Y-40225689I216880J-450514D01*
G01*
X254110019Y-39522916D02*
G75*
G02*
X253893141Y-39572401I-216876J450505D01*
G01*
X254690299Y-40477948D02*
G75*
G02*
X254758598Y-40225689I500009J-2D01*
G01*
X254758596Y-42319111D02*
G75*
G02*
X254110021Y-43021880I-431696J-252259D01*
G01*
X254758598Y-42319110D02*
G75*
G02*
X254690300Y-42066852I431712J252260D01*
G01*
%TD*%
M02*
