%TF.GenerationSoftware,KiCad,Pcbnew,8.0.9*%
%TF.CreationDate,2025-11-23T23:32:43+01:00*%
%TF.ProjectId,eurovISOn REV,6575726f-7649-4534-9f6e-205245562e6b,rev?*%
%TF.SameCoordinates,Original*%
%TF.FileFunction,Paste,Bot*%
%TF.FilePolarity,Positive*%
%FSLAX46Y46*%
G04 Gerber Fmt 4.6, Leading zero omitted, Abs format (unit mm)*
G04 Created by KiCad (PCBNEW 8.0.9) date 2025-11-23 23:32:43*
%MOMM*%
%LPD*%
G01*
G04 APERTURE LIST*
G04 Aperture macros list*
%AMRoundRect*
0 Rectangle with rounded corners*
0 $1 Rounding radius*
0 $2 $3 $4 $5 $6 $7 $8 $9 X,Y pos of 4 corners*
0 Add a 4 corners polygon primitive as box body*
4,1,4,$2,$3,$4,$5,$6,$7,$8,$9,$2,$3,0*
0 Add four circle primitives for the rounded corners*
1,1,$1+$1,$2,$3*
1,1,$1+$1,$4,$5*
1,1,$1+$1,$6,$7*
1,1,$1+$1,$8,$9*
0 Add four rect primitives between the rounded corners*
20,1,$1+$1,$2,$3,$4,$5,0*
20,1,$1+$1,$4,$5,$6,$7,0*
20,1,$1+$1,$6,$7,$8,$9,0*
20,1,$1+$1,$8,$9,$2,$3,0*%
%AMRotRect*
0 Rectangle, with rotation*
0 The origin of the aperture is its center*
0 $1 length*
0 $2 width*
0 $3 Rotation angle, in degrees counterclockwise*
0 Add horizontal line*
21,1,$1,$2,0,0,$3*%
%AMFreePoly0*
4,1,18,-0.410000,0.593000,-0.403758,0.624380,-0.385983,0.650983,-0.359380,0.668758,-0.328000,0.675000,0.328000,0.675000,0.359380,0.668758,0.385983,0.650983,0.403758,0.624380,0.410000,0.593000,0.410000,-0.593000,0.403758,-0.624380,0.385983,-0.650983,0.359380,-0.668758,0.328000,-0.675000,0.000000,-0.675000,-0.410000,-0.265000,-0.410000,0.593000,-0.410000,0.593000,$1*%
G04 Aperture macros list end*
%ADD10RoundRect,0.150000X0.150000X-0.587500X0.150000X0.587500X-0.150000X0.587500X-0.150000X-0.587500X0*%
%ADD11RoundRect,0.250000X0.300000X0.300000X-0.300000X0.300000X-0.300000X-0.300000X0.300000X-0.300000X0*%
%ADD12RoundRect,0.140000X-0.219203X-0.021213X-0.021213X-0.219203X0.219203X0.021213X0.021213X0.219203X0*%
%ADD13RoundRect,0.082000X-0.328000X-0.593000X0.328000X-0.593000X0.328000X0.593000X-0.328000X0.593000X0*%
%ADD14FreePoly0,0.000000*%
%ADD15RoundRect,0.135000X-0.135000X-0.185000X0.135000X-0.185000X0.135000X0.185000X-0.135000X0.185000X0*%
%ADD16RoundRect,0.140000X0.219203X0.021213X0.021213X0.219203X-0.219203X-0.021213X-0.021213X-0.219203X0*%
%ADD17RoundRect,0.082000X-0.593000X0.328000X-0.593000X-0.328000X0.593000X-0.328000X0.593000X0.328000X0*%
%ADD18FreePoly0,270.000000*%
%ADD19RoundRect,0.250000X-0.300000X-0.300000X0.300000X-0.300000X0.300000X0.300000X-0.300000X0.300000X0*%
%ADD20RoundRect,0.175000X-0.175000X-0.325000X0.175000X-0.325000X0.175000X0.325000X-0.175000X0.325000X0*%
%ADD21RoundRect,0.150000X-0.200000X-0.150000X0.200000X-0.150000X0.200000X0.150000X-0.200000X0.150000X0*%
%ADD22RoundRect,0.082000X0.328000X0.593000X-0.328000X0.593000X-0.328000X-0.593000X0.328000X-0.593000X0*%
%ADD23FreePoly0,180.000000*%
%ADD24RoundRect,0.140000X-0.170000X0.140000X-0.170000X-0.140000X0.170000X-0.140000X0.170000X0.140000X0*%
%ADD25RoundRect,0.135000X-0.185000X0.135000X-0.185000X-0.135000X0.185000X-0.135000X0.185000X0.135000X0*%
%ADD26RoundRect,0.150000X0.625000X-0.150000X0.625000X0.150000X-0.625000X0.150000X-0.625000X-0.150000X0*%
%ADD27RoundRect,0.250000X0.650000X-0.350000X0.650000X0.350000X-0.650000X0.350000X-0.650000X-0.350000X0*%
%ADD28RoundRect,0.250000X0.413257X0.000000X0.000000X0.413257X-0.413257X0.000000X0.000000X-0.413257X0*%
%ADD29RoundRect,0.050000X0.309359X-0.238649X-0.238649X0.309359X-0.309359X0.238649X0.238649X-0.309359X0*%
%ADD30RoundRect,0.050000X0.309359X0.238649X0.238649X0.309359X-0.309359X-0.238649X-0.238649X-0.309359X0*%
%ADD31RoundRect,0.250000X-0.625000X0.375000X-0.625000X-0.375000X0.625000X-0.375000X0.625000X0.375000X0*%
%ADD32RoundRect,0.140000X0.170000X-0.140000X0.170000X0.140000X-0.170000X0.140000X-0.170000X-0.140000X0*%
%ADD33RoundRect,0.082000X0.593000X-0.328000X0.593000X0.328000X-0.593000X0.328000X-0.593000X-0.328000X0*%
%ADD34FreePoly0,90.000000*%
%ADD35RoundRect,0.150000X0.512500X0.150000X-0.512500X0.150000X-0.512500X-0.150000X0.512500X-0.150000X0*%
%ADD36RoundRect,0.140000X0.021213X-0.219203X0.219203X-0.021213X-0.021213X0.219203X-0.219203X0.021213X0*%
%ADD37RoundRect,0.135000X0.185000X-0.135000X0.185000X0.135000X-0.185000X0.135000X-0.185000X-0.135000X0*%
%ADD38RoundRect,0.140000X0.140000X0.170000X-0.140000X0.170000X-0.140000X-0.170000X0.140000X-0.170000X0*%
%ADD39RotRect,1.400000X1.200000X315.000000*%
%ADD40RoundRect,0.140000X-0.140000X-0.170000X0.140000X-0.170000X0.140000X0.170000X-0.140000X0.170000X0*%
%ADD41RoundRect,0.135000X-0.226274X-0.035355X-0.035355X-0.226274X0.226274X0.035355X0.035355X0.226274X0*%
%ADD42RotRect,0.900000X0.300000X135.000000*%
%ADD43RotRect,1.650000X0.250000X45.000000*%
%ADD44RoundRect,0.150000X0.275000X-0.150000X0.275000X0.150000X-0.275000X0.150000X-0.275000X-0.150000X0*%
%ADD45RoundRect,0.175000X0.225000X-0.175000X0.225000X0.175000X-0.225000X0.175000X-0.225000X-0.175000X0*%
%ADD46RoundRect,0.135000X0.135000X0.185000X-0.135000X0.185000X-0.135000X-0.185000X0.135000X-0.185000X0*%
%ADD47R,0.600000X1.450000*%
%ADD48R,0.300000X1.450000*%
%ADD49RoundRect,0.140000X-0.021213X0.219203X-0.219203X0.021213X0.021213X-0.219203X0.219203X-0.021213X0*%
%ADD50RoundRect,0.135000X0.035355X-0.226274X0.226274X-0.035355X-0.035355X0.226274X-0.226274X0.035355X0*%
%ADD51R,1.000000X1.700000*%
G04 APERTURE END LIST*
D10*
%TO.C,U4*%
X261143750Y-71725000D03*
X259243750Y-71725000D03*
X260193750Y-69850000D03*
%TD*%
D11*
%TO.C,D3*%
X60931250Y-46037500D03*
X58131250Y-46037500D03*
%TD*%
D12*
%TO.C,C3*%
X248922641Y-91081043D03*
X249601463Y-91759865D03*
%TD*%
D13*
%TO.C,LED2*%
X277768750Y-38550000D03*
X276268750Y-38550000D03*
X277768750Y-44000000D03*
D14*
X276268750Y-44000000D03*
%TD*%
D15*
%TO.C,R3*%
X146324500Y-23017300D03*
X147344500Y-23017300D03*
%TD*%
D11*
%TO.C,D40*%
X60931250Y-55562500D03*
X58131250Y-55562500D03*
%TD*%
D16*
%TO.C,C9*%
X258316129Y-78095780D03*
X257637307Y-77416958D03*
%TD*%
D17*
%TO.C,LED1*%
X276568750Y-53931250D03*
X276568750Y-52431250D03*
X271118750Y-53931250D03*
D18*
X271118750Y-52431250D03*
%TD*%
D11*
%TO.C,D33*%
X156975000Y-52387500D03*
X154175000Y-52387500D03*
%TD*%
D19*
%TO.C,D14*%
X31937500Y-49212500D03*
X34737500Y-49212500D03*
%TD*%
%TO.C,D26*%
X31937500Y-52387500D03*
X34737500Y-52387500D03*
%TD*%
D20*
%TO.C,U5*%
X132047900Y-33291700D03*
D21*
X132047900Y-31591700D03*
X134047900Y-31591700D03*
X134047900Y-33491700D03*
%TD*%
D22*
%TO.C,LED7*%
X251662500Y-34475000D03*
X253162500Y-34475000D03*
X251662500Y-29025000D03*
D23*
X253162500Y-29025000D03*
%TD*%
D24*
%TO.C,C2*%
X255977100Y-91004644D03*
X255977100Y-91964644D03*
%TD*%
D11*
%TO.C,D24*%
X214125000Y-49212500D03*
X211325000Y-49212500D03*
%TD*%
%TO.C,D42*%
X99825000Y-55562500D03*
X97025000Y-55562500D03*
%TD*%
D24*
%TO.C,C11*%
X264162500Y-91201250D03*
X264162500Y-92161250D03*
%TD*%
D11*
%TO.C,D23*%
X195075000Y-49212500D03*
X192275000Y-49212500D03*
%TD*%
%TO.C,D28*%
X60931250Y-52387500D03*
X58131250Y-52387500D03*
%TD*%
%TO.C,D6*%
X118875000Y-46037500D03*
X116075000Y-46037500D03*
%TD*%
D13*
%TO.C,LED3*%
X277768750Y-29025000D03*
X276268750Y-29025000D03*
X277768750Y-34475000D03*
D14*
X276268750Y-34475000D03*
%TD*%
D25*
%TO.C,R5*%
X261937500Y-76483750D03*
X261937500Y-77503750D03*
%TD*%
D11*
%TO.C,D4*%
X80775000Y-46037500D03*
X77975000Y-46037500D03*
%TD*%
%TO.C,D7*%
X137925000Y-46037500D03*
X135125000Y-46037500D03*
%TD*%
%TO.C,D10*%
X195075000Y-46037500D03*
X192275000Y-46037500D03*
%TD*%
%TO.C,D9*%
X176025000Y-46037500D03*
X173225000Y-46037500D03*
%TD*%
D17*
%TO.C,LED9*%
X263868750Y-53931250D03*
X263868750Y-52431250D03*
X258418750Y-53931250D03*
D18*
X258418750Y-52431250D03*
%TD*%
D11*
%TO.C,D25*%
X233175000Y-49212500D03*
X230375000Y-49212500D03*
%TD*%
%TO.C,D22*%
X176025000Y-49212500D03*
X173225000Y-49212500D03*
%TD*%
D26*
%TO.C,J2*%
X239812500Y-41187500D03*
X239812500Y-40187500D03*
X239812500Y-39187500D03*
X239812500Y-38187500D03*
D27*
X235937500Y-42487500D03*
X235937500Y-36887500D03*
%TD*%
D28*
%TO.C,U3*%
X259556250Y-85832811D03*
X260457811Y-84931250D03*
X258654689Y-84931250D03*
X259556250Y-84029689D03*
D29*
X263825407Y-85523452D03*
X263542564Y-85806295D03*
X263259722Y-86089137D03*
X262976879Y-86371980D03*
X262694036Y-86654823D03*
X262411194Y-86937665D03*
X262128351Y-87220508D03*
X261845508Y-87503351D03*
X261562665Y-87786194D03*
X261279823Y-88069036D03*
X260996980Y-88351879D03*
X260714137Y-88634722D03*
X260431295Y-88917564D03*
X260148452Y-89200407D03*
D30*
X258964048Y-89200407D03*
X258681205Y-88917564D03*
X258398363Y-88634722D03*
X258115520Y-88351879D03*
X257832677Y-88069036D03*
X257549835Y-87786194D03*
X257266992Y-87503351D03*
X256984149Y-87220508D03*
X256701306Y-86937665D03*
X256418464Y-86654823D03*
X256135621Y-86371980D03*
X255852778Y-86089137D03*
X255569936Y-85806295D03*
X255287093Y-85523452D03*
D29*
X255287093Y-84339048D03*
X255569936Y-84056205D03*
X255852778Y-83773363D03*
X256135621Y-83490520D03*
X256418464Y-83207677D03*
X256701306Y-82924835D03*
X256984149Y-82641992D03*
X257266992Y-82359149D03*
X257549835Y-82076306D03*
X257832677Y-81793464D03*
X258115520Y-81510621D03*
X258398363Y-81227778D03*
X258681205Y-80944936D03*
X258964048Y-80662093D03*
D30*
X260148452Y-80662093D03*
X260431295Y-80944936D03*
X260714137Y-81227778D03*
X260996980Y-81510621D03*
X261279823Y-81793464D03*
X261562665Y-82076306D03*
X261845508Y-82359149D03*
X262128351Y-82641992D03*
X262411194Y-82924835D03*
X262694036Y-83207677D03*
X262976879Y-83490520D03*
X263259722Y-83773363D03*
X263542564Y-84056205D03*
X263825407Y-84339048D03*
%TD*%
D31*
%TO.C,F1*%
X129873100Y-31141700D03*
X129873100Y-33941700D03*
%TD*%
D11*
%TO.C,D31*%
X118875000Y-52387500D03*
X116075000Y-52387500D03*
%TD*%
%TO.C,D12*%
X233175000Y-46037500D03*
X230375000Y-46037500D03*
%TD*%
D32*
%TO.C,C8*%
X259556250Y-77473750D03*
X259556250Y-76513750D03*
%TD*%
%TO.C,C1*%
X273711376Y-58774739D03*
X273711376Y-57814739D03*
%TD*%
D33*
%TO.C,LED10*%
X264768750Y-40850000D03*
X264768750Y-42350000D03*
X270218750Y-40850000D03*
D34*
X270218750Y-42350000D03*
%TD*%
D35*
%TO.C,U1*%
X277573876Y-57344739D03*
X277573876Y-58294739D03*
X277573876Y-59244739D03*
X275298876Y-59244739D03*
X275298876Y-57344739D03*
%TD*%
D36*
%TO.C,C18*%
X266872146Y-80696077D03*
X267550968Y-80017255D03*
%TD*%
D16*
%TO.C,C10*%
X257608824Y-78860136D03*
X256930002Y-78181314D03*
%TD*%
D33*
%TO.C,LED5*%
X258418750Y-19093750D03*
X258418750Y-20593750D03*
X263868750Y-19093750D03*
D34*
X263868750Y-20593750D03*
%TD*%
D37*
%TO.C,R1*%
X251956250Y-86393750D03*
X251956250Y-85373750D03*
%TD*%
D11*
%TO.C,D29*%
X80775000Y-52387500D03*
X77975000Y-52387500D03*
%TD*%
D38*
%TO.C,C16*%
X260687928Y-68262500D03*
X259727928Y-68262500D03*
%TD*%
D39*
%TO.C,Y1*%
X252870864Y-91289685D03*
X254426499Y-92845320D03*
X253224418Y-94047401D03*
X251668783Y-92491766D03*
%TD*%
D40*
%TO.C,C7*%
X259713750Y-73362500D03*
X260673750Y-73362500D03*
%TD*%
D36*
%TO.C,C15*%
X264433582Y-79521455D03*
X265112404Y-78842633D03*
%TD*%
D11*
%TO.C,D18*%
X99825000Y-49212500D03*
X97025000Y-49212500D03*
%TD*%
D38*
%TO.C,C17*%
X260673750Y-74356250D03*
X259713750Y-74356250D03*
%TD*%
D11*
%TO.C,D39*%
X40106250Y-55562500D03*
X37306250Y-55562500D03*
%TD*%
D41*
%TO.C,R6*%
X253955078Y-90310951D03*
X254676326Y-91032199D03*
%TD*%
D25*
%TO.C,R4*%
X263125000Y-76483750D03*
X263125000Y-77503750D03*
%TD*%
D11*
%TO.C,D8*%
X156975000Y-46037500D03*
X154175000Y-46037500D03*
%TD*%
%TO.C,D16*%
X60931250Y-49212500D03*
X58131250Y-49212500D03*
%TD*%
D42*
%TO.C,IC1*%
X269807780Y-83803369D03*
X269454226Y-84156923D03*
X269100673Y-84510476D03*
X268747119Y-84864030D03*
X266767220Y-82884131D03*
X267120774Y-82530577D03*
X267474327Y-82177024D03*
X267827881Y-81823470D03*
D43*
X268287500Y-83343750D03*
%TD*%
D11*
%TO.C,D35*%
X195075000Y-52387500D03*
X192275000Y-52387500D03*
%TD*%
D44*
%TO.C,J3*%
X238412500Y-41487500D03*
X238412500Y-40287500D03*
X238412500Y-39087500D03*
X238412500Y-37887500D03*
D45*
X234637500Y-42637500D03*
X234637500Y-36737500D03*
%TD*%
D11*
%TO.C,D46*%
X214125000Y-55562500D03*
X211325000Y-55562500D03*
%TD*%
D19*
%TO.C,D1*%
X31937500Y-46037500D03*
X34737500Y-46037500D03*
%TD*%
D12*
%TO.C,C13*%
X265566839Y-86179339D03*
X266245661Y-86858161D03*
%TD*%
D46*
%TO.C,R2*%
X133841600Y-23017300D03*
X132821600Y-23017300D03*
%TD*%
D11*
%TO.C,D2*%
X40106250Y-46037500D03*
X37306250Y-46037500D03*
%TD*%
%TO.C,D37*%
X233175000Y-52387500D03*
X230375000Y-52387500D03*
%TD*%
%TO.C,D13*%
X268893750Y-57150000D03*
X266093750Y-57150000D03*
%TD*%
%TO.C,D15*%
X40106250Y-49212500D03*
X37306250Y-49212500D03*
%TD*%
%TO.C,D43*%
X137925000Y-55562500D03*
X135125000Y-55562500D03*
%TD*%
D47*
%TO.C,J1*%
X136836650Y-23587500D03*
X137636650Y-23587500D03*
D48*
X138836650Y-23587500D03*
X139836650Y-23587500D03*
X140336650Y-23587500D03*
X141336650Y-23587500D03*
D47*
X142536650Y-23587500D03*
X143336650Y-23587500D03*
X143336650Y-23587500D03*
X142536650Y-23587500D03*
D48*
X141836650Y-23587500D03*
X140836650Y-23587500D03*
X139336650Y-23587500D03*
X138336650Y-23587500D03*
D47*
X137636650Y-23587500D03*
X136836650Y-23587500D03*
%TD*%
D49*
%TO.C,C6*%
X251216501Y-88933633D03*
X250537679Y-89612455D03*
%TD*%
D25*
%TO.C,R8*%
X17893094Y-82909862D03*
X17893094Y-83929862D03*
%TD*%
D11*
%TO.C,D41*%
X80775000Y-55562500D03*
X77975000Y-55562500D03*
%TD*%
%TO.C,D45*%
X195075000Y-55562500D03*
X192275000Y-55562500D03*
%TD*%
D33*
%TO.C,LED4*%
X271118750Y-19093750D03*
X271118750Y-20593750D03*
X276568750Y-19093750D03*
D34*
X276568750Y-20593750D03*
%TD*%
D11*
%TO.C,D17*%
X80775000Y-49212500D03*
X77975000Y-49212500D03*
%TD*%
%TO.C,D38*%
X268893750Y-59531250D03*
X266093750Y-59531250D03*
%TD*%
%TO.C,D20*%
X137925000Y-49212500D03*
X135125000Y-49212500D03*
%TD*%
%TO.C,D34*%
X176025000Y-52387500D03*
X173225000Y-52387500D03*
%TD*%
%TO.C,D21*%
X156975000Y-49212500D03*
X154175000Y-49212500D03*
%TD*%
%TO.C,D36*%
X214125000Y-52387500D03*
X211325000Y-52387500D03*
%TD*%
D32*
%TO.C,C4*%
X260478872Y-77473750D03*
X260478872Y-76513750D03*
%TD*%
D11*
%TO.C,D44*%
X176025000Y-55562500D03*
X173225000Y-55562500D03*
%TD*%
D16*
%TO.C,C12*%
X253881068Y-81088550D03*
X253202246Y-80409728D03*
%TD*%
D11*
%TO.C,D30*%
X99825000Y-52387500D03*
X97025000Y-52387500D03*
%TD*%
%TO.C,D11*%
X214125000Y-46037500D03*
X211325000Y-46037500D03*
%TD*%
D49*
%TO.C,C14*%
X251960062Y-89651671D03*
X251281240Y-90330493D03*
%TD*%
D11*
%TO.C,D5*%
X99825000Y-46037500D03*
X97025000Y-46037500D03*
%TD*%
D22*
%TO.C,LED6*%
X251662500Y-24950000D03*
X253162500Y-24950000D03*
X251662500Y-19500000D03*
D23*
X253162500Y-19500000D03*
%TD*%
D11*
%TO.C,D32*%
X137925000Y-52387500D03*
X135125000Y-52387500D03*
%TD*%
%TO.C,D27*%
X40106250Y-52387500D03*
X37306250Y-52387500D03*
%TD*%
D36*
%TO.C,C5*%
X265227189Y-80210209D03*
X265906011Y-79531387D03*
%TD*%
D22*
%TO.C,LED8*%
X257218750Y-44000000D03*
X258718750Y-44000000D03*
X257218750Y-38550000D03*
D23*
X258718750Y-38550000D03*
%TD*%
D50*
%TO.C,R9*%
X270775768Y-84915880D03*
X271497016Y-84194632D03*
%TD*%
D51*
%TO.C,SW1*%
X271943750Y-92893750D03*
X271943750Y-99193750D03*
X275743750Y-92893750D03*
X275743750Y-99193750D03*
%TD*%
D25*
%TO.C,R10*%
X21205000Y-82943750D03*
X21205000Y-83963750D03*
%TD*%
D11*
%TO.C,D19*%
X118875000Y-49212500D03*
X116075000Y-49212500D03*
%TD*%
M02*
