%TF.GenerationSoftware,KiCad,Pcbnew,8.0.9*%
%TF.CreationDate,2025-11-23T23:32:43+01:00*%
%TF.ProjectId,eurovISOn REV,6575726f-7649-4534-9f6e-205245562e6b,rev?*%
%TF.SameCoordinates,Original*%
%TF.FileFunction,Profile,NP*%
%FSLAX46Y46*%
G04 Gerber Fmt 4.6, Leading zero omitted, Abs format (unit mm)*
G04 Created by KiCad (PCBNEW 8.0.9) date 2025-11-23 23:32:43*
%MOMM*%
%LPD*%
G01*
G04 APERTURE LIST*
%TA.AperFunction,Profile*%
%ADD10C,0.050000*%
%TD*%
%TA.AperFunction,Profile*%
%ADD11C,0.100000*%
%TD*%
G04 APERTURE END LIST*
D10*
X207962500Y-103187500D02*
X277018750Y-103187500D01*
X203993750Y-22225000D02*
G75*
G02*
X206375000Y-24606250I-50J-2381300D01*
G01*
X153977650Y-24606250D02*
G75*
G02*
X156358900Y-22225050I2381250J-50D01*
G01*
X29368750Y-19843750D02*
X15081250Y-19843750D01*
X95250000Y-24606250D02*
X95250000Y-27781250D01*
X279400000Y-100806250D02*
X279400000Y-19843750D01*
X37306250Y-84137500D02*
X35718750Y-84137500D01*
X196056250Y-100806250D02*
G75*
G02*
X193675000Y-103187450I-2381250J50D01*
G01*
X156368750Y-100806250D02*
G75*
G02*
X153987500Y-103187450I-2381250J50D01*
G01*
X153977650Y-24604850D02*
X153977650Y-27779850D01*
X249237500Y-19843750D02*
G75*
G02*
X246856250Y-22225000I-2381300J50D01*
G01*
X76993750Y-95250000D02*
G75*
G02*
X79375000Y-92868750I2381250J0D01*
G01*
X134133900Y-19845300D02*
G75*
G02*
X131754200Y-22225000I-2379700J0D01*
G01*
X34925000Y-100806250D02*
X34925000Y-84931250D01*
X153977650Y-27779850D02*
G75*
G02*
X153183900Y-28573650I-793850J50D01*
G01*
X95250000Y-24606250D02*
G75*
G02*
X97631250Y-22225000I2381300J-50D01*
G01*
X92868750Y-28575000D02*
X94456250Y-28575000D01*
X32543750Y-103187500D02*
X15081250Y-103187500D01*
X76993750Y-100806250D02*
G75*
G02*
X74612500Y-103187500I-2381250J0D01*
G01*
X203200000Y-92868750D02*
G75*
G02*
X205581250Y-95250000I0J-2381250D01*
G01*
X196056250Y-95250000D02*
X196056250Y-100806250D01*
X79375000Y-92868750D02*
X84137500Y-92868750D01*
X143659700Y-17464200D02*
G75*
G02*
X146039400Y-19843900I0J-2379700D01*
G01*
X205581250Y-95250000D02*
X205581250Y-100806250D01*
X34925000Y-84931250D02*
G75*
G02*
X35718750Y-84137500I793800J-50D01*
G01*
X207962500Y-103187500D02*
G75*
G02*
X205581200Y-100806250I0J2381300D01*
G01*
X131754200Y-22225000D02*
X97631250Y-22225000D01*
X15081250Y-103187500D02*
G75*
G02*
X12700000Y-100806250I0J2381250D01*
G01*
X34925000Y-100806250D02*
G75*
G02*
X32543750Y-103187500I-2381250J0D01*
G01*
X100806250Y-100806250D02*
G75*
G02*
X98425000Y-103187450I-2381250J50D01*
G01*
X128587500Y-103187500D02*
X153987500Y-103187500D01*
X126206250Y-100806250D02*
X100806250Y-100806250D01*
X92868750Y-28575000D02*
G75*
G02*
X92075000Y-27781250I50J793800D01*
G01*
X37306250Y-84137500D02*
G75*
G02*
X38100000Y-84931250I-50J-793800D01*
G01*
X88900000Y-103187500D02*
G75*
G02*
X86518700Y-100806250I0J2381300D01*
G01*
X183356250Y-103187500D02*
G75*
G02*
X180975000Y-100806250I50J2381300D01*
G01*
X277018750Y-17462500D02*
X251618750Y-17462500D01*
X207168750Y-28575000D02*
G75*
G02*
X206375000Y-27781250I50J793800D01*
G01*
X40481250Y-103187500D02*
G75*
G02*
X38100000Y-100806250I50J2381300D01*
G01*
X196056250Y-95250000D02*
G75*
G02*
X198437500Y-92868750I2381250J0D01*
G01*
X148421400Y-22223600D02*
G75*
G02*
X150802600Y-24604850I-100J-2381300D01*
G01*
X206375000Y-24606250D02*
X206375000Y-27781250D01*
X151596400Y-28573600D02*
G75*
G02*
X150802700Y-27779850I100J793800D01*
G01*
X203993750Y-22225000D02*
X156358900Y-22225000D01*
X249237500Y-19843750D02*
G75*
G02*
X251618750Y-17462500I2381300J-50D01*
G01*
X207168750Y-28575000D02*
X208756250Y-28575000D01*
X12700000Y-22225000D02*
G75*
G02*
X15081250Y-19843750I2381250J0D01*
G01*
X209550000Y-27781250D02*
G75*
G02*
X208756250Y-28575000I-793800J50D01*
G01*
X183356250Y-103187500D02*
X193675000Y-103187500D01*
X128587500Y-103187500D02*
G75*
G02*
X126206200Y-100806250I0J2381300D01*
G01*
X92075000Y-24606250D02*
X92075000Y-27781250D01*
X246856250Y-22225000D02*
X211931250Y-22225000D01*
X74612500Y-103187500D02*
X40481250Y-103187500D01*
X180975000Y-100806250D02*
X156368750Y-100806250D01*
X86518750Y-95250000D02*
X86518750Y-100806250D01*
X277018750Y-17462500D02*
G75*
G02*
X279400000Y-19843750I-50J-2381300D01*
G01*
X84137500Y-92868750D02*
G75*
G02*
X86518750Y-95250000I0J-2381250D01*
G01*
X12700000Y-100806250D02*
X12700000Y-22225000D01*
X89693750Y-22225000D02*
X31750000Y-22225000D01*
X209550000Y-24606250D02*
X209550000Y-27781250D01*
X89693750Y-22225000D02*
G75*
G02*
X92075000Y-24606250I-50J-2381300D01*
G01*
X76993750Y-95250000D02*
X76993750Y-100806250D01*
X279400000Y-100806250D02*
G75*
G02*
X277018750Y-103187500I-2381300J50D01*
G01*
X98425000Y-103187500D02*
X88900000Y-103187500D01*
X29368750Y-19843750D02*
G75*
G02*
X31750000Y-22225000I0J-2381250D01*
G01*
X38100000Y-100806250D02*
X38100000Y-84931250D01*
X209550000Y-24606250D02*
G75*
G02*
X211931250Y-22225000I2381300J-50D01*
G01*
X136513600Y-17464200D02*
X143659700Y-17464200D01*
X151596400Y-28573600D02*
X153183900Y-28573600D01*
X150802650Y-24604850D02*
X150802650Y-27779850D01*
X95250000Y-27781250D02*
G75*
G02*
X94456250Y-28575000I-793800J50D01*
G01*
X198437500Y-92868750D02*
X203200000Y-92868750D01*
X134133900Y-19843900D02*
G75*
G02*
X136513600Y-17464200I2379700J0D01*
G01*
X148421400Y-22223600D02*
G75*
G02*
X146038900Y-19841100I0J2382500D01*
G01*
D11*
%TO.C,LED2*%
X275518751Y-40480548D02*
X275518751Y-42069452D01*
X276315909Y-42974999D02*
X277721593Y-42974999D01*
X277721593Y-39575001D02*
X276315909Y-39575001D01*
X278518750Y-42069453D02*
X278518750Y-40480548D01*
X275450452Y-40228290D02*
G75*
G02*
X275518750Y-40480548I-431712J-252260D01*
G01*
X275450454Y-40228289D02*
G75*
G02*
X276099029Y-39525520I431696J252259D01*
G01*
X275518751Y-42069452D02*
G75*
G02*
X275450452Y-42321711I-500009J2D01*
G01*
X276099031Y-43024484D02*
G75*
G02*
X276315909Y-42974999I216876J-450505D01*
G01*
X276099032Y-43024484D02*
G75*
G02*
X275450452Y-42321711I-216880J450514D01*
G01*
X276315908Y-39575001D02*
G75*
G02*
X276099031Y-39525516I82J500351D01*
G01*
X277721594Y-42974999D02*
G75*
G02*
X277938471Y-43024484I1J-499990D01*
G01*
X277938471Y-39525516D02*
G75*
G02*
X277721593Y-39574990I-216921J450816D01*
G01*
X277938471Y-39525516D02*
G75*
G02*
X278587050Y-40228289I216879J-450514D01*
G01*
X278518751Y-40480547D02*
G75*
G02*
X278587050Y-40228289I500009J-3D01*
G01*
X278587049Y-42321711D02*
G75*
G02*
X277938471Y-43024485I-431700J-252259D01*
G01*
X278587049Y-42321711D02*
G75*
G02*
X278518750Y-42069453I431710J252261D01*
G01*
%TO.C,LED1*%
X272143751Y-52478409D02*
X272143751Y-53884093D01*
X273049297Y-54681250D02*
X274638202Y-54681250D01*
X274638202Y-51681251D02*
X273049298Y-51681251D01*
X275543749Y-53884093D02*
X275543749Y-52478409D01*
X272094266Y-52261531D02*
G75*
G02*
X272143751Y-52478409I-450505J-216876D01*
G01*
X272094266Y-52261532D02*
G75*
G02*
X272797039Y-51612952I450514J216880D01*
G01*
X272143751Y-53884094D02*
G75*
G02*
X272094266Y-54100971I-499990J-1D01*
G01*
X272797039Y-54749549D02*
G75*
G02*
X272094265Y-54100971I-252259J431700D01*
G01*
X272797039Y-54749549D02*
G75*
G02*
X273049297Y-54681250I252261J-431710D01*
G01*
X273049298Y-51681251D02*
G75*
G02*
X272797039Y-51612952I2J500009D01*
G01*
X274638203Y-54681251D02*
G75*
G02*
X274890461Y-54749550I-3J-500009D01*
G01*
X274890460Y-51612952D02*
G75*
G02*
X274638202Y-51681250I-252260J431712D01*
G01*
X274890461Y-51612954D02*
G75*
G02*
X275593230Y-52261529I252259J-431696D01*
G01*
X275543749Y-52478408D02*
G75*
G02*
X275593234Y-52261531I500351J-82D01*
G01*
X275593234Y-54100971D02*
G75*
G02*
X274890461Y-54749550I-450514J-216879D01*
G01*
X275593234Y-54100971D02*
G75*
G02*
X275543760Y-53884093I450816J216921D01*
G01*
%TO.C,LED7*%
X250912500Y-30955547D02*
X250912500Y-32544452D01*
X251709657Y-33449999D02*
X253115341Y-33449999D01*
X253115341Y-30050001D02*
X251709657Y-30050001D01*
X253912499Y-32544452D02*
X253912499Y-30955548D01*
X250844201Y-30703289D02*
G75*
G02*
X250912500Y-30955547I-431710J-252261D01*
G01*
X250844201Y-30703289D02*
G75*
G02*
X251492779Y-30000515I431700J252259D01*
G01*
X250912499Y-32544453D02*
G75*
G02*
X250844200Y-32796711I-500009J3D01*
G01*
X251492779Y-33499484D02*
G75*
G02*
X250844200Y-32796711I-216879J450514D01*
G01*
X251492779Y-33499484D02*
G75*
G02*
X251709657Y-33450010I216921J-450816D01*
G01*
X251709656Y-30050001D02*
G75*
G02*
X251492779Y-30000516I-1J499990D01*
G01*
X253115342Y-33449999D02*
G75*
G02*
X253332219Y-33499484I-82J-500351D01*
G01*
X253332218Y-30000516D02*
G75*
G02*
X253980798Y-30703289I216880J-450514D01*
G01*
X253332219Y-30000516D02*
G75*
G02*
X253115341Y-30050001I-216876J450505D01*
G01*
X253912499Y-30955548D02*
G75*
G02*
X253980798Y-30703289I500009J-2D01*
G01*
X253980796Y-32796711D02*
G75*
G02*
X253332221Y-33499480I-431696J-252259D01*
G01*
X253980798Y-32796710D02*
G75*
G02*
X253912500Y-32544452I431712J252260D01*
G01*
%TO.C,LED3*%
X275518751Y-30955548D02*
X275518751Y-32544452D01*
X276315909Y-33449999D02*
X277721593Y-33449999D01*
X277721593Y-30050001D02*
X276315909Y-30050001D01*
X278518750Y-32544453D02*
X278518750Y-30955548D01*
X275450452Y-30703290D02*
G75*
G02*
X275518750Y-30955548I-431712J-252260D01*
G01*
X275450454Y-30703289D02*
G75*
G02*
X276099029Y-30000520I431696J252259D01*
G01*
X275518751Y-32544452D02*
G75*
G02*
X275450452Y-32796711I-500009J2D01*
G01*
X276099031Y-33499484D02*
G75*
G02*
X276315909Y-33449999I216876J-450505D01*
G01*
X276099032Y-33499484D02*
G75*
G02*
X275450452Y-32796711I-216880J450514D01*
G01*
X276315908Y-30050001D02*
G75*
G02*
X276099031Y-30000516I82J500351D01*
G01*
X277721594Y-33449999D02*
G75*
G02*
X277938471Y-33499484I1J-499990D01*
G01*
X277938471Y-30000516D02*
G75*
G02*
X277721593Y-30049990I-216921J450816D01*
G01*
X277938471Y-30000516D02*
G75*
G02*
X278587050Y-30703289I216879J-450514D01*
G01*
X278518751Y-30955547D02*
G75*
G02*
X278587050Y-30703289I500009J-3D01*
G01*
X278587049Y-32796711D02*
G75*
G02*
X277938471Y-33499485I-431700J-252259D01*
G01*
X278587049Y-32796711D02*
G75*
G02*
X278518750Y-32544453I431710J252261D01*
G01*
%TO.C,LED9*%
X259443751Y-52478409D02*
X259443751Y-53884093D01*
X260349297Y-54681250D02*
X261938202Y-54681250D01*
X261938202Y-51681251D02*
X260349298Y-51681251D01*
X262843749Y-53884093D02*
X262843749Y-52478409D01*
X259394266Y-52261531D02*
G75*
G02*
X259443751Y-52478409I-450505J-216876D01*
G01*
X259394266Y-52261532D02*
G75*
G02*
X260097039Y-51612952I450514J216880D01*
G01*
X259443751Y-53884094D02*
G75*
G02*
X259394266Y-54100971I-499990J-1D01*
G01*
X260097039Y-54749549D02*
G75*
G02*
X259394265Y-54100971I-252259J431700D01*
G01*
X260097039Y-54749549D02*
G75*
G02*
X260349297Y-54681250I252261J-431710D01*
G01*
X260349298Y-51681251D02*
G75*
G02*
X260097039Y-51612952I2J500009D01*
G01*
X261938203Y-54681251D02*
G75*
G02*
X262190461Y-54749550I-3J-500009D01*
G01*
X262190460Y-51612952D02*
G75*
G02*
X261938202Y-51681250I-252260J431712D01*
G01*
X262190461Y-51612954D02*
G75*
G02*
X262893230Y-52261529I252259J-431696D01*
G01*
X262843749Y-52478408D02*
G75*
G02*
X262893234Y-52261531I500351J-82D01*
G01*
X262893234Y-54100971D02*
G75*
G02*
X262190461Y-54749550I-450514J-216879D01*
G01*
X262893234Y-54100971D02*
G75*
G02*
X262843760Y-53884093I450816J216921D01*
G01*
%TO.C,LED10*%
X265793751Y-40897157D02*
X265793751Y-42302841D01*
X266699298Y-43099999D02*
X268288202Y-43099999D01*
X268288203Y-40100000D02*
X266699298Y-40100000D01*
X269193749Y-42302841D02*
X269193749Y-40897157D01*
X265744266Y-40680279D02*
G75*
G02*
X265793740Y-40897157I-450816J-216921D01*
G01*
X265744266Y-40680279D02*
G75*
G02*
X266447039Y-40031700I450514J216879D01*
G01*
X265793751Y-42302842D02*
G75*
G02*
X265744266Y-42519719I-500351J82D01*
G01*
X266447039Y-43168296D02*
G75*
G02*
X265744270Y-42519721I-252259J431696D01*
G01*
X266447040Y-43168298D02*
G75*
G02*
X266699298Y-43100000I252260J-431712D01*
G01*
X266699297Y-40099999D02*
G75*
G02*
X266447039Y-40031700I3J500009D01*
G01*
X268288202Y-43099999D02*
G75*
G02*
X268540461Y-43168298I-2J-500009D01*
G01*
X268540461Y-40031701D02*
G75*
G02*
X268288203Y-40100000I-252261J431710D01*
G01*
X268540461Y-40031701D02*
G75*
G02*
X269243234Y-40680279I252258J-431701D01*
G01*
X269193749Y-40897156D02*
G75*
G02*
X269243234Y-40680279I499990J1D01*
G01*
X269243234Y-42519718D02*
G75*
G02*
X268540461Y-43168298I-450514J-216880D01*
G01*
X269243234Y-42519719D02*
G75*
G02*
X269193749Y-42302841I450505J216876D01*
G01*
%TO.C,LED5*%
X259443751Y-19140907D02*
X259443751Y-20546591D01*
X260349298Y-21343749D02*
X261938202Y-21343749D01*
X261938203Y-18343750D02*
X260349298Y-18343750D01*
X262843749Y-20546591D02*
X262843749Y-19140907D01*
X259394266Y-18924029D02*
G75*
G02*
X259443740Y-19140907I-450816J-216921D01*
G01*
X259394266Y-18924029D02*
G75*
G02*
X260097039Y-18275450I450514J216879D01*
G01*
X259443751Y-20546592D02*
G75*
G02*
X259394266Y-20763469I-500351J82D01*
G01*
X260097039Y-21412046D02*
G75*
G02*
X259394270Y-20763471I-252259J431696D01*
G01*
X260097040Y-21412048D02*
G75*
G02*
X260349298Y-21343750I252260J-431712D01*
G01*
X260349297Y-18343749D02*
G75*
G02*
X260097039Y-18275450I3J500009D01*
G01*
X261938202Y-21343749D02*
G75*
G02*
X262190461Y-21412048I-2J-500009D01*
G01*
X262190461Y-18275451D02*
G75*
G02*
X261938203Y-18343750I-252261J431710D01*
G01*
X262190461Y-18275451D02*
G75*
G02*
X262893235Y-18924029I252259J-431700D01*
G01*
X262843749Y-19140906D02*
G75*
G02*
X262893234Y-18924029I499990J1D01*
G01*
X262893234Y-20763468D02*
G75*
G02*
X262190461Y-21412048I-450514J-216880D01*
G01*
X262893234Y-20763469D02*
G75*
G02*
X262843749Y-20546591I450505J216876D01*
G01*
%TO.C,LED4*%
X272143751Y-19140907D02*
X272143751Y-20546591D01*
X273049298Y-21343749D02*
X274638202Y-21343749D01*
X274638203Y-18343750D02*
X273049298Y-18343750D01*
X275543749Y-20546591D02*
X275543749Y-19140907D01*
X272094266Y-18924029D02*
G75*
G02*
X272143740Y-19140907I-450816J-216921D01*
G01*
X272094266Y-18924029D02*
G75*
G02*
X272797039Y-18275450I450514J216879D01*
G01*
X272143751Y-20546592D02*
G75*
G02*
X272094266Y-20763469I-500351J82D01*
G01*
X272797039Y-21412046D02*
G75*
G02*
X272094270Y-20763471I-252259J431696D01*
G01*
X272797040Y-21412048D02*
G75*
G02*
X273049298Y-21343750I252260J-431712D01*
G01*
X273049297Y-18343749D02*
G75*
G02*
X272797039Y-18275450I3J500009D01*
G01*
X274638202Y-21343749D02*
G75*
G02*
X274890461Y-21412048I-2J-500009D01*
G01*
X274890461Y-18275451D02*
G75*
G02*
X274638203Y-18343750I-252261J431710D01*
G01*
X274890461Y-18275451D02*
G75*
G02*
X275593235Y-18924029I252259J-431700D01*
G01*
X275543749Y-19140906D02*
G75*
G02*
X275593234Y-18924029I499990J1D01*
G01*
X275593234Y-20763468D02*
G75*
G02*
X274890461Y-21412048I-450514J-216880D01*
G01*
X275593234Y-20763469D02*
G75*
G02*
X275543749Y-20546591I450505J216876D01*
G01*
%TO.C,LED6*%
X250912500Y-21430547D02*
X250912500Y-23019452D01*
X251709657Y-23924999D02*
X253115341Y-23924999D01*
X253115341Y-20525001D02*
X251709657Y-20525001D01*
X253912499Y-23019452D02*
X253912499Y-21430548D01*
X250844201Y-21178289D02*
G75*
G02*
X250912500Y-21430547I-431710J-252261D01*
G01*
X250844201Y-21178289D02*
G75*
G02*
X251492779Y-20475515I431700J252259D01*
G01*
X250912499Y-23019453D02*
G75*
G02*
X250844200Y-23271711I-500009J3D01*
G01*
X251492779Y-23974484D02*
G75*
G02*
X250844200Y-23271711I-216879J450514D01*
G01*
X251492779Y-23974484D02*
G75*
G02*
X251709657Y-23925010I216921J-450816D01*
G01*
X251709656Y-20525001D02*
G75*
G02*
X251492779Y-20475516I-1J499990D01*
G01*
X253115342Y-23924999D02*
G75*
G02*
X253332219Y-23974484I-82J-500351D01*
G01*
X253332218Y-20475516D02*
G75*
G02*
X253980798Y-21178289I216880J-450514D01*
G01*
X253332219Y-20475516D02*
G75*
G02*
X253115341Y-20525001I-216876J450505D01*
G01*
X253912499Y-21430548D02*
G75*
G02*
X253980798Y-21178289I500009J-2D01*
G01*
X253980796Y-23271711D02*
G75*
G02*
X253332221Y-23974480I-431696J-252259D01*
G01*
X253980798Y-23271710D02*
G75*
G02*
X253912500Y-23019452I431712J252260D01*
G01*
%TO.C,LED8*%
X256468750Y-40480547D02*
X256468750Y-42069452D01*
X257265907Y-42974999D02*
X258671591Y-42974999D01*
X258671591Y-39575001D02*
X257265907Y-39575001D01*
X259468749Y-42069452D02*
X259468749Y-40480548D01*
X256400451Y-40228289D02*
G75*
G02*
X256468750Y-40480547I-431710J-252261D01*
G01*
X256400451Y-40228289D02*
G75*
G02*
X257049029Y-39525515I431700J252259D01*
G01*
X256468749Y-42069453D02*
G75*
G02*
X256400450Y-42321711I-500009J3D01*
G01*
X257049029Y-43024484D02*
G75*
G02*
X256400450Y-42321711I-216879J450514D01*
G01*
X257049029Y-43024484D02*
G75*
G02*
X257265907Y-42975010I216921J-450816D01*
G01*
X257265906Y-39575001D02*
G75*
G02*
X257049029Y-39525516I-1J499990D01*
G01*
X258671592Y-42974999D02*
G75*
G02*
X258888469Y-43024484I-82J-500351D01*
G01*
X258888468Y-39525516D02*
G75*
G02*
X259537048Y-40228289I216880J-450514D01*
G01*
X258888469Y-39525516D02*
G75*
G02*
X258671591Y-39575001I-216876J450505D01*
G01*
X259468749Y-40480548D02*
G75*
G02*
X259537048Y-40228289I500009J-2D01*
G01*
X259537046Y-42321711D02*
G75*
G02*
X258888471Y-43024480I-431696J-252259D01*
G01*
X259537048Y-42321710D02*
G75*
G02*
X259468750Y-42069452I431712J252260D01*
G01*
%TD*%
M02*
