M48
; DRILL file {KiCad 8.0.9} date 2025-11-23T23:32:48+0100
; FORMAT={-:-/ absolute / inch / decimal}
; #@! TF.CreationDate,2025-11-23T23:32:48+01:00
; #@! TF.GenerationSoftware,Kicad,Pcbnew,8.0.9
; #@! TF.FileFunction,Plated,1,2,PTH
FMAT,2
INCH
; #@! TA.AperFunction,Plated,PTH,ViaDrill
T1C0.0118
; #@! TA.AperFunction,Plated,PTH,ComponentDrill
T2C0.0138
; #@! TA.AperFunction,Plated,PTH,ComponentDrill
T3C0.0236
; #@! TA.AperFunction,Plated,PTH,ComponentDrill
T4C0.0320
; #@! TA.AperFunction,Plated,PTH,ComponentDrill
T5C0.0394
; #@! TA.AperFunction,Plated,PTH,ComponentDrill
T6C0.0591
; #@! TA.AperFunction,Plated,PTH,ComponentDrill
T7C0.0600
; #@! TA.AperFunction,Plated,PTH,ComponentDrill
T8C0.1200
%
G90
G05
T1
X0.6724Y-3.2637
X0.6875Y-0.9688
X0.6875Y-3.0938
X0.8125Y-3.2655
X0.875Y-1.625
X0.875Y-2.375
X0.875Y-3.125
X1.1398Y-3.1058
X1.3125Y-2.0625
X1.5312Y-2.1875
X2.3438Y-2.1875
X3.125Y-2.1875
X3.875Y-2.1875
X4.625Y-2.0625
X5.1131Y-1.3828
X5.1247Y-1.2812
X5.1868Y-0.9065
X5.2214Y-1.3845
X5.2548Y-1.3845
X5.2809Y-1.2812
X5.375Y-2.1875
X5.4372Y-0.9999
X5.5934Y-0.9999
X5.8434Y-0.9064
X6.125Y-2.0625
X6.875Y-2.1875
X7.625Y-2.1875
X8.375Y-2.1875
X9.125Y-2.0625
X9.3119Y-1.5457
X9.3119Y-1.5791
X9.3119Y-1.6249
X9.3438Y-1.4375
X9.3438Y-1.6875
X9.5Y-1.5
X9.6501Y-2.8438
X9.6501Y-2.8752
X9.6501Y-2.9067
X9.6501Y-2.9382
X9.6501Y-2.9697
X9.6501Y-3.0012
X9.6501Y-3.0327
X9.6501Y-3.0642
X9.6501Y-3.0957
X9.6501Y-3.1272
X9.6501Y-3.1587
X9.6501Y-3.1902
X9.6501Y-3.2217
X9.6501Y-3.2532
X9.6501Y-3.2847
X9.6501Y-3.3162
X9.7126Y-3.4688
X9.8063Y-3.3162
X9.8374Y-3.5538
X9.869Y-3.5814
X9.9062Y-0.719
X9.9062Y-1.0312
X9.9062Y-1.0938
X9.9062Y-1.4062
X9.9199Y-3.4451
X9.9456Y-3.1418
X9.9682Y-3.4013
X9.9682Y-3.5202
X9.9688Y-0.719
X9.9688Y-1.0312
X9.9688Y-1.0938
X9.9688Y-1.4062
X10.0018Y-3.4965
X10.0312Y-1.0312
X10.0625Y-1.4062
X10.0758Y-0.8125
X10.0778Y-3.5441
X10.0883Y-3.0515
X10.1218Y-3.024
X10.125Y-0.75
X10.125Y-0.875
X10.125Y-1.4688
X10.125Y-1.7812
X10.125Y-2.0625
X10.125Y-2.125
X10.1416Y-3.3835
X10.1425Y-3.7174
X10.1801Y-3.7178
X10.1875Y-1.4688
X10.1875Y-1.7812
X10.1875Y-2.65
X10.2126Y-3.7188
X10.219Y-2.9817
X10.2206Y-3.144
X10.2441Y-3.7188
X10.2455Y-3.2383
X10.2469Y-2.8239
X10.25Y-1.5938
X10.25Y-1.7812
X10.2553Y-2.9836
X10.2756Y-3.7188
X10.2922Y-2.9273
X10.2925Y-2.8888
X10.3003Y-2.6875
X10.3003Y-2.75
X10.3071Y-3.7188
X10.3125Y-2.9696
X10.3386Y-3.7188
X10.3593Y-2.9688
X10.3701Y-3.7188
X10.375Y-1.5938
X10.375Y-2.65
X10.3768Y-3.1634
X10.4006Y-3.6566
X10.4064Y-3.174
X10.4313Y-3.7188
X10.4375Y-0.75
X10.4375Y-0.8125
X10.4375Y-2.0625
X10.4375Y-2.125
X10.4628Y-3.7188
X10.4639Y-3.0778
X10.4707Y-3.174
X10.4943Y-3.7188
X10.4945Y-3.1092
X10.5077Y-3.4448
X10.5258Y-3.7188
X10.5312Y-2.3438
X10.5563Y-3.125
X10.5573Y-3.7188
X10.5888Y-3.7188
X10.6188Y-3.25
X10.625Y-0.75
X10.625Y-0.8125
X10.625Y-0.875
X10.625Y-3.125
X10.6695Y-3.7822
X10.6875Y-1.5938
X10.6875Y-1.6875
X10.6875Y-2.0
X10.7384Y-2.3139
X10.7812Y-1.0938
X10.8246Y-1.4688
X10.875Y-1.0938
X10.875Y-1.4062
X10.875Y-1.4688
X10.875Y-1.7812
X10.8823Y-2.2946
X10.8883Y-0.8522
X10.9375Y-0.75
X10.9375Y-1.0938
X10.9375Y-1.4062
X10.9375Y-1.4688
X10.9375Y-1.7812
X10.9375Y-2.0625
X10.9375Y-2.125
X10.9685Y-2.2951
T2
X10.1478Y-3.3438
X10.1833Y-3.3083
X10.1833Y-3.3792
X10.2188Y-3.2728
X10.2188Y-3.3438
X10.2188Y-3.4147
X10.2542Y-3.3083
X10.2542Y-3.3792
X10.2897Y-3.3438
T4
X0.725Y-0.9062
X0.725Y-3.125
X0.825Y-0.9062
X0.825Y-3.125
X0.925Y-0.9062
X0.925Y-3.125
X1.025Y-0.9062
X1.025Y-3.125
T5
X0.7766Y-0.9744
X0.7766Y-1.5453
X0.7766Y-1.7244
X0.7766Y-2.2953
X0.7766Y-2.4744
X0.7766Y-3.0453
X0.875Y-1.5453
X0.875Y-2.2953
X0.875Y-3.0453
X0.9734Y-0.9744
X0.9734Y-1.5453
X0.9734Y-1.7244
X0.9734Y-2.2953
X0.9734Y-2.4744
X0.9734Y-3.0453
X10.5266Y-2.4744
X10.5266Y-3.0453
X10.625Y-3.0453
X10.7234Y-2.4744
X10.7234Y-3.0453
X10.732Y-3.7822
X10.832Y-3.7822
T7
X0.725Y-1.15
X0.725Y-1.9
X0.725Y-2.65
X0.975Y-1.05
X0.975Y-1.8
X0.975Y-2.55
X1.6625Y-1.15
X1.6625Y-3.5875
X1.7562Y-1.9
X1.7562Y-3.5875
X1.9125Y-1.05
X1.9125Y-3.4875
X1.9437Y-2.65
X2.0063Y-1.8
X2.0063Y-3.4875
X2.1938Y-2.55
X2.4125Y-1.15
X2.5063Y-3.5875
X2.6Y-1.9
X2.6Y-3.5875
X2.6625Y-1.05
X2.7563Y-3.4875
X2.85Y-1.8
X2.85Y-3.4875
X2.975Y-2.65
X3.1625Y-1.15
X3.225Y-2.55
X3.35Y-1.9
X3.4125Y-1.05
X3.6Y-1.8
X3.6313Y-3.5875
X3.725Y-2.65
X3.8813Y-3.4875
X3.9125Y-1.15
X3.975Y-2.55
X4.1Y-1.9
X4.1625Y-1.05
X4.2875Y-3.5875
X4.35Y-1.8
X4.475Y-2.65
X4.5375Y-3.4875
X4.6625Y-1.15
X4.725Y-2.55
X4.7562Y-3.5875
X4.85Y-1.9
X4.9125Y-1.05
X5.0062Y-3.4875
X5.1Y-1.8
X5.225Y-2.65
X5.4125Y-1.15
X5.4125Y-3.5875
X5.475Y-2.55
X5.6Y-1.9
X5.6625Y-1.05
X5.6625Y-3.4875
X5.85Y-1.8
X5.975Y-2.65
X6.0687Y-3.5875
X6.1625Y-1.15
X6.225Y-2.55
X6.3187Y-3.4875
X6.35Y-1.9
X6.4125Y-1.05
X6.5375Y-3.5875
X6.6Y-1.8
X6.725Y-2.65
X6.7875Y-3.4875
X6.9125Y-1.15
X6.975Y-2.55
X7.1Y-1.9
X7.1625Y-1.05
X7.1937Y-3.5875
X7.35Y-1.8
X7.4437Y-3.4875
X7.475Y-2.65
X7.6625Y-1.15
X7.725Y-2.55
X7.85Y-1.9
X7.9125Y-1.05
X8.1Y-1.8
X8.225Y-2.65
X8.225Y-3.5875
X8.3187Y-3.5875
X8.4125Y-1.15
X8.475Y-2.55
X8.475Y-3.4875
X8.5687Y-3.4875
X8.6Y-1.9
X8.6625Y-1.05
X8.85Y-1.8
X8.975Y-2.65
X9.0687Y-3.5875
X9.1625Y-1.15
X9.1625Y-3.5875
X9.225Y-2.55
X9.3187Y-3.4875
X9.35Y-1.9
X9.4125Y-1.05
X9.4125Y-3.4875
X9.6Y-1.8
X9.725Y-2.65
X9.975Y-2.55
X10.3812Y-1.3375
X10.475Y-2.65
X10.6312Y-1.2375
X10.725Y-2.55
T8
X3.6875Y-3.9625
X3.6875Y-3.9625
X5.1875Y-3.9625
X5.9375Y-3.9625
X7.4375Y-3.9625
X7.4375Y-3.9625
X10.8063Y-0.9688
X10.8063Y-1.9062
T3
G00X5.3451Y-0.7162
M15
G01X5.3451Y-0.7399
M16
G05
G00X5.3451Y-0.871
M15
G01X5.3451Y-0.9143
M16
G05
G00X5.6853Y-0.7162
M15
G01X5.6853Y-0.7399
M16
G05
G00X5.6853Y-0.871
M15
G01X5.6853Y-0.9143
M16
G05
T6
G00X0.6545Y-1.2756
M15
G01X0.6545Y-1.2244
M16
G05
G00X0.6545Y-2.0256
M15
G01X0.6545Y-1.9744
M16
G05
G00X0.6545Y-2.7756
M15
G01X0.6545Y-2.7244
M16
G05
G00X1.0955Y-1.2756
M15
G01X1.0955Y-1.2244
M16
G05
G00X1.0955Y-2.0256
M15
G01X1.0955Y-1.9744
M16
G05
G00X1.0955Y-2.7756
M15
G01X1.0955Y-2.7244
M16
G05
G00X10.4045Y-2.7756
M15
G01X10.4045Y-2.7244
M16
G05
G00X10.8455Y-2.7756
M15
G01X10.8455Y-2.7244
M16
G05
M30
