%TF.GenerationSoftware,KiCad,Pcbnew,8.0.9*%
%TF.CreationDate,2025-11-23T23:32:43+01:00*%
%TF.ProjectId,eurovISOn REV,6575726f-7649-4534-9f6e-205245562e6b,rev?*%
%TF.SameCoordinates,Original*%
%TF.FileFunction,Legend,Top*%
%TF.FilePolarity,Positive*%
%FSLAX46Y46*%
G04 Gerber Fmt 4.6, Leading zero omitted, Abs format (unit mm)*
G04 Created by KiCad (PCBNEW 8.0.9) date 2025-11-23 23:32:43*
%MOMM*%
%LPD*%
G01*
G04 APERTURE LIST*
%ADD10C,0.500000*%
%ADD11C,0.150000*%
%ADD12C,0.000000*%
%ADD13C,0.120000*%
%ADD14C,1.397000*%
G04 APERTURE END LIST*
D10*
X278909960Y-53181248D02*
X278909958Y-20637500D01*
X276528708Y-18256250D02*
X252316210Y-18256250D01*
X249934960Y-20637500D02*
G75*
G02*
X252316210Y-18256260I2381240J0D01*
G01*
X252316208Y-36512500D02*
X253109960Y-36512500D01*
X276528708Y-18256250D02*
G75*
G02*
X278909950Y-20637500I-8J-2381250D01*
G01*
X252316208Y-36512500D02*
G75*
G02*
X249934900Y-34131250I92J2381400D01*
G01*
X257872458Y-55562500D02*
X276528710Y-55562498D01*
X278909960Y-53181248D02*
G75*
G02*
X276528710Y-55562560I-2381360J48D01*
G01*
X249934960Y-20637500D02*
X249934958Y-34131250D01*
X253109960Y-36512500D02*
G75*
G02*
X255491200Y-38893750I-60J-2381300D01*
G01*
X257872458Y-55562500D02*
G75*
G02*
X255491200Y-53181250I42J2381300D01*
G01*
X255491208Y-38893750D02*
X255491208Y-53181250D01*
D11*
X27813095Y-76496188D02*
X27717857Y-76448569D01*
X27717857Y-76448569D02*
X27575000Y-76448569D01*
X27575000Y-76448569D02*
X27432143Y-76496188D01*
X27432143Y-76496188D02*
X27336905Y-76591426D01*
X27336905Y-76591426D02*
X27289286Y-76686664D01*
X27289286Y-76686664D02*
X27241667Y-76877140D01*
X27241667Y-76877140D02*
X27241667Y-77019997D01*
X27241667Y-77019997D02*
X27289286Y-77210473D01*
X27289286Y-77210473D02*
X27336905Y-77305711D01*
X27336905Y-77305711D02*
X27432143Y-77400950D01*
X27432143Y-77400950D02*
X27575000Y-77448569D01*
X27575000Y-77448569D02*
X27670238Y-77448569D01*
X27670238Y-77448569D02*
X27813095Y-77400950D01*
X27813095Y-77400950D02*
X27860714Y-77353330D01*
X27860714Y-77353330D02*
X27860714Y-77019997D01*
X27860714Y-77019997D02*
X27670238Y-77019997D01*
X28289286Y-77448569D02*
X28289286Y-76448569D01*
X28289286Y-76448569D02*
X28860714Y-77448569D01*
X28860714Y-77448569D02*
X28860714Y-76448569D01*
X29336905Y-77448569D02*
X29336905Y-76448569D01*
X29336905Y-76448569D02*
X29575000Y-76448569D01*
X29575000Y-76448569D02*
X29717857Y-76496188D01*
X29717857Y-76496188D02*
X29813095Y-76591426D01*
X29813095Y-76591426D02*
X29860714Y-76686664D01*
X29860714Y-76686664D02*
X29908333Y-76877140D01*
X29908333Y-76877140D02*
X29908333Y-77019997D01*
X29908333Y-77019997D02*
X29860714Y-77210473D01*
X29860714Y-77210473D02*
X29813095Y-77305711D01*
X29813095Y-77305711D02*
X29717857Y-77400950D01*
X29717857Y-77400950D02*
X29575000Y-77448569D01*
X29575000Y-77448569D02*
X29336905Y-77448569D01*
X27322619Y-24061069D02*
X27513095Y-24061069D01*
X27513095Y-24061069D02*
X27608333Y-24108688D01*
X27608333Y-24108688D02*
X27703571Y-24203926D01*
X27703571Y-24203926D02*
X27751190Y-24394402D01*
X27751190Y-24394402D02*
X27751190Y-24727735D01*
X27751190Y-24727735D02*
X27703571Y-24918211D01*
X27703571Y-24918211D02*
X27608333Y-25013450D01*
X27608333Y-25013450D02*
X27513095Y-25061069D01*
X27513095Y-25061069D02*
X27322619Y-25061069D01*
X27322619Y-25061069D02*
X27227381Y-25013450D01*
X27227381Y-25013450D02*
X27132143Y-24918211D01*
X27132143Y-24918211D02*
X27084524Y-24727735D01*
X27084524Y-24727735D02*
X27084524Y-24394402D01*
X27084524Y-24394402D02*
X27132143Y-24203926D01*
X27132143Y-24203926D02*
X27227381Y-24108688D01*
X27227381Y-24108688D02*
X27322619Y-24061069D01*
X28655952Y-25061069D02*
X28179762Y-25061069D01*
X28179762Y-25061069D02*
X28179762Y-24061069D01*
X28989286Y-24537259D02*
X29322619Y-24537259D01*
X29465476Y-25061069D02*
X28989286Y-25061069D01*
X28989286Y-25061069D02*
X28989286Y-24061069D01*
X28989286Y-24061069D02*
X29465476Y-24061069D01*
X29894048Y-25061069D02*
X29894048Y-24061069D01*
X29894048Y-24061069D02*
X30132143Y-24061069D01*
X30132143Y-24061069D02*
X30275000Y-24108688D01*
X30275000Y-24108688D02*
X30370238Y-24203926D01*
X30370238Y-24203926D02*
X30417857Y-24299164D01*
X30417857Y-24299164D02*
X30465476Y-24489640D01*
X30465476Y-24489640D02*
X30465476Y-24632497D01*
X30465476Y-24632497D02*
X30417857Y-24822973D01*
X30417857Y-24822973D02*
X30370238Y-24918211D01*
X30370238Y-24918211D02*
X30275000Y-25013450D01*
X30275000Y-25013450D02*
X30132143Y-25061069D01*
X30132143Y-25061069D02*
X29894048Y-25061069D01*
X272486607Y-94387259D02*
X272629464Y-94434878D01*
X272629464Y-94434878D02*
X272677083Y-94482497D01*
X272677083Y-94482497D02*
X272724702Y-94577735D01*
X272724702Y-94577735D02*
X272724702Y-94720592D01*
X272724702Y-94720592D02*
X272677083Y-94815830D01*
X272677083Y-94815830D02*
X272629464Y-94863450D01*
X272629464Y-94863450D02*
X272534226Y-94911069D01*
X272534226Y-94911069D02*
X272153274Y-94911069D01*
X272153274Y-94911069D02*
X272153274Y-93911069D01*
X272153274Y-93911069D02*
X272486607Y-93911069D01*
X272486607Y-93911069D02*
X272581845Y-93958688D01*
X272581845Y-93958688D02*
X272629464Y-94006307D01*
X272629464Y-94006307D02*
X272677083Y-94101545D01*
X272677083Y-94101545D02*
X272677083Y-94196783D01*
X272677083Y-94196783D02*
X272629464Y-94292021D01*
X272629464Y-94292021D02*
X272581845Y-94339640D01*
X272581845Y-94339640D02*
X272486607Y-94387259D01*
X272486607Y-94387259D02*
X272153274Y-94387259D01*
X273343750Y-93911069D02*
X273534226Y-93911069D01*
X273534226Y-93911069D02*
X273629464Y-93958688D01*
X273629464Y-93958688D02*
X273724702Y-94053926D01*
X273724702Y-94053926D02*
X273772321Y-94244402D01*
X273772321Y-94244402D02*
X273772321Y-94577735D01*
X273772321Y-94577735D02*
X273724702Y-94768211D01*
X273724702Y-94768211D02*
X273629464Y-94863450D01*
X273629464Y-94863450D02*
X273534226Y-94911069D01*
X273534226Y-94911069D02*
X273343750Y-94911069D01*
X273343750Y-94911069D02*
X273248512Y-94863450D01*
X273248512Y-94863450D02*
X273153274Y-94768211D01*
X273153274Y-94768211D02*
X273105655Y-94577735D01*
X273105655Y-94577735D02*
X273105655Y-94244402D01*
X273105655Y-94244402D02*
X273153274Y-94053926D01*
X273153274Y-94053926D02*
X273248512Y-93958688D01*
X273248512Y-93958688D02*
X273343750Y-93911069D01*
X274391369Y-93911069D02*
X274581845Y-93911069D01*
X274581845Y-93911069D02*
X274677083Y-93958688D01*
X274677083Y-93958688D02*
X274772321Y-94053926D01*
X274772321Y-94053926D02*
X274819940Y-94244402D01*
X274819940Y-94244402D02*
X274819940Y-94577735D01*
X274819940Y-94577735D02*
X274772321Y-94768211D01*
X274772321Y-94768211D02*
X274677083Y-94863450D01*
X274677083Y-94863450D02*
X274581845Y-94911069D01*
X274581845Y-94911069D02*
X274391369Y-94911069D01*
X274391369Y-94911069D02*
X274296131Y-94863450D01*
X274296131Y-94863450D02*
X274200893Y-94768211D01*
X274200893Y-94768211D02*
X274153274Y-94577735D01*
X274153274Y-94577735D02*
X274153274Y-94244402D01*
X274153274Y-94244402D02*
X274200893Y-94053926D01*
X274200893Y-94053926D02*
X274296131Y-93958688D01*
X274296131Y-93958688D02*
X274391369Y-93911069D01*
X275105655Y-93911069D02*
X275677083Y-93911069D01*
X275391369Y-94911069D02*
X275391369Y-93911069D01*
X15216369Y-76448569D02*
X15406845Y-76448569D01*
X15406845Y-76448569D02*
X15502083Y-76496188D01*
X15502083Y-76496188D02*
X15597321Y-76591426D01*
X15597321Y-76591426D02*
X15644940Y-76781902D01*
X15644940Y-76781902D02*
X15644940Y-77115235D01*
X15644940Y-77115235D02*
X15597321Y-77305711D01*
X15597321Y-77305711D02*
X15502083Y-77400950D01*
X15502083Y-77400950D02*
X15406845Y-77448569D01*
X15406845Y-77448569D02*
X15216369Y-77448569D01*
X15216369Y-77448569D02*
X15121131Y-77400950D01*
X15121131Y-77400950D02*
X15025893Y-77305711D01*
X15025893Y-77305711D02*
X14978274Y-77115235D01*
X14978274Y-77115235D02*
X14978274Y-76781902D01*
X14978274Y-76781902D02*
X15025893Y-76591426D01*
X15025893Y-76591426D02*
X15121131Y-76496188D01*
X15121131Y-76496188D02*
X15216369Y-76448569D01*
X16549702Y-77448569D02*
X16073512Y-77448569D01*
X16073512Y-77448569D02*
X16073512Y-76448569D01*
X16883036Y-76924759D02*
X17216369Y-76924759D01*
X17359226Y-77448569D02*
X16883036Y-77448569D01*
X16883036Y-77448569D02*
X16883036Y-76448569D01*
X16883036Y-76448569D02*
X17359226Y-76448569D01*
X17787798Y-77448569D02*
X17787798Y-76448569D01*
X17787798Y-76448569D02*
X18025893Y-76448569D01*
X18025893Y-76448569D02*
X18168750Y-76496188D01*
X18168750Y-76496188D02*
X18263988Y-76591426D01*
X18263988Y-76591426D02*
X18311607Y-76686664D01*
X18311607Y-76686664D02*
X18359226Y-76877140D01*
X18359226Y-76877140D02*
X18359226Y-77019997D01*
X18359226Y-77019997D02*
X18311607Y-77210473D01*
X18311607Y-77210473D02*
X18263988Y-77305711D01*
X18263988Y-77305711D02*
X18168750Y-77400950D01*
X18168750Y-77400950D02*
X18025893Y-77448569D01*
X18025893Y-77448569D02*
X17787798Y-77448569D01*
X15113095Y-24108688D02*
X15017857Y-24061069D01*
X15017857Y-24061069D02*
X14875000Y-24061069D01*
X14875000Y-24061069D02*
X14732143Y-24108688D01*
X14732143Y-24108688D02*
X14636905Y-24203926D01*
X14636905Y-24203926D02*
X14589286Y-24299164D01*
X14589286Y-24299164D02*
X14541667Y-24489640D01*
X14541667Y-24489640D02*
X14541667Y-24632497D01*
X14541667Y-24632497D02*
X14589286Y-24822973D01*
X14589286Y-24822973D02*
X14636905Y-24918211D01*
X14636905Y-24918211D02*
X14732143Y-25013450D01*
X14732143Y-25013450D02*
X14875000Y-25061069D01*
X14875000Y-25061069D02*
X14970238Y-25061069D01*
X14970238Y-25061069D02*
X15113095Y-25013450D01*
X15113095Y-25013450D02*
X15160714Y-24965830D01*
X15160714Y-24965830D02*
X15160714Y-24632497D01*
X15160714Y-24632497D02*
X14970238Y-24632497D01*
X15589286Y-25061069D02*
X15589286Y-24061069D01*
X15589286Y-24061069D02*
X16160714Y-25061069D01*
X16160714Y-25061069D02*
X16160714Y-24061069D01*
X16636905Y-25061069D02*
X16636905Y-24061069D01*
X16636905Y-24061069D02*
X16875000Y-24061069D01*
X16875000Y-24061069D02*
X17017857Y-24108688D01*
X17017857Y-24108688D02*
X17113095Y-24203926D01*
X17113095Y-24203926D02*
X17160714Y-24299164D01*
X17160714Y-24299164D02*
X17208333Y-24489640D01*
X17208333Y-24489640D02*
X17208333Y-24632497D01*
X17208333Y-24632497D02*
X17160714Y-24822973D01*
X17160714Y-24822973D02*
X17113095Y-24918211D01*
X17113095Y-24918211D02*
X17017857Y-25013450D01*
X17017857Y-25013450D02*
X16875000Y-25061069D01*
X16875000Y-25061069D02*
X16636905Y-25061069D01*
D12*
%TO.C,G\u002A\u002A\u002A*%
G36*
X267783509Y-31084329D02*
G01*
X267784504Y-31129117D01*
X267785420Y-31200382D01*
X267786243Y-31295359D01*
X267786953Y-31411280D01*
X267787536Y-31545379D01*
X267787973Y-31694891D01*
X267788247Y-31857049D01*
X267788343Y-32029087D01*
X267788343Y-32029088D01*
X267788343Y-32989390D01*
X267308191Y-32989390D01*
X266828040Y-32989390D01*
X266828040Y-32094674D01*
X266828040Y-31199958D01*
X266904064Y-31224080D01*
X266971128Y-31238204D01*
X267059603Y-31246876D01*
X267159337Y-31249973D01*
X267260177Y-31247369D01*
X267351971Y-31238942D01*
X267402437Y-31230180D01*
X267464968Y-31211875D01*
X267541589Y-31183065D01*
X267618560Y-31149061D01*
X267640625Y-31138151D01*
X267699724Y-31108289D01*
X267747160Y-31084876D01*
X267776409Y-31071101D01*
X267782454Y-31068785D01*
X267783509Y-31084329D01*
G37*
G36*
X266723324Y-22855565D02*
G01*
X266855655Y-22892904D01*
X266977169Y-22951018D01*
X267040267Y-22994275D01*
X267133530Y-23079278D01*
X267210777Y-23176383D01*
X267274888Y-23290618D01*
X267328743Y-23427012D01*
X267370213Y-23570447D01*
X267390081Y-23644922D01*
X267409011Y-23708545D01*
X267424851Y-23754534D01*
X267435405Y-23776062D01*
X267468988Y-23790876D01*
X267518141Y-23793413D01*
X267569289Y-23784631D01*
X267608858Y-23765493D01*
X267611009Y-23763641D01*
X267632926Y-23733768D01*
X267642566Y-23691685D01*
X267639933Y-23632527D01*
X267625028Y-23551430D01*
X267611108Y-23493782D01*
X267559007Y-23324066D01*
X267494833Y-23180447D01*
X267415617Y-23058332D01*
X267318387Y-22953131D01*
X267202228Y-22861651D01*
X267188766Y-22850088D01*
X267196580Y-22845687D01*
X267229980Y-22847416D01*
X267252187Y-22849669D01*
X267392472Y-22880296D01*
X267521495Y-22940346D01*
X267637999Y-23028840D01*
X267740730Y-23144795D01*
X267828431Y-23287231D01*
X267838991Y-23308313D01*
X267865763Y-23369944D01*
X267893718Y-23445538D01*
X267920207Y-23526469D01*
X267942581Y-23604112D01*
X267958189Y-23669840D01*
X267964383Y-23715027D01*
X267964398Y-23716585D01*
X267978736Y-23768008D01*
X268016263Y-23805655D01*
X268068747Y-23821870D01*
X268077688Y-23821972D01*
X268135205Y-23808098D01*
X268170643Y-23771804D01*
X268182388Y-23715284D01*
X268179468Y-23683556D01*
X268163941Y-23606656D01*
X268142305Y-23520436D01*
X268117955Y-23437079D01*
X268094283Y-23368766D01*
X268086648Y-23350354D01*
X268071853Y-23313305D01*
X268066634Y-23292199D01*
X268067711Y-23290335D01*
X268082601Y-23302885D01*
X268109326Y-23335971D01*
X268143135Y-23382751D01*
X268179282Y-23436381D01*
X268213016Y-23490019D01*
X268239590Y-23536820D01*
X268241978Y-23541466D01*
X268277652Y-23618550D01*
X268311931Y-23704592D01*
X268343072Y-23793657D01*
X268369331Y-23879815D01*
X268388963Y-23957131D01*
X268400226Y-24019672D01*
X268401376Y-24061507D01*
X268397981Y-24072242D01*
X268379219Y-24078589D01*
X268334877Y-24075847D01*
X268262789Y-24063831D01*
X268235408Y-24058386D01*
X268151888Y-24043543D01*
X268063463Y-24031381D01*
X267985766Y-24023960D01*
X267966581Y-24022955D01*
X267905305Y-24021497D01*
X267866676Y-24024424D01*
X267841391Y-24034161D01*
X267820149Y-24053129D01*
X267811022Y-24063471D01*
X267778729Y-24120887D01*
X267777021Y-24179398D01*
X267805941Y-24234072D01*
X267809583Y-24238137D01*
X267837678Y-24261657D01*
X267874908Y-24276723D01*
X267930964Y-24286712D01*
X267957630Y-24289717D01*
X268063452Y-24303647D01*
X268168008Y-24322870D01*
X268264125Y-24345631D01*
X268344626Y-24370171D01*
X268402337Y-24394736D01*
X268413233Y-24401245D01*
X268474754Y-24460229D01*
X268513265Y-24536883D01*
X268524575Y-24611169D01*
X268522986Y-24649899D01*
X268512672Y-24664448D01*
X268485311Y-24662643D01*
X268472558Y-24660087D01*
X268413643Y-24649347D01*
X268338466Y-24637555D01*
X268255940Y-24625888D01*
X268174980Y-24615527D01*
X268104500Y-24607650D01*
X268053414Y-24603436D01*
X268041315Y-24603042D01*
X267975553Y-24615807D01*
X267925849Y-24651328D01*
X267897954Y-24704374D01*
X267893976Y-24737073D01*
X267897247Y-24779421D01*
X267909807Y-24811850D01*
X267935779Y-24836519D01*
X267979284Y-24855585D01*
X268044443Y-24871205D01*
X268135378Y-24885537D01*
X268191578Y-24892866D01*
X268313095Y-24909751D01*
X268407206Y-24927148D01*
X268478503Y-24946560D01*
X268531574Y-24969494D01*
X268571009Y-24997455D01*
X268596830Y-25025764D01*
X268620744Y-25067998D01*
X268638895Y-25119688D01*
X268649254Y-25171053D01*
X268649792Y-25212311D01*
X268639815Y-25232967D01*
X268616550Y-25236043D01*
X268571442Y-25234282D01*
X268514230Y-25228067D01*
X268513890Y-25228019D01*
X268446078Y-25219780D01*
X268361476Y-25211169D01*
X268275246Y-25203692D01*
X268249853Y-25201790D01*
X268178254Y-25197055D01*
X268131013Y-25195949D01*
X268100575Y-25199640D01*
X268079381Y-25209298D01*
X268059875Y-25226092D01*
X268053791Y-25232128D01*
X268019873Y-25285571D01*
X268012194Y-25345515D01*
X268030987Y-25402262D01*
X268049128Y-25425165D01*
X268069648Y-25442061D01*
X268095853Y-25453831D01*
X268134680Y-25462065D01*
X268193065Y-25468350D01*
X268257920Y-25473005D01*
X268406580Y-25485983D01*
X268526002Y-25504542D01*
X268618668Y-25529947D01*
X268687059Y-25563461D01*
X268733654Y-25606350D01*
X268760935Y-25659879D01*
X268771382Y-25725312D01*
X268771635Y-25734916D01*
X268772653Y-25811129D01*
X268708632Y-25809507D01*
X268668605Y-25807961D01*
X268604902Y-25804893D01*
X268525800Y-25800725D01*
X268439574Y-25795880D01*
X268426217Y-25795102D01*
X268207821Y-25782320D01*
X268166135Y-25824006D01*
X268131502Y-25878006D01*
X268127376Y-25936766D01*
X268153885Y-25994954D01*
X268161763Y-26004773D01*
X268180029Y-26023726D01*
X268200674Y-26036852D01*
X268230369Y-26045861D01*
X268275781Y-26052459D01*
X268343581Y-26058355D01*
X268381833Y-26061139D01*
X268511796Y-26071540D01*
X268614002Y-26082730D01*
X268692705Y-26095649D01*
X268752158Y-26111238D01*
X268796614Y-26130439D01*
X268830326Y-26154193D01*
X268838902Y-26162268D01*
X268880521Y-26218546D01*
X268901079Y-26288294D01*
X268901284Y-26289646D01*
X268906089Y-26344522D01*
X268897597Y-26378975D01*
X268871225Y-26396316D01*
X268822393Y-26399854D01*
X268756648Y-26394112D01*
X268687854Y-26388000D01*
X268602208Y-26383182D01*
X268514864Y-26380447D01*
X268487332Y-26380130D01*
X268414863Y-26380157D01*
X268366617Y-26382353D01*
X268334812Y-26388526D01*
X268311662Y-26400485D01*
X268289383Y-26420037D01*
X268281395Y-26427965D01*
X268250096Y-26464489D01*
X268239577Y-26496312D01*
X268242597Y-26527996D01*
X268253382Y-26568439D01*
X268271013Y-26598751D01*
X268299927Y-26620656D01*
X268344565Y-26635879D01*
X268409363Y-26646144D01*
X268498763Y-26653175D01*
X268574489Y-26656929D01*
X268665149Y-26661756D01*
X268749051Y-26667853D01*
X268818847Y-26674568D01*
X268867189Y-26681250D01*
X268879658Y-26683980D01*
X268946428Y-26718269D01*
X268997162Y-26776484D01*
X269026864Y-26852504D01*
X269029603Y-26867684D01*
X269034814Y-26909689D01*
X269033253Y-26940185D01*
X269020859Y-26960788D01*
X268993570Y-26973117D01*
X268947323Y-26978789D01*
X268878059Y-26979422D01*
X268781715Y-26976633D01*
X268758192Y-26975783D01*
X268669483Y-26973332D01*
X268589174Y-26972566D01*
X268524079Y-26973443D01*
X268481015Y-26975920D01*
X268470501Y-26977579D01*
X268413380Y-27005710D01*
X268376900Y-27051354D01*
X268363391Y-27106590D01*
X268375185Y-27163492D01*
X268403809Y-27204295D01*
X268418366Y-27217992D01*
X268433864Y-27228066D01*
X268455127Y-27235074D01*
X268486977Y-27239572D01*
X268534240Y-27242116D01*
X268601737Y-27243263D01*
X268694292Y-27243569D01*
X268744356Y-27243581D01*
X268855478Y-27244063D01*
X268938952Y-27245717D01*
X268999130Y-27248855D01*
X269040362Y-27253787D01*
X269067000Y-27260826D01*
X269079906Y-27267597D01*
X269099598Y-27287130D01*
X269118142Y-27319299D01*
X269136803Y-27367925D01*
X269156848Y-27436831D01*
X269179542Y-27529841D01*
X269205005Y-27645396D01*
X269235272Y-27831934D01*
X269241456Y-27998993D01*
X269222788Y-28149032D01*
X269178495Y-28284511D01*
X269107807Y-28407888D01*
X269009952Y-28521622D01*
X268900693Y-28615732D01*
X268786189Y-28693441D01*
X268645442Y-28772782D01*
X268483955Y-28851257D01*
X268307227Y-28926364D01*
X268120758Y-28995605D01*
X267932388Y-29055795D01*
X267748330Y-29109748D01*
X267751734Y-29164976D01*
X267755205Y-29196589D01*
X267763034Y-29254415D01*
X267774431Y-29333072D01*
X267788610Y-29427177D01*
X267804783Y-29531350D01*
X267812538Y-29580316D01*
X267838915Y-29746782D01*
X267860371Y-29885065D01*
X267877272Y-29998552D01*
X267889987Y-30090630D01*
X267898883Y-30164686D01*
X267904327Y-30224108D01*
X267906687Y-30272283D01*
X267906329Y-30312597D01*
X267903622Y-30348438D01*
X267899342Y-30380569D01*
X267864951Y-30513305D01*
X267803609Y-30633712D01*
X267712980Y-30746246D01*
X267701417Y-30758040D01*
X267586140Y-30853686D01*
X267457859Y-30924840D01*
X267321537Y-30970019D01*
X267182136Y-30987738D01*
X267044621Y-30976514D01*
X267002965Y-30966875D01*
X266901787Y-30930989D01*
X266816849Y-30880482D01*
X266745270Y-30811899D01*
X266684171Y-30721781D01*
X266630670Y-30606673D01*
X266596325Y-30505604D01*
X266861719Y-30505604D01*
X266878204Y-30588709D01*
X266913326Y-30658471D01*
X266914386Y-30659874D01*
X266973760Y-30716660D01*
X267041230Y-30746230D01*
X267111177Y-30747648D01*
X267177983Y-30719975D01*
X267195503Y-30706765D01*
X267258887Y-30634719D01*
X267294184Y-30552432D01*
X267301175Y-30465416D01*
X267279639Y-30379180D01*
X267229355Y-30299236D01*
X267212506Y-30281117D01*
X267169689Y-30243207D01*
X267132465Y-30225109D01*
X267088371Y-30220518D01*
X267013389Y-30235683D01*
X266945477Y-30277837D01*
X266892450Y-30341967D01*
X266888722Y-30348558D01*
X266864888Y-30421455D01*
X266861719Y-30505604D01*
X266596325Y-30505604D01*
X266581887Y-30463116D01*
X266581137Y-30460594D01*
X266544933Y-30338877D01*
X266505594Y-30206928D01*
X266464728Y-30070114D01*
X266423943Y-29933803D01*
X266384847Y-29803365D01*
X266349050Y-29684166D01*
X266318159Y-29581576D01*
X266293783Y-29500962D01*
X266282619Y-29464280D01*
X266234922Y-29308231D01*
X266037885Y-29308231D01*
X265835162Y-29295901D01*
X265652588Y-29258745D01*
X265489806Y-29196518D01*
X265346458Y-29108970D01*
X265222185Y-28995855D01*
X265175297Y-28934143D01*
X266834103Y-28934143D01*
X266836733Y-28980419D01*
X266866320Y-29017886D01*
X266918204Y-29042742D01*
X266977400Y-29051136D01*
X267014204Y-29046450D01*
X267069879Y-29033138D01*
X267133360Y-29013909D01*
X267143394Y-29010501D01*
X267329337Y-28935524D01*
X267474712Y-28855138D01*
X267678560Y-28855138D01*
X267681418Y-28870748D01*
X267700216Y-28886004D01*
X267726994Y-28898727D01*
X267762034Y-28900488D01*
X267810713Y-28890292D01*
X267878409Y-28867142D01*
X267945039Y-28840619D01*
X268049407Y-28791409D01*
X268080499Y-28773439D01*
X268332514Y-28773439D01*
X268341699Y-28780079D01*
X268370926Y-28772894D01*
X268422707Y-28750992D01*
X268495313Y-28715621D01*
X268645364Y-28630612D01*
X268765716Y-28540517D01*
X268858623Y-28442156D01*
X268926340Y-28332344D01*
X268971119Y-28207901D01*
X268995217Y-28065644D01*
X268999534Y-28003820D01*
X269000067Y-27915537D01*
X268994701Y-27820895D01*
X268984456Y-27726190D01*
X268970353Y-27637716D01*
X268953410Y-27561768D01*
X268934649Y-27504639D01*
X268915088Y-27472626D01*
X268913221Y-27471116D01*
X268866076Y-27454503D01*
X268813786Y-27462219D01*
X268768762Y-27491830D01*
X268761106Y-27500983D01*
X268746539Y-27522666D01*
X268739233Y-27544013D01*
X268738981Y-27573219D01*
X268745578Y-27618479D01*
X268756679Y-27677039D01*
X268775176Y-27793344D01*
X268787467Y-27916311D01*
X268793310Y-28037878D01*
X268792467Y-28149987D01*
X268784695Y-28244577D01*
X268775129Y-28295564D01*
X268726417Y-28424288D01*
X268650186Y-28537743D01*
X268545887Y-28636596D01*
X268433897Y-28710118D01*
X268384582Y-28738539D01*
X268348519Y-28760927D01*
X268332716Y-28772907D01*
X268332514Y-28773439D01*
X268080499Y-28773439D01*
X268153142Y-28731455D01*
X268247697Y-28666394D01*
X268324522Y-28601863D01*
X268354465Y-28570575D01*
X268425111Y-28474478D01*
X268476056Y-28370834D01*
X268507986Y-28255724D01*
X268521587Y-28125230D01*
X268517544Y-27975432D01*
X268496545Y-27802411D01*
X268492893Y-27779749D01*
X268480641Y-27704731D01*
X268470537Y-27641475D01*
X268463610Y-27596529D01*
X268460891Y-27576440D01*
X268460886Y-27576309D01*
X268446806Y-27550994D01*
X268413714Y-27524691D01*
X268373383Y-27505174D01*
X268344774Y-27499661D01*
X268302446Y-27510935D01*
X268260503Y-27538786D01*
X268229756Y-27574260D01*
X268220479Y-27602619D01*
X268222971Y-27627014D01*
X268229780Y-27676133D01*
X268239902Y-27743132D01*
X268252336Y-27821171D01*
X268254012Y-27831418D01*
X268274621Y-27988446D01*
X268280430Y-28122259D01*
X268271265Y-28238113D01*
X268246953Y-28341267D01*
X268236142Y-28371936D01*
X268182363Y-28471675D01*
X268100437Y-28566823D01*
X267994216Y-28653665D01*
X267867552Y-28728486D01*
X267865296Y-28729607D01*
X267801774Y-28762921D01*
X267746731Y-28795135D01*
X267708421Y-28821272D01*
X267698257Y-28830354D01*
X267678560Y-28855138D01*
X267474712Y-28855138D01*
X267485557Y-28849141D01*
X267612312Y-28751156D01*
X267709862Y-28641376D01*
X267769382Y-28539989D01*
X267787160Y-28498268D01*
X267799479Y-28457413D01*
X267807632Y-28409465D01*
X267812917Y-28346466D01*
X267816628Y-28260458D01*
X267817066Y-28247071D01*
X267817087Y-28126157D01*
X267810299Y-28002469D01*
X267797631Y-27883837D01*
X267780010Y-27778093D01*
X267758364Y-27693069D01*
X267748121Y-27665001D01*
X267711298Y-27611353D01*
X267660266Y-27583543D01*
X267601886Y-27583310D01*
X267543018Y-27612392D01*
X267542423Y-27612858D01*
X267520912Y-27634246D01*
X267507245Y-27661635D01*
X267501164Y-27700077D01*
X267502413Y-27754624D01*
X267510736Y-27830329D01*
X267525875Y-27932244D01*
X267526126Y-27933829D01*
X267545334Y-28099574D01*
X267545432Y-28243159D01*
X267524638Y-28367641D01*
X267481168Y-28476076D01*
X267413240Y-28571523D01*
X267319071Y-28657036D01*
X267196876Y-28735674D01*
X267044874Y-28810493D01*
X267004631Y-28827854D01*
X266929741Y-28860733D01*
X266880065Y-28886202D01*
X266850590Y-28907386D01*
X266836302Y-28927409D01*
X266834103Y-28934143D01*
X265175297Y-28934143D01*
X265116628Y-28856925D01*
X265029431Y-28691934D01*
X264986359Y-28582002D01*
X264962997Y-28509311D01*
X264943359Y-28437828D01*
X264930748Y-28379917D01*
X264928729Y-28366207D01*
X264919664Y-28289668D01*
X264997576Y-28240292D01*
X265108847Y-28173829D01*
X265240755Y-28101739D01*
X265383763Y-28029081D01*
X265499622Y-27974005D01*
X265569115Y-27941085D01*
X265629575Y-27910690D01*
X265673957Y-27886473D01*
X265694001Y-27873276D01*
X265722935Y-27828567D01*
X265727846Y-27774811D01*
X265710911Y-27721352D01*
X265674302Y-27677538D01*
X265644381Y-27660007D01*
X265620865Y-27652693D01*
X265594508Y-27650893D01*
X265561824Y-27655921D01*
X265519329Y-27669091D01*
X265463540Y-27691716D01*
X265390972Y-27725112D01*
X265298142Y-27770592D01*
X265181565Y-27829470D01*
X265143242Y-27849022D01*
X265042722Y-27900128D01*
X264966856Y-27936715D01*
X264911716Y-27958674D01*
X264873371Y-27965894D01*
X264847892Y-27958266D01*
X264831350Y-27935678D01*
X264819816Y-27898022D01*
X264809359Y-27845186D01*
X264808329Y-27839639D01*
X264799177Y-27781706D01*
X264798660Y-27745434D01*
X264807103Y-27721572D01*
X264812740Y-27713821D01*
X264848197Y-27681362D01*
X264908591Y-27638263D01*
X264989689Y-27587074D01*
X265087263Y-27530346D01*
X265163502Y-27488889D01*
X266236363Y-27488889D01*
X266247851Y-27530779D01*
X266277170Y-27574606D01*
X266315333Y-27610173D01*
X266353353Y-27627286D01*
X266358662Y-27627631D01*
X266385196Y-27622653D01*
X266434381Y-27609230D01*
X266498669Y-27589540D01*
X266555954Y-27570721D01*
X266851926Y-27477928D01*
X267148157Y-27399159D01*
X267437937Y-27335909D01*
X267714555Y-27289679D01*
X267921117Y-27266019D01*
X268008998Y-27253992D01*
X268069203Y-27234320D01*
X268105664Y-27204415D01*
X268122312Y-27161688D01*
X268124449Y-27132157D01*
X268114620Y-27073378D01*
X268093704Y-27033287D01*
X268076755Y-27015348D01*
X268056605Y-27004462D01*
X268025711Y-26999159D01*
X267976526Y-26997972D01*
X267917741Y-26999026D01*
X267765769Y-27009149D01*
X267588866Y-27032249D01*
X267390977Y-27067484D01*
X267176043Y-27114013D01*
X266948008Y-27170992D01*
X266710815Y-27237580D01*
X266507939Y-27300143D01*
X266407788Y-27334072D01*
X266334898Y-27363787D01*
X266285291Y-27392053D01*
X266254988Y-27421637D01*
X266240012Y-27455302D01*
X266236363Y-27488889D01*
X265163502Y-27488889D01*
X265197082Y-27470629D01*
X265314915Y-27410473D01*
X265320147Y-27407891D01*
X265402043Y-27366327D01*
X265474153Y-27327459D01*
X265531366Y-27294222D01*
X265568566Y-27269554D01*
X265580229Y-27258498D01*
X265595363Y-27202546D01*
X265587325Y-27145477D01*
X265560378Y-27095726D01*
X265518786Y-27061730D01*
X265475631Y-27051520D01*
X265445997Y-27058703D01*
X265393630Y-27078529D01*
X265323954Y-27108418D01*
X265242394Y-27145789D01*
X265154374Y-27188058D01*
X265065318Y-27232645D01*
X264980650Y-27276969D01*
X264905795Y-27318447D01*
X264868676Y-27340389D01*
X264803424Y-27377426D01*
X264758268Y-27393235D01*
X264727853Y-27386002D01*
X264706825Y-27353914D01*
X264689830Y-27295157D01*
X264686121Y-27278563D01*
X264675201Y-27223212D01*
X264672918Y-27188407D01*
X264679884Y-27163709D01*
X264694123Y-27142081D01*
X264737169Y-27098106D01*
X264806342Y-27044163D01*
X264898188Y-26982513D01*
X265009252Y-26915417D01*
X265112234Y-26858350D01*
X266112660Y-26858350D01*
X266115312Y-26906379D01*
X266140299Y-26955518D01*
X266179872Y-26995938D01*
X266226283Y-27017811D01*
X266239519Y-27019274D01*
X266257948Y-27014557D01*
X266301339Y-27001372D01*
X266364302Y-26981417D01*
X266441447Y-26956391D01*
X266495600Y-26938555D01*
X266782212Y-26849052D01*
X267047478Y-26777397D01*
X267290219Y-26723853D01*
X267509261Y-26688685D01*
X267673597Y-26673565D01*
X267778564Y-26666537D01*
X267856374Y-26657751D01*
X267911876Y-26645854D01*
X267949920Y-26629496D01*
X267975357Y-26607326D01*
X267989314Y-26585618D01*
X268007260Y-26523255D01*
X267997041Y-26467819D01*
X267962402Y-26423727D01*
X267907088Y-26395395D01*
X267834847Y-26387243D01*
X267821848Y-26388117D01*
X267776085Y-26392292D01*
X267708157Y-26398489D01*
X267627778Y-26405821D01*
X267556270Y-26412344D01*
X267338030Y-26440541D01*
X267096558Y-26487190D01*
X266834345Y-26551697D01*
X266553885Y-26633465D01*
X266348711Y-26700428D01*
X266261201Y-26731561D01*
X266199458Y-26757835D01*
X266158333Y-26782695D01*
X266132679Y-26809584D01*
X266117347Y-26841947D01*
X266112660Y-26858350D01*
X265112234Y-26858350D01*
X265136080Y-26845136D01*
X265194851Y-26814371D01*
X265298020Y-26759893D01*
X265374834Y-26715477D01*
X265428308Y-26678452D01*
X265461456Y-26646150D01*
X265477293Y-26615902D01*
X265478835Y-26585039D01*
X265474639Y-26566693D01*
X265444150Y-26509779D01*
X265396970Y-26471748D01*
X265346376Y-26459334D01*
X265310864Y-26467058D01*
X265253344Y-26488420D01*
X265179322Y-26520699D01*
X265094306Y-26561177D01*
X265003802Y-26607136D01*
X264913319Y-26655856D01*
X264828363Y-26704618D01*
X264754443Y-26750703D01*
X264749310Y-26754101D01*
X264688149Y-26793024D01*
X264646773Y-26814432D01*
X264619836Y-26820636D01*
X264605264Y-26816315D01*
X264587340Y-26791521D01*
X264569670Y-26746275D01*
X264555245Y-26692017D01*
X264547060Y-26640188D01*
X264548109Y-26602228D01*
X264548692Y-26600096D01*
X264573508Y-26559260D01*
X264624663Y-26507856D01*
X264699126Y-26448046D01*
X264793867Y-26381990D01*
X264905853Y-26311849D01*
X264973349Y-26273307D01*
X265977080Y-26273307D01*
X265992051Y-26326764D01*
X266029016Y-26369883D01*
X266067545Y-26396608D01*
X266101037Y-26410680D01*
X266106780Y-26411318D01*
X266132856Y-26405966D01*
X266181365Y-26391476D01*
X266244865Y-26370198D01*
X266301614Y-26349809D01*
X266464203Y-26293088D01*
X266645338Y-26235794D01*
X266831893Y-26181975D01*
X266932073Y-26155319D01*
X267012026Y-26137636D01*
X267113864Y-26119384D01*
X267228974Y-26101699D01*
X267348741Y-26085714D01*
X267464551Y-26072564D01*
X267567788Y-26063385D01*
X267649837Y-26059311D01*
X267661709Y-26059207D01*
X267753514Y-26052639D01*
X267822198Y-26033617D01*
X267864768Y-26003165D01*
X267874431Y-25986468D01*
X267886151Y-25921122D01*
X267873030Y-25860941D01*
X267840359Y-25818307D01*
X267821275Y-25804418D01*
X267801010Y-25795093D01*
X267773600Y-25789763D01*
X267733083Y-25787861D01*
X267673496Y-25788818D01*
X267588877Y-25792067D01*
X267572275Y-25792777D01*
X267429969Y-25802970D01*
X267270296Y-25821223D01*
X267104738Y-25845776D01*
X266944775Y-25874871D01*
X266801888Y-25906750D01*
X266764020Y-25916606D01*
X266702191Y-25934312D01*
X266621450Y-25958800D01*
X266528478Y-25987900D01*
X266429951Y-26019445D01*
X266332550Y-26051263D01*
X266242953Y-26081188D01*
X266167838Y-26107049D01*
X266113884Y-26126678D01*
X266099217Y-26132510D01*
X266031941Y-26171856D01*
X265990803Y-26220230D01*
X265977080Y-26273307D01*
X264973349Y-26273307D01*
X265032054Y-26239785D01*
X265118299Y-26193955D01*
X265201239Y-26150271D01*
X265259818Y-26116964D01*
X265298655Y-26090814D01*
X265322367Y-26068601D01*
X265335574Y-26047106D01*
X265338012Y-26040795D01*
X265345496Y-25978164D01*
X265326263Y-25923866D01*
X265285530Y-25883976D01*
X265228509Y-25864570D01*
X265187523Y-25865451D01*
X265153687Y-25876450D01*
X265098141Y-25901130D01*
X265026507Y-25936509D01*
X264944406Y-25979604D01*
X264857458Y-26027432D01*
X264771286Y-26077011D01*
X264691511Y-26125358D01*
X264660417Y-26145128D01*
X264596535Y-26184748D01*
X264541204Y-26215883D01*
X264500475Y-26235339D01*
X264480673Y-26240042D01*
X264462656Y-26219304D01*
X264445432Y-26177607D01*
X264432530Y-26125889D01*
X264427479Y-26075213D01*
X264442609Y-26018680D01*
X264487223Y-25953623D01*
X264560219Y-25880958D01*
X264660495Y-25801602D01*
X264786948Y-25716473D01*
X264870114Y-25667084D01*
X265852598Y-25667084D01*
X265865528Y-25726910D01*
X265905703Y-25772208D01*
X265923755Y-25783796D01*
X265949654Y-25796468D01*
X265974919Y-25800614D01*
X266007725Y-25795216D01*
X266056245Y-25779257D01*
X266103447Y-25761446D01*
X266375263Y-25663836D01*
X266630447Y-25587078D01*
X266875317Y-25529708D01*
X267116194Y-25490265D01*
X267359395Y-25467287D01*
X267380214Y-25466055D01*
X267472813Y-25460467D01*
X267556352Y-25454765D01*
X267624676Y-25449420D01*
X267671629Y-25444903D01*
X267688770Y-25442424D01*
X267723697Y-25420147D01*
X267751803Y-25377642D01*
X267767345Y-25326673D01*
X267766065Y-25284155D01*
X267745633Y-25247507D01*
X267709514Y-25213216D01*
X267703887Y-25209465D01*
X267677983Y-25195156D01*
X267650406Y-25186423D01*
X267613741Y-25182522D01*
X267560574Y-25182710D01*
X267483492Y-25186244D01*
X267476244Y-25186640D01*
X267224772Y-25204941D01*
X266995842Y-25231899D01*
X266780720Y-25269349D01*
X266570673Y-25319130D01*
X266356966Y-25383078D01*
X266130868Y-25463031D01*
X266091808Y-25477872D01*
X265998474Y-25515730D01*
X265932019Y-25548552D01*
X265888395Y-25579543D01*
X265863548Y-25611907D01*
X265853429Y-25648849D01*
X265852598Y-25667084D01*
X264870114Y-25667084D01*
X264938476Y-25626487D01*
X265022000Y-25580654D01*
X265087171Y-25544523D01*
X265142893Y-25511369D01*
X265182309Y-25485406D01*
X265197255Y-25472940D01*
X265211423Y-25440402D01*
X265217893Y-25395020D01*
X265217933Y-25391429D01*
X265203980Y-25336535D01*
X265167949Y-25290738D01*
X265118585Y-25263119D01*
X265090379Y-25258955D01*
X265054655Y-25267397D01*
X264997592Y-25290774D01*
X264924419Y-25326164D01*
X264840362Y-25370642D01*
X264750648Y-25421287D01*
X264660506Y-25475175D01*
X264575161Y-25529384D01*
X264499843Y-25580989D01*
X264456991Y-25613126D01*
X264402686Y-25648488D01*
X264361947Y-25656594D01*
X264332897Y-25636365D01*
X264313656Y-25586721D01*
X264304077Y-25525228D01*
X264294989Y-25437178D01*
X264381143Y-25351090D01*
X264509785Y-25236921D01*
X264667178Y-25122186D01*
X264773241Y-25056664D01*
X265724201Y-25056664D01*
X265737935Y-25119323D01*
X265777678Y-25163323D01*
X265805170Y-25177488D01*
X265832339Y-25187673D01*
X265854812Y-25191462D01*
X265880973Y-25187464D01*
X265919203Y-25174288D01*
X265977885Y-25150543D01*
X265984887Y-25147662D01*
X266264438Y-25042239D01*
X266531432Y-24961875D01*
X266791594Y-24905353D01*
X267050648Y-24871456D01*
X267314318Y-24858968D01*
X267343161Y-24858849D01*
X267421497Y-24857505D01*
X267491605Y-24853874D01*
X267545205Y-24848532D01*
X267572007Y-24842926D01*
X267612165Y-24812572D01*
X267640336Y-24763802D01*
X267650789Y-24709595D01*
X267645202Y-24677152D01*
X267627990Y-24642505D01*
X267603467Y-24617823D01*
X267566490Y-24601509D01*
X267511920Y-24591965D01*
X267434615Y-24587592D01*
X267354341Y-24586744D01*
X267015902Y-24602279D01*
X266682663Y-24649033D01*
X266353538Y-24727231D01*
X266027440Y-24837097D01*
X265910285Y-24884567D01*
X265828040Y-24922666D01*
X265772703Y-24957356D01*
X265740023Y-24992567D01*
X265725752Y-25032230D01*
X265724201Y-25056664D01*
X264773241Y-25056664D01*
X264850186Y-25009130D01*
X264888606Y-24987463D01*
X264975302Y-24937240D01*
X265036050Y-24896186D01*
X265074234Y-24860650D01*
X265093238Y-24826984D01*
X265096445Y-24791536D01*
X265092187Y-24767868D01*
X265063944Y-24715517D01*
X265015100Y-24679190D01*
X264960473Y-24666769D01*
X264916115Y-24676057D01*
X264851340Y-24702002D01*
X264771087Y-24741727D01*
X264680299Y-24792356D01*
X264583915Y-24851011D01*
X264486877Y-24914815D01*
X264394124Y-24980891D01*
X264315362Y-25042420D01*
X264270818Y-25078115D01*
X264236129Y-25103998D01*
X264218318Y-25114848D01*
X264217844Y-25114910D01*
X264210988Y-25100276D01*
X264200349Y-25060909D01*
X264187640Y-25003611D01*
X264179655Y-24963053D01*
X264159075Y-24794470D01*
X264159013Y-24624446D01*
X264178991Y-24462509D01*
X264184145Y-24442698D01*
X265595652Y-24442698D01*
X265608817Y-24505026D01*
X265644591Y-24548818D01*
X265697393Y-24570701D01*
X265761639Y-24567302D01*
X265787713Y-24558753D01*
X265826911Y-24542976D01*
X265886153Y-24519183D01*
X265955767Y-24491257D01*
X265995778Y-24475220D01*
X266146570Y-24417487D01*
X266283908Y-24371531D01*
X266415031Y-24335964D01*
X266547174Y-24309395D01*
X266687574Y-24290436D01*
X266843468Y-24277697D01*
X267022092Y-24269791D01*
X267073527Y-24268345D01*
X267455058Y-24258640D01*
X267493660Y-24213734D01*
X267525652Y-24156055D01*
X267528384Y-24095878D01*
X267501895Y-24040627D01*
X267476267Y-24020503D01*
X267434433Y-24005595D01*
X267373556Y-23995667D01*
X267290797Y-23990485D01*
X267183321Y-23989811D01*
X267048288Y-23993411D01*
X266972086Y-23996623D01*
X266765956Y-24009746D01*
X266582159Y-24030184D01*
X266411578Y-24059967D01*
X266245098Y-24101130D01*
X266073601Y-24155703D01*
X265887972Y-24225718D01*
X265819872Y-24253463D01*
X265730467Y-24292572D01*
X265667573Y-24326141D01*
X265627005Y-24357703D01*
X265604576Y-24390792D01*
X265596101Y-24428940D01*
X265595652Y-24442698D01*
X264184145Y-24442698D01*
X264211062Y-24339241D01*
X264272569Y-24177398D01*
X264341625Y-24038425D01*
X264423930Y-23913233D01*
X264525189Y-23792734D01*
X264604855Y-23711669D01*
X264813143Y-23530532D01*
X265050135Y-23362812D01*
X265315332Y-23208817D01*
X265608234Y-23068857D01*
X265713567Y-23024716D01*
X265805970Y-22989250D01*
X265879233Y-22967131D01*
X265942659Y-22957028D01*
X266005557Y-22957611D01*
X266077231Y-22967550D01*
X266093066Y-22970473D01*
X266213503Y-23005635D01*
X266316031Y-23062925D01*
X266401977Y-23143919D01*
X266472671Y-23250189D01*
X266529440Y-23383311D01*
X266572199Y-23538414D01*
X266594178Y-23626992D01*
X266616460Y-23688265D01*
X266642380Y-23726794D01*
X266675274Y-23747142D01*
X266718475Y-23753868D01*
X266729782Y-23753973D01*
X266790769Y-23744449D01*
X266833624Y-23716070D01*
X266858634Y-23667279D01*
X266866082Y-23596523D01*
X266856254Y-23502247D01*
X266829433Y-23382897D01*
X266810209Y-23314907D01*
X266753685Y-23161305D01*
X266683032Y-23034622D01*
X266596626Y-22932311D01*
X266531947Y-22878183D01*
X266483932Y-22843208D01*
X266591140Y-22842701D01*
X266723324Y-22855565D01*
G37*
D13*
%TO.C,SW3*%
X16325000Y-25650000D02*
X18725000Y-25650000D01*
X16325000Y-29750000D02*
X16325000Y-25650000D01*
X16325000Y-33750000D02*
X16325000Y-37850000D01*
X16325000Y-37850000D02*
X28125000Y-37850000D01*
X20925000Y-25650000D02*
X23525000Y-25650000D01*
X25725000Y-25650000D02*
X28125000Y-25650000D01*
X28125000Y-25650000D02*
X28125000Y-29750000D01*
X28125000Y-33750000D02*
X28125000Y-37850000D01*
X24225000Y-31750000D02*
G75*
G02*
X20225000Y-31750000I-2000000J0D01*
G01*
X20225000Y-31750000D02*
G75*
G02*
X24225000Y-31750000I2000000J0D01*
G01*
X22225000Y-37648108D02*
X21985000Y-37318108D01*
X22465000Y-37318108D01*
X22225000Y-37648108D01*
G36*
X22225000Y-37648108D02*
G01*
X21985000Y-37318108D01*
X22465000Y-37318108D01*
X22225000Y-37648108D01*
G37*
%TO.C,SW6*%
X16325000Y-63750000D02*
X18725000Y-63750000D01*
X16325000Y-67850000D02*
X16325000Y-63750000D01*
X16325000Y-71850000D02*
X16325000Y-75950000D01*
X16325000Y-75950000D02*
X28125000Y-75950000D01*
X20925000Y-63750000D02*
X23525000Y-63750000D01*
X25725000Y-63750000D02*
X28125000Y-63750000D01*
X28125000Y-63750000D02*
X28125000Y-67850000D01*
X28125000Y-71850000D02*
X28125000Y-75950000D01*
X24225000Y-69850000D02*
G75*
G02*
X20225000Y-69850000I-2000000J0D01*
G01*
X20225000Y-69850000D02*
G75*
G02*
X24225000Y-69850000I2000000J0D01*
G01*
X22225000Y-75748108D02*
X21985000Y-75418108D01*
X22465000Y-75418108D01*
X22225000Y-75748108D01*
G36*
X22225000Y-75748108D02*
G01*
X21985000Y-75418108D01*
X22465000Y-75418108D01*
X22225000Y-75748108D01*
G37*
%TO.C,SW4*%
X16325000Y-44700000D02*
X18725000Y-44700000D01*
X16325000Y-48800000D02*
X16325000Y-44700000D01*
X16325000Y-52800000D02*
X16325000Y-56900000D01*
X16325000Y-56900000D02*
X28125000Y-56900000D01*
X20925000Y-44700000D02*
X23525000Y-44700000D01*
X25725000Y-44700000D02*
X28125000Y-44700000D01*
X28125000Y-44700000D02*
X28125000Y-48800000D01*
X28125000Y-52800000D02*
X28125000Y-56900000D01*
X24225000Y-50800000D02*
G75*
G02*
X20225000Y-50800000I-2000000J0D01*
G01*
X20225000Y-50800000D02*
G75*
G02*
X24225000Y-50800000I2000000J0D01*
G01*
X22225000Y-56698108D02*
X21985000Y-56368108D01*
X22465000Y-56368108D01*
X22225000Y-56698108D01*
G36*
X22225000Y-56698108D02*
G01*
X21985000Y-56368108D01*
X22465000Y-56368108D01*
X22225000Y-56698108D01*
G37*
D12*
%TO.C,G\u002A\u002A\u002A*%
G36*
X20490502Y-90613185D02*
G01*
X20597592Y-90720074D01*
X20697189Y-90870095D01*
X20771095Y-91040232D01*
X20775621Y-91054922D01*
X20807707Y-91228320D01*
X20826319Y-91470750D01*
X20831811Y-91758539D01*
X20824538Y-92068018D01*
X20804852Y-92375515D01*
X20773107Y-92657361D01*
X20749561Y-92798455D01*
X20707867Y-93003076D01*
X20653874Y-93252406D01*
X20591814Y-93528528D01*
X20525917Y-93813526D01*
X20460413Y-94089484D01*
X20399533Y-94338487D01*
X20347508Y-94542617D01*
X20308568Y-94683958D01*
X20293092Y-94731573D01*
X20247585Y-94812785D01*
X20212937Y-94837016D01*
X20164010Y-94799942D01*
X20120161Y-94731573D01*
X20014442Y-94441969D01*
X19954374Y-94084358D01*
X19939977Y-93655848D01*
X19971272Y-93153551D01*
X20048280Y-92574578D01*
X20139263Y-92072071D01*
X20189296Y-91792444D01*
X20234106Y-91491618D01*
X20268094Y-91210057D01*
X20283519Y-91029359D01*
X20298548Y-90816869D01*
X20315021Y-90681558D01*
X20336935Y-90606911D01*
X20368287Y-90576417D01*
X20394116Y-90572440D01*
X20490502Y-90613185D01*
G37*
G36*
X23455594Y-90438153D02*
G01*
X23576088Y-90466112D01*
X23655989Y-90521814D01*
X23712771Y-90610674D01*
X23736166Y-90664740D01*
X23784910Y-90856268D01*
X23758222Y-91006468D01*
X23652728Y-91118596D01*
X23465056Y-91195906D01*
X23191834Y-91241654D01*
X23132980Y-91246813D01*
X22785845Y-91286176D01*
X22523797Y-91345617D01*
X22339632Y-91428866D01*
X22226146Y-91539649D01*
X22176137Y-91681695D01*
X22172279Y-91744027D01*
X22194421Y-91887258D01*
X22266662Y-92001736D01*
X22397724Y-92091734D01*
X22596331Y-92161528D01*
X22871206Y-92215390D01*
X23217744Y-92256346D01*
X23534046Y-92299462D01*
X23769870Y-92365456D01*
X23937159Y-92461627D01*
X24047859Y-92595270D01*
X24113914Y-92773682D01*
X24121450Y-92808426D01*
X24118351Y-93027797D01*
X24025894Y-93254396D01*
X23847246Y-93480496D01*
X23844939Y-93482825D01*
X23673730Y-93633585D01*
X23441303Y-93807889D01*
X23171423Y-93989748D01*
X22887853Y-94163172D01*
X22614358Y-94312172D01*
X22606230Y-94316262D01*
X22456736Y-94394370D01*
X22250700Y-94506245D01*
X22012542Y-94638431D01*
X21766681Y-94777474D01*
X21702878Y-94814025D01*
X21486224Y-94936797D01*
X21296925Y-95040837D01*
X21150387Y-95117926D01*
X21062020Y-95159845D01*
X21044855Y-95165060D01*
X20989028Y-95127604D01*
X20970453Y-95093923D01*
X20969718Y-94965827D01*
X21045522Y-94798720D01*
X21192117Y-94598467D01*
X21403755Y-94370930D01*
X21674689Y-94121972D01*
X21999170Y-93857457D01*
X22371450Y-93583248D01*
X22613997Y-93417422D01*
X22855286Y-93254866D01*
X23068820Y-93107177D01*
X23242558Y-92982998D01*
X23364457Y-92890974D01*
X23422476Y-92839747D01*
X23425423Y-92834964D01*
X23405175Y-92793177D01*
X23312401Y-92750912D01*
X23141173Y-92706467D01*
X22885560Y-92658139D01*
X22711209Y-92629961D01*
X22434306Y-92579397D01*
X22225214Y-92519897D01*
X22058025Y-92441322D01*
X21906830Y-92333530D01*
X21867017Y-92299532D01*
X21698120Y-92121099D01*
X21602554Y-91933476D01*
X21565800Y-91703974D01*
X21564083Y-91617480D01*
X21606492Y-91300502D01*
X21729065Y-91029016D01*
X21928675Y-90805541D01*
X22202193Y-90632593D01*
X22546492Y-90512688D01*
X22958441Y-90448343D01*
X23022927Y-90443816D01*
X23277032Y-90432525D01*
X23455594Y-90438153D01*
G37*
G36*
X25423545Y-90549924D02*
G01*
X25553321Y-90609288D01*
X25565732Y-90616740D01*
X25698559Y-90676039D01*
X25782149Y-90664321D01*
X25887586Y-90632531D01*
X26042229Y-90621464D01*
X26203934Y-90630858D01*
X26330560Y-90660453D01*
X26346209Y-90667816D01*
X26421066Y-90741152D01*
X26420637Y-90846823D01*
X26343892Y-90993401D01*
X26299783Y-91054672D01*
X26165318Y-91232291D01*
X26343661Y-91499875D01*
X26605402Y-91926231D01*
X26795216Y-92317813D01*
X26918937Y-92692173D01*
X26982399Y-93066860D01*
X26991817Y-93449543D01*
X26980332Y-93679362D01*
X26962276Y-93842355D01*
X26932016Y-93965421D01*
X26883921Y-94075456D01*
X26846877Y-94141789D01*
X26668657Y-94383463D01*
X26444488Y-94594127D01*
X26201113Y-94751322D01*
X26046597Y-94813801D01*
X25757258Y-94872575D01*
X25483694Y-94863326D01*
X25249809Y-94807811D01*
X25001580Y-94685341D01*
X24774105Y-94484486D01*
X24578291Y-94220067D01*
X24425043Y-93906906D01*
X24325267Y-93559825D01*
X24323069Y-93548271D01*
X24299949Y-93309173D01*
X25034258Y-93309173D01*
X25039741Y-93426133D01*
X25069298Y-93569334D01*
X25090874Y-93654693D01*
X25192871Y-93935124D01*
X25333359Y-94130890D01*
X25513737Y-94243399D01*
X25706187Y-94274654D01*
X25892851Y-94250492D01*
X26040390Y-94168326D01*
X26048793Y-94161372D01*
X26241907Y-93940958D01*
X26380503Y-93661401D01*
X26459609Y-93343117D01*
X26474256Y-93006524D01*
X26419471Y-92672040D01*
X26415130Y-92656802D01*
X26347153Y-92456853D01*
X26257918Y-92241772D01*
X26156828Y-92029238D01*
X26053289Y-91836932D01*
X25956702Y-91682534D01*
X25876471Y-91583723D01*
X25829943Y-91556573D01*
X25783054Y-91594816D01*
X25704559Y-91696727D01*
X25606595Y-91843080D01*
X25501299Y-92014651D01*
X25400807Y-92192213D01*
X25317256Y-92356543D01*
X25297427Y-92400116D01*
X25225696Y-92584319D01*
X25151322Y-92808077D01*
X25096955Y-92998604D01*
X25053210Y-93179611D01*
X25034258Y-93309173D01*
X24299949Y-93309173D01*
X24290047Y-93206770D01*
X24304281Y-92825955D01*
X24362394Y-92445389D01*
X24441718Y-92157526D01*
X24556331Y-91889168D01*
X24713241Y-91604358D01*
X24892007Y-91335980D01*
X25072191Y-91116922D01*
X25115678Y-91073128D01*
X25202214Y-90976831D01*
X25235716Y-90884054D01*
X25231401Y-90749457D01*
X25229654Y-90733527D01*
X25219490Y-90605127D01*
X25234031Y-90544379D01*
X25283161Y-90526384D01*
X25312221Y-90525577D01*
X25423545Y-90549924D01*
G37*
G36*
X28608771Y-83888202D02*
G01*
X28796207Y-83895568D01*
X28976473Y-83908859D01*
X29138776Y-83927635D01*
X29272319Y-83951454D01*
X29283127Y-83953965D01*
X29672081Y-84066961D01*
X30041841Y-84215982D01*
X30392310Y-84400959D01*
X30723389Y-84621822D01*
X31034983Y-84878502D01*
X31326993Y-85170928D01*
X31599323Y-85499031D01*
X31769958Y-85737647D01*
X31831889Y-85836574D01*
X31904090Y-85963292D01*
X31981418Y-86107775D01*
X32058728Y-86259997D01*
X32130877Y-86409933D01*
X32192723Y-86547557D01*
X32222990Y-86620671D01*
X32364354Y-87028007D01*
X32476053Y-87459155D01*
X32557723Y-87909486D01*
X32608999Y-88374370D01*
X32629520Y-88849177D01*
X32618921Y-89329278D01*
X32576838Y-89810042D01*
X32508505Y-90257052D01*
X32424427Y-90638200D01*
X32311728Y-91035541D01*
X32173698Y-91439789D01*
X32013628Y-91841654D01*
X31834805Y-92231849D01*
X31749205Y-92400942D01*
X31536540Y-92787948D01*
X31304663Y-93170449D01*
X31051358Y-93551283D01*
X30774407Y-93933285D01*
X30471595Y-94319293D01*
X30140705Y-94712143D01*
X29779521Y-95114671D01*
X29385827Y-95529714D01*
X29004357Y-95913846D01*
X28870341Y-96045708D01*
X28741676Y-96171185D01*
X28615211Y-96293182D01*
X28487794Y-96414605D01*
X28356272Y-96538360D01*
X28217493Y-96667353D01*
X28068305Y-96804492D01*
X27905554Y-96952680D01*
X27726090Y-97114826D01*
X27526760Y-97293834D01*
X27304412Y-97492612D01*
X27055892Y-97714064D01*
X26935056Y-97821556D01*
X26634830Y-98089142D01*
X26363424Y-98332452D01*
X26118549Y-98553658D01*
X25897912Y-98754935D01*
X25699222Y-98938456D01*
X25520188Y-99106394D01*
X25358518Y-99260922D01*
X25211921Y-99404214D01*
X25078105Y-99538443D01*
X24954780Y-99665782D01*
X24839653Y-99788405D01*
X24730433Y-99908485D01*
X24706606Y-99935187D01*
X24490438Y-100186820D01*
X24304702Y-100422365D01*
X24145448Y-100647760D01*
X24008725Y-100868949D01*
X23890581Y-101091872D01*
X23792027Y-101310492D01*
X23747016Y-101414656D01*
X23710662Y-101487735D01*
X23678442Y-101537298D01*
X23645835Y-101570912D01*
X23628909Y-101583474D01*
X23573759Y-101615459D01*
X23525270Y-101625930D01*
X23465337Y-101617096D01*
X23430677Y-101607663D01*
X23398837Y-101595021D01*
X23365049Y-101572861D01*
X23324850Y-101536699D01*
X23273774Y-101482052D01*
X23207360Y-101404436D01*
X23121144Y-101299368D01*
X23109666Y-101285210D01*
X23024809Y-101186908D01*
X22926679Y-101085912D01*
X22812959Y-100980496D01*
X22681334Y-100868934D01*
X22529486Y-100749500D01*
X22355100Y-100620470D01*
X22155859Y-100480117D01*
X21929448Y-100326716D01*
X21673550Y-100158541D01*
X21385848Y-99973867D01*
X21146551Y-99822707D01*
X20790699Y-99598019D01*
X20468357Y-99391921D01*
X20177428Y-99203009D01*
X19915816Y-99029876D01*
X19681425Y-98871117D01*
X19472159Y-98725327D01*
X19285921Y-98591101D01*
X19120616Y-98467033D01*
X19094542Y-98446925D01*
X18637493Y-98078086D01*
X18219634Y-97709272D01*
X17839366Y-97338513D01*
X17495093Y-96963839D01*
X17185215Y-96583281D01*
X16908135Y-96194869D01*
X16662256Y-95796635D01*
X16445979Y-95386608D01*
X16257707Y-94962819D01*
X16247701Y-94937995D01*
X16105309Y-94556712D01*
X15988035Y-94183142D01*
X15894134Y-93808866D01*
X15821863Y-93425462D01*
X15769477Y-93024508D01*
X15735230Y-92597584D01*
X15726378Y-92421360D01*
X15719079Y-91867664D01*
X15721443Y-91817015D01*
X17440683Y-91817015D01*
X17456128Y-92268490D01*
X17502927Y-92709894D01*
X17581776Y-93142452D01*
X17693372Y-93567388D01*
X17838410Y-93985928D01*
X18017588Y-94399295D01*
X18231601Y-94808716D01*
X18481145Y-95215414D01*
X18766918Y-95620614D01*
X19089614Y-96025541D01*
X19449931Y-96431420D01*
X19848565Y-96839476D01*
X20286211Y-97250934D01*
X20763567Y-97667017D01*
X20768818Y-97671437D01*
X20843612Y-97733737D01*
X20944895Y-97817168D01*
X21067278Y-97917338D01*
X21205371Y-98029857D01*
X21353785Y-98150334D01*
X21507131Y-98274377D01*
X21660018Y-98397597D01*
X21667210Y-98403381D01*
X21817168Y-98524233D01*
X21965453Y-98644218D01*
X22107124Y-98759305D01*
X22237244Y-98865464D01*
X22350871Y-98958663D01*
X22443066Y-99034871D01*
X22508889Y-99090057D01*
X22514558Y-99094884D01*
X22654898Y-99218915D01*
X22793591Y-99349321D01*
X22924972Y-99480216D01*
X23043374Y-99605716D01*
X23143132Y-99719938D01*
X23218579Y-99816996D01*
X23239397Y-99847686D01*
X23282788Y-99912158D01*
X23318546Y-99959686D01*
X23340810Y-99982681D01*
X23344330Y-99983530D01*
X23358690Y-99960403D01*
X23370036Y-99925986D01*
X23394516Y-99855313D01*
X23437637Y-99758527D01*
X23495343Y-99643457D01*
X23563576Y-99517937D01*
X23638276Y-99389796D01*
X23696278Y-99296410D01*
X23844156Y-99077626D01*
X24021629Y-98836591D01*
X24226212Y-98576321D01*
X24455420Y-98299832D01*
X24706766Y-98010141D01*
X24977764Y-97710261D01*
X25197781Y-97474817D01*
X25488856Y-97167414D01*
X25753922Y-96886870D01*
X25995318Y-96630648D01*
X26215380Y-96396211D01*
X26416445Y-96181023D01*
X26600850Y-95982546D01*
X26770934Y-95798244D01*
X26929033Y-95625579D01*
X27077484Y-95462016D01*
X27218625Y-95305017D01*
X27354793Y-95152045D01*
X27488325Y-95000563D01*
X27621559Y-94848036D01*
X27681323Y-94779207D01*
X27849042Y-94581107D01*
X28031623Y-94357291D01*
X28222230Y-94116636D01*
X28414027Y-93868019D01*
X28600175Y-93620318D01*
X28773840Y-93382409D01*
X28928184Y-93163170D01*
X28946824Y-93135990D01*
X29139338Y-92842977D01*
X29329327Y-92532209D01*
X29512245Y-92212093D01*
X29683549Y-91891036D01*
X29838695Y-91577447D01*
X29973138Y-91279730D01*
X30045534Y-91103156D01*
X30222141Y-90602573D01*
X30358556Y-90105834D01*
X30454751Y-89613271D01*
X30510701Y-89125216D01*
X30526376Y-88642001D01*
X30501751Y-88163960D01*
X30436798Y-87691425D01*
X30355314Y-87315737D01*
X30247621Y-86953028D01*
X30115805Y-86619345D01*
X29960765Y-86315616D01*
X29783399Y-86042768D01*
X29584607Y-85801730D01*
X29365287Y-85593430D01*
X29126337Y-85418794D01*
X28868657Y-85278752D01*
X28593145Y-85174231D01*
X28300699Y-85106159D01*
X28201508Y-85091959D01*
X27873006Y-85072342D01*
X27540265Y-85092406D01*
X27204755Y-85151395D01*
X26867946Y-85248555D01*
X26531307Y-85383131D01*
X26196308Y-85554369D01*
X25864418Y-85761513D01*
X25537108Y-86003810D01*
X25215846Y-86280504D01*
X24902103Y-86590841D01*
X24597348Y-86934065D01*
X24584646Y-86949334D01*
X24429560Y-87145147D01*
X24280467Y-87350423D01*
X24140751Y-87559451D01*
X24013797Y-87766520D01*
X23902990Y-87965918D01*
X23811715Y-88151935D01*
X23743355Y-88318858D01*
X23709849Y-88425449D01*
X23685112Y-88515308D01*
X23659622Y-88600839D01*
X23638218Y-88665923D01*
X23635009Y-88674656D01*
X23571372Y-88804093D01*
X23494072Y-88896338D01*
X23405953Y-88950772D01*
X23309857Y-88966780D01*
X23208626Y-88943744D01*
X23105102Y-88881046D01*
X23026842Y-88806714D01*
X22979894Y-88745996D01*
X22931071Y-88668820D01*
X22886315Y-88586452D01*
X22851569Y-88510156D01*
X22832776Y-88451196D01*
X22831053Y-88435577D01*
X22822680Y-88388375D01*
X22800038Y-88313793D01*
X22766798Y-88221135D01*
X22726630Y-88119705D01*
X22683206Y-88018807D01*
X22640196Y-87927745D01*
X22604336Y-87860972D01*
X22436719Y-87613759D01*
X22241254Y-87391899D01*
X22021779Y-87198755D01*
X21782133Y-87037688D01*
X21526153Y-86912062D01*
X21516982Y-86908363D01*
X21218173Y-86809043D01*
X20919895Y-86750290D01*
X20623187Y-86732068D01*
X20329091Y-86754339D01*
X20038647Y-86817067D01*
X19752897Y-86920215D01*
X19635619Y-86975038D01*
X19354066Y-87137770D01*
X19085011Y-87337542D01*
X18830674Y-87571876D01*
X18593276Y-87838291D01*
X18375036Y-88134306D01*
X18178175Y-88457442D01*
X18012629Y-88788061D01*
X17850010Y-89192035D01*
X17713871Y-89625121D01*
X17604656Y-90084972D01*
X17522809Y-90569243D01*
X17468771Y-91075587D01*
X17442987Y-91601657D01*
X17440683Y-91817015D01*
X15721443Y-91817015D01*
X15744406Y-91325098D01*
X15801801Y-90795966D01*
X15890706Y-90282573D01*
X16010565Y-89787226D01*
X16160818Y-89312228D01*
X16340908Y-88859884D01*
X16550278Y-88432501D01*
X16788346Y-88032419D01*
X17051835Y-87662583D01*
X17340608Y-87318887D01*
X17652197Y-87003153D01*
X17984131Y-86717206D01*
X18333943Y-86462870D01*
X18699165Y-86241970D01*
X19077327Y-86056328D01*
X19465961Y-85907770D01*
X19788754Y-85815382D01*
X19939367Y-85788758D01*
X20119654Y-85773340D01*
X20320070Y-85768953D01*
X20531071Y-85775422D01*
X20743112Y-85792572D01*
X20946649Y-85820228D01*
X21044461Y-85838395D01*
X21301963Y-85903814D01*
X21573614Y-85995481D01*
X21847361Y-86108319D01*
X22111155Y-86237253D01*
X22352945Y-86377206D01*
X22407252Y-86412462D01*
X22553271Y-86518142D01*
X22701545Y-86640953D01*
X22846223Y-86774791D01*
X22981456Y-86913550D01*
X23101394Y-87051124D01*
X23200187Y-87181407D01*
X23271985Y-87298294D01*
X23288438Y-87332172D01*
X23314042Y-87383484D01*
X23334675Y-87414624D01*
X23340828Y-87418949D01*
X23357693Y-87402659D01*
X23385445Y-87361194D01*
X23402231Y-87332172D01*
X23444985Y-87260235D01*
X23507054Y-87163210D01*
X23583219Y-87048657D01*
X23668264Y-86924135D01*
X23756970Y-86797202D01*
X23844121Y-86675419D01*
X23924498Y-86566342D01*
X23987174Y-86484729D01*
X24322845Y-86086217D01*
X24676487Y-85716221D01*
X25046030Y-85376036D01*
X25429404Y-85066957D01*
X25824539Y-84790278D01*
X26229364Y-84547293D01*
X26641808Y-84339296D01*
X27059802Y-84167583D01*
X27481275Y-84033448D01*
X27904157Y-83938186D01*
X28111396Y-83906071D01*
X28255570Y-83893012D01*
X28424960Y-83887203D01*
X28608771Y-83888202D01*
G37*
D13*
%TO.C,SW5*%
X263975000Y-63750000D02*
X266375000Y-63750000D01*
X263975000Y-67850000D02*
X263975000Y-63750000D01*
X263975000Y-71850000D02*
X263975000Y-75950000D01*
X263975000Y-75950000D02*
X275775000Y-75950000D01*
X268575000Y-63750000D02*
X271175000Y-63750000D01*
X273375000Y-63750000D02*
X275775000Y-63750000D01*
X275775000Y-63750000D02*
X275775000Y-67850000D01*
X275775000Y-71850000D02*
X275775000Y-75950000D01*
X271875000Y-69850000D02*
G75*
G02*
X267875000Y-69850000I-2000000J0D01*
G01*
X267875000Y-69850000D02*
G75*
G02*
X271875000Y-69850000I2000000J0D01*
G01*
X269875000Y-75748108D02*
X269635000Y-75418108D01*
X270115000Y-75418108D01*
X269875000Y-75748108D01*
G36*
X269875000Y-75748108D02*
G01*
X269635000Y-75418108D01*
X270115000Y-75418108D01*
X269875000Y-75748108D01*
G37*
%TD*%
D14*
%TO.C,OL2*%
X18415000Y-79375000D03*
X20955000Y-79375000D03*
X23495000Y-79375000D03*
X26035000Y-79375000D03*
%TD*%
%TO.C,OL1*%
X26035000Y-23018750D03*
X23495000Y-23018750D03*
X20955000Y-23018750D03*
X18415000Y-23018750D03*
%TD*%
M02*
