%TF.GenerationSoftware,KiCad,Pcbnew,8.0.5*%
%TF.CreationDate,2024-09-30T13:42:21+02:00*%
%TF.ProjectId,plate,706c6174-652e-46b6-9963-61645f706362,rev?*%
%TF.SameCoordinates,Original*%
%TF.FileFunction,Profile,NP*%
%FSLAX46Y46*%
G04 Gerber Fmt 4.6, Leading zero omitted, Abs format (unit mm)*
G04 Created by KiCad (PCBNEW 8.0.5) date 2024-09-30 13:42:21*
%MOMM*%
%LPD*%
G01*
G04 APERTURE LIST*
%TA.AperFunction,Profile*%
%ADD10C,0.200000*%
%TD*%
%TA.AperFunction,Profile*%
%ADD11C,0.050000*%
%TD*%
G04 APERTURE END LIST*
D10*
X229537500Y-24750000D02*
X229537500Y-38750000D01*
X162575000Y-62850000D02*
X148575000Y-62850000D01*
D11*
X276812167Y-94129669D02*
X280351875Y-94129669D01*
X280351875Y-100223673D01*
X276812167Y-100223673D01*
X276812167Y-94129669D01*
D10*
X81900000Y-57800000D02*
X95900000Y-57800000D01*
X243825000Y-76850000D02*
X257825000Y-76850000D01*
X215250000Y-57800000D02*
X229250000Y-57800000D01*
X29225000Y-76850000D02*
X15225000Y-76850000D01*
X29225000Y-62850000D02*
X15225000Y-62850000D01*
X208106250Y-100662500D02*
X219725000Y-100662500D01*
X29225000Y-43800000D02*
X15225000Y-43800000D01*
X179531250Y-86662500D02*
X164956250Y-86662500D01*
X284162500Y-102372370D02*
X284162500Y-18277628D01*
X205725000Y-86662500D02*
X205725000Y-100662500D01*
X128262500Y-85662500D02*
X128262500Y-86662500D01*
X60181250Y-62850000D02*
X46181250Y-62850000D01*
X105712500Y-100662500D02*
X117618750Y-100662500D01*
X172387500Y-38750000D02*
X186387500Y-38750000D01*
X205725000Y-76850000D02*
X219725000Y-76850000D01*
X55418750Y-100662500D02*
X55418750Y-86662500D01*
X154312500Y-85662500D02*
X147312500Y-85662500D01*
X76850000Y-57800000D02*
X76850000Y-43800000D01*
X90162500Y-85662500D02*
X90162500Y-86662500D01*
X39037500Y-24750000D02*
X39037500Y-38750000D01*
X257825000Y-62850000D02*
X243825000Y-62850000D01*
X147312500Y-86662500D02*
X135262500Y-86662500D01*
X60468750Y-100662500D02*
X62850000Y-100662500D01*
X81900000Y-43800000D02*
X81900000Y-57800000D01*
X153050000Y-57800000D02*
X153050000Y-43800000D01*
X24450128Y-106437500D02*
G75*
G02*
X21950128Y-106437500I-1250000J0D01*
G01*
X21950128Y-106437500D02*
G75*
G02*
X24450128Y-106437500I1250000J0D01*
G01*
X281637500Y-62850000D02*
X267637500Y-62850000D01*
X147312500Y-100662500D02*
X150956250Y-100662500D01*
X19515128Y-11462500D02*
X26884872Y-11462500D01*
X148575000Y-62850000D02*
X148575000Y-76850000D01*
X243537500Y-38750000D02*
X243537500Y-24750000D01*
X28776383Y-108404011D02*
G75*
G02*
X26884872Y-109187481I-1891483J1891511D01*
G01*
X205725000Y-100662500D02*
X208106250Y-100662500D01*
X162862500Y-100662500D02*
X164956250Y-100662500D01*
X134000000Y-57800000D02*
X134000000Y-43800000D01*
X86375000Y-76850000D02*
X86375000Y-62850000D01*
D11*
X276968179Y-52470966D02*
X280244319Y-52470966D01*
X280244319Y-54685286D01*
X276968179Y-54685286D01*
X276968179Y-52470966D01*
D10*
X77137500Y-38750000D02*
X91137500Y-38750000D01*
X110475000Y-62850000D02*
X110475000Y-76850000D01*
X100950000Y-43800000D02*
X100950000Y-57800000D01*
X32948624Y-104232162D02*
X32948539Y-104231855D01*
X243537500Y-100662500D02*
X243537500Y-86662500D01*
D11*
X255670964Y-20586929D02*
X258679034Y-20586929D01*
X258679034Y-23863069D01*
X255670964Y-23863069D01*
X255670964Y-20586929D01*
D10*
X241156250Y-86662500D02*
X229537500Y-86662500D01*
X95900000Y-43800000D02*
X81900000Y-43800000D01*
X279256250Y-29512500D02*
X265256250Y-29512500D01*
X234300000Y-43800000D02*
X234300000Y-57800000D01*
X124475000Y-62850000D02*
X110475000Y-62850000D01*
X62850000Y-57800000D02*
X76850000Y-57800000D01*
X39037500Y-100662500D02*
X41418750Y-100662500D01*
D11*
X276968180Y-18335679D02*
X280244320Y-18335679D01*
X280244320Y-20549999D01*
X276968180Y-20549999D01*
X276968180Y-18335679D01*
D10*
X17623617Y-12245989D02*
G75*
G02*
X19515128Y-11462519I1891483J-1891511D01*
G01*
X219725000Y-76850000D02*
X219725000Y-62850000D01*
X205437500Y-38750000D02*
X205437500Y-24750000D01*
X91137500Y-38750000D02*
X91137500Y-24750000D01*
X15225000Y-38750000D02*
X29225000Y-38750000D01*
X119712500Y-100662500D02*
X128262500Y-100662500D01*
X72375000Y-62850000D02*
X72375000Y-76850000D01*
X115237500Y-38750000D02*
X129237500Y-38750000D01*
X248300000Y-57800000D02*
X248300000Y-43800000D01*
X229250000Y-43800000D02*
X215250000Y-43800000D01*
X164956250Y-86662500D02*
X162862500Y-86662500D01*
X210200000Y-43800000D02*
X196200000Y-43800000D01*
X229537500Y-38750000D02*
X243537500Y-38750000D01*
X172100000Y-57800000D02*
X172100000Y-43800000D01*
X243537500Y-86662500D02*
X241156250Y-86662500D01*
X185412500Y-100662500D02*
X192412500Y-100662500D01*
X72087500Y-24750000D02*
X58087500Y-24750000D01*
X264256250Y-28074500D02*
X279256250Y-28074500D01*
X264256250Y-44950500D02*
X264256250Y-51950500D01*
X243537500Y-24750000D02*
X229537500Y-24750000D01*
X200675000Y-62850000D02*
X186675000Y-62850000D01*
X268086116Y-108404010D02*
X263945989Y-104263883D01*
X53037500Y-38750000D02*
X53037500Y-24750000D01*
X191150000Y-57800000D02*
X191150000Y-43800000D01*
X135262500Y-85662500D02*
X135262500Y-86662500D01*
X100950000Y-57800000D02*
X114950000Y-57800000D01*
X29225000Y-57800000D02*
X29225000Y-43800000D01*
X86375000Y-62850000D02*
X72375000Y-62850000D01*
X35515127Y-103187500D02*
X261347370Y-103187500D01*
X24449872Y-14212500D02*
G75*
G02*
X21949872Y-14212500I-1250000J0D01*
G01*
X21949872Y-14212500D02*
G75*
G02*
X24449872Y-14212500I1250000J0D01*
G01*
X17623616Y-108404010D02*
X13483489Y-104263883D01*
X29225000Y-24750000D02*
X15225000Y-24750000D01*
X53037500Y-86662500D02*
X41418750Y-86662500D01*
X191150000Y-43800000D02*
X177150000Y-43800000D01*
X265256250Y-43512500D02*
X279256250Y-43512500D01*
X15225000Y-43800000D02*
X15225000Y-57800000D01*
X238775000Y-76850000D02*
X238775000Y-62850000D01*
X191437500Y-38750000D02*
X205437500Y-38750000D01*
X13483490Y-16386116D02*
X17623617Y-12245989D01*
X229537500Y-100662500D02*
X241156250Y-100662500D01*
D11*
X255670964Y-30111929D02*
X258679034Y-30111929D01*
X258679034Y-33388069D01*
X255670964Y-33388069D01*
X255670964Y-30111929D01*
D10*
X119712500Y-86662500D02*
X117618750Y-86662500D01*
X129525000Y-76850000D02*
X143525000Y-76850000D01*
X134287500Y-38750000D02*
X148287500Y-38750000D01*
X172387500Y-24750000D02*
X172387500Y-38750000D01*
X117618750Y-100662500D02*
X119712500Y-100662500D01*
X26884872Y-109187500D02*
X19515128Y-109187500D01*
X129525000Y-62850000D02*
X129525000Y-76850000D01*
X76850000Y-100662500D02*
X76850000Y-86662500D01*
X41418750Y-57800000D02*
X55418750Y-57800000D01*
X167625000Y-76850000D02*
X181625000Y-76850000D01*
X62850000Y-43800000D02*
X62850000Y-57800000D01*
X193531250Y-100662500D02*
X193531250Y-86662500D01*
X35515130Y-17462500D02*
G75*
G02*
X32916497Y-16386131I-30J3675000D01*
G01*
X283378997Y-16386103D02*
G75*
G02*
X284162522Y-18277628I-1891597J-1891597D01*
G01*
X12700000Y-18277628D02*
G75*
G02*
X13483491Y-16386117I2675000J-2D01*
G01*
X153050000Y-43800000D02*
X139050000Y-43800000D01*
X105712500Y-86662500D02*
X97162500Y-86662500D01*
X185412500Y-86662500D02*
X179531250Y-86662500D01*
X186675000Y-76850000D02*
X200675000Y-76850000D01*
X177150000Y-57800000D02*
X191150000Y-57800000D01*
X90162500Y-100662500D02*
X97162500Y-100662500D01*
X110187500Y-38750000D02*
X110187500Y-24750000D01*
X91425000Y-76850000D02*
X105425000Y-76850000D01*
X193531250Y-86662500D02*
X192412500Y-86662500D01*
X110187500Y-24750000D02*
X96187500Y-24750000D01*
X60181250Y-76850000D02*
X60181250Y-62850000D01*
X283379007Y-104263887D02*
X279238882Y-108404012D01*
X219725000Y-86662500D02*
X208106250Y-86662500D01*
X279256250Y-21074500D02*
X264256250Y-21074500D01*
X269977628Y-11462500D02*
X277347370Y-11462500D01*
X243825000Y-62850000D02*
X243825000Y-76850000D01*
X19515128Y-109187500D02*
G75*
G02*
X17623602Y-108404024I-28J2675000D01*
G01*
D11*
X280277216Y-30111931D02*
X283285286Y-30111931D01*
X283285286Y-33388071D01*
X280277216Y-33388071D01*
X280277216Y-30111931D01*
D10*
X205725000Y-62850000D02*
X205725000Y-76850000D01*
X279256250Y-28074500D02*
X279256250Y-21074500D01*
X76850000Y-43800000D02*
X62850000Y-43800000D01*
X46181250Y-76850000D02*
X60181250Y-76850000D01*
D11*
X280277216Y-39636931D02*
X283285286Y-39636931D01*
X283285286Y-42913071D01*
X280277216Y-42913071D01*
X280277216Y-39636931D01*
D10*
X229250000Y-57800000D02*
X229250000Y-43800000D01*
X224775000Y-76850000D02*
X238775000Y-76850000D01*
X154312500Y-86662500D02*
X154312500Y-85662500D01*
X41418750Y-43800000D02*
X41418750Y-57800000D01*
X55418750Y-43800000D02*
X41418750Y-43800000D01*
X41418750Y-86662500D02*
X39037500Y-86662500D01*
X129237500Y-38750000D02*
X129237500Y-24750000D01*
X58087500Y-24750000D02*
X58087500Y-38750000D01*
X264256250Y-51950500D02*
X279256250Y-51950500D01*
X248300000Y-43800000D02*
X234300000Y-43800000D01*
X128262500Y-100662500D02*
X131618750Y-100662500D01*
X181625000Y-62850000D02*
X167625000Y-62850000D01*
X257825000Y-76850000D02*
X257825000Y-62850000D01*
X186387500Y-38750000D02*
X186387500Y-24750000D01*
X229537500Y-86662500D02*
X227156250Y-86662500D01*
X148287500Y-38750000D02*
X148287500Y-24750000D01*
X53037500Y-100662500D02*
X55418750Y-100662500D01*
X192412500Y-86662500D02*
X192412500Y-85662500D01*
X238775000Y-62850000D02*
X224775000Y-62850000D01*
X210487500Y-24750000D02*
X210487500Y-38750000D01*
X279256250Y-43512500D02*
X279256250Y-29512500D01*
X124475000Y-76850000D02*
X124475000Y-62850000D01*
X60468750Y-86662500D02*
X60468750Y-100662500D01*
X128262500Y-86662500D02*
X119712500Y-86662500D01*
X222106250Y-100662500D02*
X222106250Y-86662500D01*
X196200000Y-57800000D02*
X210200000Y-57800000D01*
X219725000Y-100662500D02*
X222106250Y-100662500D01*
X96187500Y-38750000D02*
X110187500Y-38750000D01*
X97162500Y-86662500D02*
X97162500Y-85662500D01*
X134000000Y-43800000D02*
X120000000Y-43800000D01*
X39037500Y-86662500D02*
X39037500Y-100662500D01*
X39037500Y-38750000D02*
X53037500Y-38750000D01*
X105425000Y-62850000D02*
X91425000Y-62850000D01*
X150956250Y-100662500D02*
X154312500Y-100662500D01*
X274912372Y-14212500D02*
G75*
G02*
X272412372Y-14212500I-1250000J0D01*
G01*
X272412372Y-14212500D02*
G75*
G02*
X274912372Y-14212500I1250000J0D01*
G01*
D11*
X261227214Y-39636929D02*
X264235284Y-39636929D01*
X264235284Y-42913069D01*
X261227214Y-42913069D01*
X261227214Y-39636929D01*
D10*
X76850000Y-86662500D02*
X74468750Y-86662500D01*
X114950000Y-43800000D02*
X100950000Y-43800000D01*
X91137500Y-24750000D02*
X77137500Y-24750000D01*
X279256250Y-51950500D02*
X279256250Y-44950500D01*
X58087500Y-38750000D02*
X72087500Y-38750000D01*
X281637500Y-76850000D02*
X281637500Y-62850000D01*
X139050000Y-57800000D02*
X153050000Y-57800000D01*
X135262500Y-85662500D02*
X128262500Y-85662500D01*
X224487500Y-24750000D02*
X210487500Y-24750000D01*
X53037500Y-24750000D02*
X39037500Y-24750000D01*
X261347372Y-17462500D02*
X35515130Y-17462500D01*
X279238887Y-12245993D02*
X283378997Y-16386103D01*
X97162500Y-85662500D02*
X90162500Y-85662500D01*
X267637500Y-76850000D02*
X281637500Y-76850000D01*
X105425000Y-76850000D02*
X105425000Y-62850000D01*
X268086117Y-12245989D02*
G75*
G02*
X269977628Y-11462519I1891483J-1891511D01*
G01*
X96187500Y-24750000D02*
X96187500Y-38750000D01*
X158100000Y-57800000D02*
X172100000Y-57800000D01*
X265256250Y-29512500D02*
X265256250Y-43512500D01*
D11*
X264217610Y-18256250D02*
X267493750Y-18256250D01*
X267493750Y-20470570D01*
X264217610Y-20470570D01*
X264217610Y-18256250D01*
D10*
X167337500Y-24750000D02*
X153337500Y-24750000D01*
X222106250Y-86662500D02*
X219725000Y-86662500D01*
X72087500Y-38750000D02*
X72087500Y-24750000D01*
X215250000Y-43800000D02*
X215250000Y-57800000D01*
X15225000Y-24750000D02*
X15225000Y-38750000D01*
X219725000Y-62850000D02*
X205725000Y-62850000D01*
X158100000Y-43800000D02*
X158100000Y-57800000D01*
X46181250Y-62850000D02*
X46181250Y-76850000D01*
X192412500Y-100662500D02*
X193531250Y-100662500D01*
X139050000Y-43800000D02*
X139050000Y-57800000D01*
X186675000Y-62850000D02*
X186675000Y-76850000D01*
X200675000Y-76850000D02*
X200675000Y-62850000D01*
X234300000Y-57800000D02*
X248300000Y-57800000D01*
X185412500Y-85662500D02*
X185412500Y-86662500D01*
X179531250Y-100662500D02*
X185412500Y-100662500D01*
X191437500Y-24750000D02*
X191437500Y-38750000D01*
X55418750Y-86662500D02*
X53037500Y-86662500D01*
X210200000Y-57800000D02*
X210200000Y-43800000D01*
X177150000Y-43800000D02*
X177150000Y-57800000D01*
X181625000Y-76850000D02*
X181625000Y-62850000D01*
X134287500Y-24750000D02*
X134287500Y-38750000D01*
X277347370Y-11462500D02*
G75*
G02*
X279238901Y-12245979I30J-2675000D01*
G01*
X90162500Y-86662500D02*
X89043750Y-86662500D01*
X12700000Y-102372372D02*
X12700000Y-18277628D01*
X267637500Y-62850000D02*
X267637500Y-76850000D01*
X167337500Y-38750000D02*
X167337500Y-24750000D01*
X147312500Y-86662500D02*
X147312500Y-85662500D01*
X227156250Y-100662500D02*
X229537500Y-100662500D01*
X26884872Y-11462500D02*
G75*
G02*
X28776398Y-12245976I28J-2675000D01*
G01*
X62850000Y-100662500D02*
X74468750Y-100662500D01*
X114950000Y-57800000D02*
X114950000Y-43800000D01*
X224487500Y-38750000D02*
X224487500Y-24750000D01*
X91425000Y-62850000D02*
X91425000Y-76850000D01*
X224775000Y-62850000D02*
X224775000Y-76850000D01*
X162862500Y-86662500D02*
X154312500Y-86662500D01*
X120000000Y-43800000D02*
X120000000Y-57800000D01*
X172100000Y-43800000D02*
X158100000Y-43800000D01*
X74468750Y-100662500D02*
X76850000Y-100662500D01*
X263945988Y-16386118D02*
G75*
G02*
X261347372Y-17462480I-2598588J2598618D01*
G01*
X131618750Y-100662500D02*
X147312500Y-100662500D01*
X29225000Y-76850000D02*
X29225000Y-62850000D01*
X117618750Y-86662500D02*
X105712500Y-86662500D01*
X55418750Y-57800000D02*
X55418750Y-43800000D01*
X210487500Y-38750000D02*
X224487500Y-38750000D01*
X164956250Y-100662500D02*
X179531250Y-100662500D01*
X186387500Y-24750000D02*
X172387500Y-24750000D01*
X97162500Y-100662500D02*
X105712500Y-100662500D01*
X143525000Y-76850000D02*
X143525000Y-62850000D01*
X154312500Y-100662500D02*
X162862500Y-100662500D01*
D11*
X264268179Y-52470966D02*
X267544319Y-52470966D01*
X267544319Y-54685286D01*
X264268179Y-54685286D01*
X264268179Y-52470966D01*
D10*
X279238882Y-108404012D02*
G75*
G02*
X277347380Y-109187481I-1891482J1891512D01*
G01*
X269977628Y-109187500D02*
G75*
G02*
X268086102Y-108404024I-28J2675000D01*
G01*
X120000000Y-57800000D02*
X134000000Y-57800000D01*
X89043750Y-100662500D02*
X90162500Y-100662500D01*
X284162500Y-102372370D02*
G75*
G02*
X283379021Y-104263901I-2675000J-30D01*
G01*
X115237500Y-24750000D02*
X115237500Y-38750000D01*
X148287500Y-24750000D02*
X134287500Y-24750000D01*
X41418750Y-100662500D02*
X53037500Y-100662500D01*
X110475000Y-76850000D02*
X124475000Y-76850000D01*
X32948539Y-104231855D02*
X28776383Y-108404011D01*
X279256250Y-44950500D02*
X264256250Y-44950500D01*
X167625000Y-62850000D02*
X167625000Y-76850000D01*
X28776384Y-12245990D02*
X32916511Y-16386117D01*
X162575000Y-76850000D02*
X162575000Y-62850000D01*
X89043750Y-86662500D02*
X89043750Y-100662500D01*
X77137500Y-24750000D02*
X77137500Y-38750000D01*
X274912628Y-106437500D02*
G75*
G02*
X272412628Y-106437500I-1250000J0D01*
G01*
X272412628Y-106437500D02*
G75*
G02*
X274912628Y-106437500I1250000J0D01*
G01*
X15225000Y-57800000D02*
X29225000Y-57800000D01*
X32948624Y-104232162D02*
G75*
G02*
X35515127Y-103187479I2566576J-2630438D01*
G01*
X227156250Y-86662500D02*
X227156250Y-100662500D01*
X62850000Y-86662500D02*
X60468750Y-86662500D01*
X74468750Y-86662500D02*
X62850000Y-86662500D01*
X129237500Y-24750000D02*
X115237500Y-24750000D01*
X153337500Y-24750000D02*
X153337500Y-38750000D01*
X208106250Y-86662500D02*
X205725000Y-86662500D01*
X29225000Y-38750000D02*
X29225000Y-24750000D01*
X72375000Y-76850000D02*
X86375000Y-76850000D01*
X263945988Y-16386118D02*
X268086117Y-12245989D01*
X15225000Y-62850000D02*
X15225000Y-76850000D01*
X196200000Y-43800000D02*
X196200000Y-57800000D01*
X205437500Y-24750000D02*
X191437500Y-24750000D01*
X13483489Y-104263883D02*
G75*
G02*
X12700019Y-102372372I1891511J1891483D01*
G01*
X241156250Y-100662500D02*
X243537500Y-100662500D01*
X153337500Y-38750000D02*
X167337500Y-38750000D01*
X264256250Y-21074500D02*
X264256250Y-28074500D01*
X95900000Y-57800000D02*
X95900000Y-43800000D01*
X143525000Y-62850000D02*
X129525000Y-62850000D01*
X277347380Y-109187500D02*
X269977628Y-109187500D01*
X261347370Y-103187500D02*
G75*
G02*
X263946003Y-104263869I30J-3675000D01*
G01*
X192412500Y-85662500D02*
X185412500Y-85662500D01*
X148575000Y-76850000D02*
X162575000Y-76850000D01*
M02*
