%TF.GenerationSoftware,KiCad,Pcbnew,8.0.5*%
%TF.CreationDate,2024-09-30T13:42:21+02:00*%
%TF.ProjectId,plate,706c6174-652e-46b6-9963-61645f706362,rev?*%
%TF.SameCoordinates,Original*%
%TF.FileFunction,Legend,Top*%
%TF.FilePolarity,Positive*%
%FSLAX46Y46*%
G04 Gerber Fmt 4.6, Leading zero omitted, Abs format (unit mm)*
G04 Created by KiCad (PCBNEW 8.0.5) date 2024-09-30 13:42:21*
%MOMM*%
%LPD*%
G01*
G04 APERTURE LIST*
%ADD10C,0.000000*%
G04 APERTURE END LIST*
D10*
%TO.C,G\u002A\u002A\u002A*%
G36*
X22078002Y-89025685D02*
G01*
X22185092Y-89132574D01*
X22284689Y-89282595D01*
X22358595Y-89452732D01*
X22363121Y-89467422D01*
X22395207Y-89640820D01*
X22413819Y-89883250D01*
X22419311Y-90171039D01*
X22412038Y-90480518D01*
X22392352Y-90788015D01*
X22360607Y-91069861D01*
X22337061Y-91210955D01*
X22295367Y-91415576D01*
X22241374Y-91664906D01*
X22179314Y-91941028D01*
X22113417Y-92226026D01*
X22047913Y-92501984D01*
X21987033Y-92750987D01*
X21935008Y-92955117D01*
X21896068Y-93096458D01*
X21880592Y-93144073D01*
X21835085Y-93225285D01*
X21800437Y-93249516D01*
X21751510Y-93212442D01*
X21707661Y-93144073D01*
X21601942Y-92854469D01*
X21541874Y-92496858D01*
X21527477Y-92068348D01*
X21558772Y-91566051D01*
X21635780Y-90987078D01*
X21726763Y-90484571D01*
X21776796Y-90204944D01*
X21821606Y-89904118D01*
X21855594Y-89622557D01*
X21871019Y-89441859D01*
X21886048Y-89229369D01*
X21902521Y-89094058D01*
X21924435Y-89019411D01*
X21955787Y-88988917D01*
X21981616Y-88984940D01*
X22078002Y-89025685D01*
G37*
G36*
X25043094Y-88850653D02*
G01*
X25163588Y-88878612D01*
X25243489Y-88934314D01*
X25300271Y-89023174D01*
X25323666Y-89077240D01*
X25372410Y-89268768D01*
X25345722Y-89418968D01*
X25240228Y-89531096D01*
X25052556Y-89608406D01*
X24779334Y-89654154D01*
X24720480Y-89659313D01*
X24373345Y-89698676D01*
X24111297Y-89758117D01*
X23927132Y-89841366D01*
X23813646Y-89952149D01*
X23763637Y-90094195D01*
X23759779Y-90156527D01*
X23781921Y-90299758D01*
X23854162Y-90414236D01*
X23985224Y-90504234D01*
X24183831Y-90574028D01*
X24458706Y-90627890D01*
X24805244Y-90668846D01*
X25121546Y-90711962D01*
X25357370Y-90777956D01*
X25524659Y-90874127D01*
X25635359Y-91007770D01*
X25701414Y-91186182D01*
X25708950Y-91220926D01*
X25705851Y-91440297D01*
X25613394Y-91666896D01*
X25434746Y-91892996D01*
X25432439Y-91895325D01*
X25261230Y-92046085D01*
X25028803Y-92220389D01*
X24758923Y-92402248D01*
X24475353Y-92575672D01*
X24201858Y-92724672D01*
X24193730Y-92728762D01*
X24044236Y-92806870D01*
X23838200Y-92918745D01*
X23600042Y-93050931D01*
X23354181Y-93189974D01*
X23290378Y-93226525D01*
X23073724Y-93349297D01*
X22884425Y-93453337D01*
X22737887Y-93530426D01*
X22649520Y-93572345D01*
X22632355Y-93577560D01*
X22576528Y-93540104D01*
X22557953Y-93506423D01*
X22557218Y-93378327D01*
X22633022Y-93211220D01*
X22779617Y-93010967D01*
X22991255Y-92783430D01*
X23262189Y-92534472D01*
X23586670Y-92269957D01*
X23958950Y-91995748D01*
X24201497Y-91829922D01*
X24442786Y-91667366D01*
X24656320Y-91519677D01*
X24830058Y-91395498D01*
X24951957Y-91303474D01*
X25009976Y-91252247D01*
X25012923Y-91247464D01*
X24992675Y-91205677D01*
X24899901Y-91163412D01*
X24728673Y-91118967D01*
X24473060Y-91070639D01*
X24298709Y-91042461D01*
X24021806Y-90991897D01*
X23812714Y-90932397D01*
X23645525Y-90853822D01*
X23494330Y-90746030D01*
X23454517Y-90712032D01*
X23285620Y-90533599D01*
X23190054Y-90345976D01*
X23153300Y-90116474D01*
X23151583Y-90029980D01*
X23193992Y-89713002D01*
X23316565Y-89441516D01*
X23516175Y-89218041D01*
X23789693Y-89045093D01*
X24133992Y-88925188D01*
X24545941Y-88860843D01*
X24610427Y-88856316D01*
X24864532Y-88845025D01*
X25043094Y-88850653D01*
G37*
G36*
X27011045Y-88962424D02*
G01*
X27140821Y-89021788D01*
X27153232Y-89029240D01*
X27286059Y-89088539D01*
X27369649Y-89076821D01*
X27475086Y-89045031D01*
X27629729Y-89033964D01*
X27791434Y-89043358D01*
X27918060Y-89072953D01*
X27933709Y-89080316D01*
X28008566Y-89153652D01*
X28008137Y-89259323D01*
X27931392Y-89405901D01*
X27887283Y-89467172D01*
X27752818Y-89644791D01*
X27931161Y-89912375D01*
X28192902Y-90338731D01*
X28382716Y-90730313D01*
X28506437Y-91104673D01*
X28569899Y-91479360D01*
X28579317Y-91862043D01*
X28567832Y-92091862D01*
X28549776Y-92254855D01*
X28519516Y-92377921D01*
X28471421Y-92487956D01*
X28434377Y-92554289D01*
X28256157Y-92795963D01*
X28031988Y-93006627D01*
X27788613Y-93163822D01*
X27634097Y-93226301D01*
X27344758Y-93285075D01*
X27071194Y-93275826D01*
X26837309Y-93220311D01*
X26589080Y-93097841D01*
X26361605Y-92896986D01*
X26165791Y-92632567D01*
X26012543Y-92319406D01*
X25912767Y-91972325D01*
X25910569Y-91960771D01*
X25887449Y-91721673D01*
X26621758Y-91721673D01*
X26627241Y-91838633D01*
X26656798Y-91981834D01*
X26678374Y-92067193D01*
X26780371Y-92347624D01*
X26920859Y-92543390D01*
X27101237Y-92655899D01*
X27293687Y-92687154D01*
X27480351Y-92662992D01*
X27627890Y-92580826D01*
X27636293Y-92573872D01*
X27829407Y-92353458D01*
X27968003Y-92073901D01*
X28047109Y-91755617D01*
X28061756Y-91419024D01*
X28006971Y-91084540D01*
X28002630Y-91069302D01*
X27934653Y-90869353D01*
X27845418Y-90654272D01*
X27744328Y-90441738D01*
X27640789Y-90249432D01*
X27544202Y-90095034D01*
X27463971Y-89996223D01*
X27417443Y-89969073D01*
X27370554Y-90007316D01*
X27292059Y-90109227D01*
X27194095Y-90255580D01*
X27088799Y-90427151D01*
X26988307Y-90604713D01*
X26904756Y-90769043D01*
X26884927Y-90812616D01*
X26813196Y-90996819D01*
X26738822Y-91220577D01*
X26684455Y-91411104D01*
X26640710Y-91592111D01*
X26621758Y-91721673D01*
X25887449Y-91721673D01*
X25877547Y-91619270D01*
X25891781Y-91238455D01*
X25949894Y-90857889D01*
X26029218Y-90570026D01*
X26143831Y-90301668D01*
X26300741Y-90016858D01*
X26479507Y-89748480D01*
X26659691Y-89529422D01*
X26703178Y-89485628D01*
X26789714Y-89389331D01*
X26823216Y-89296554D01*
X26818901Y-89161957D01*
X26817154Y-89146027D01*
X26806990Y-89017627D01*
X26821531Y-88956879D01*
X26870661Y-88938884D01*
X26899721Y-88938077D01*
X27011045Y-88962424D01*
G37*
G36*
X30196271Y-82300702D02*
G01*
X30383707Y-82308068D01*
X30563973Y-82321359D01*
X30726276Y-82340135D01*
X30859819Y-82363954D01*
X30870627Y-82366465D01*
X31259581Y-82479461D01*
X31629341Y-82628482D01*
X31979810Y-82813459D01*
X32310889Y-83034322D01*
X32622483Y-83291002D01*
X32914493Y-83583428D01*
X33186823Y-83911531D01*
X33357458Y-84150147D01*
X33419389Y-84249074D01*
X33491590Y-84375792D01*
X33568918Y-84520275D01*
X33646228Y-84672497D01*
X33718377Y-84822433D01*
X33780223Y-84960057D01*
X33810490Y-85033171D01*
X33951854Y-85440507D01*
X34063553Y-85871655D01*
X34145223Y-86321986D01*
X34196499Y-86786870D01*
X34217020Y-87261677D01*
X34206421Y-87741778D01*
X34164338Y-88222542D01*
X34096005Y-88669552D01*
X34011927Y-89050700D01*
X33899228Y-89448041D01*
X33761198Y-89852289D01*
X33601128Y-90254154D01*
X33422305Y-90644349D01*
X33336705Y-90813442D01*
X33124040Y-91200448D01*
X32892163Y-91582949D01*
X32638858Y-91963783D01*
X32361907Y-92345785D01*
X32059095Y-92731793D01*
X31728205Y-93124643D01*
X31367021Y-93527171D01*
X30973327Y-93942214D01*
X30591857Y-94326346D01*
X30457841Y-94458208D01*
X30329176Y-94583685D01*
X30202711Y-94705682D01*
X30075294Y-94827105D01*
X29943772Y-94950860D01*
X29804993Y-95079853D01*
X29655805Y-95216992D01*
X29493054Y-95365180D01*
X29313590Y-95527326D01*
X29114260Y-95706334D01*
X28891912Y-95905112D01*
X28643392Y-96126564D01*
X28522556Y-96234056D01*
X28222330Y-96501642D01*
X27950924Y-96744952D01*
X27706049Y-96966158D01*
X27485412Y-97167435D01*
X27286722Y-97350956D01*
X27107688Y-97518894D01*
X26946018Y-97673422D01*
X26799421Y-97816714D01*
X26665605Y-97950943D01*
X26542280Y-98078282D01*
X26427153Y-98200905D01*
X26317933Y-98320985D01*
X26294106Y-98347687D01*
X26077938Y-98599320D01*
X25892202Y-98834865D01*
X25732948Y-99060260D01*
X25596225Y-99281449D01*
X25478081Y-99504372D01*
X25379527Y-99722992D01*
X25334516Y-99827156D01*
X25298162Y-99900235D01*
X25265942Y-99949798D01*
X25233335Y-99983412D01*
X25216409Y-99995974D01*
X25161259Y-100027959D01*
X25112770Y-100038430D01*
X25052837Y-100029596D01*
X25018177Y-100020163D01*
X24986337Y-100007521D01*
X24952549Y-99985361D01*
X24912350Y-99949199D01*
X24861274Y-99894552D01*
X24794860Y-99816936D01*
X24708644Y-99711868D01*
X24697166Y-99697710D01*
X24612309Y-99599408D01*
X24514179Y-99498412D01*
X24400459Y-99392996D01*
X24268834Y-99281434D01*
X24116986Y-99162000D01*
X23942600Y-99032970D01*
X23743359Y-98892617D01*
X23516948Y-98739216D01*
X23261050Y-98571041D01*
X22973348Y-98386367D01*
X22734051Y-98235207D01*
X22378199Y-98010519D01*
X22055857Y-97804421D01*
X21764928Y-97615509D01*
X21503316Y-97442376D01*
X21268925Y-97283617D01*
X21059659Y-97137827D01*
X20873421Y-97003601D01*
X20708116Y-96879533D01*
X20682042Y-96859425D01*
X20224993Y-96490586D01*
X19807134Y-96121772D01*
X19426866Y-95751013D01*
X19082593Y-95376339D01*
X18772715Y-94995781D01*
X18495635Y-94607369D01*
X18249756Y-94209135D01*
X18033479Y-93799108D01*
X17845207Y-93375319D01*
X17835201Y-93350495D01*
X17692809Y-92969212D01*
X17575535Y-92595642D01*
X17481634Y-92221366D01*
X17409363Y-91837962D01*
X17356977Y-91437008D01*
X17322730Y-91010084D01*
X17313878Y-90833860D01*
X17306579Y-90280164D01*
X17308943Y-90229515D01*
X19028183Y-90229515D01*
X19043628Y-90680990D01*
X19090427Y-91122394D01*
X19169276Y-91554952D01*
X19280872Y-91979888D01*
X19425910Y-92398428D01*
X19605088Y-92811795D01*
X19819101Y-93221216D01*
X20068645Y-93627914D01*
X20354418Y-94033114D01*
X20677114Y-94438041D01*
X21037431Y-94843920D01*
X21436065Y-95251976D01*
X21873711Y-95663434D01*
X22351067Y-96079517D01*
X22356318Y-96083937D01*
X22431112Y-96146237D01*
X22532395Y-96229668D01*
X22654778Y-96329838D01*
X22792871Y-96442357D01*
X22941285Y-96562834D01*
X23094631Y-96686877D01*
X23247518Y-96810097D01*
X23254710Y-96815881D01*
X23404668Y-96936733D01*
X23552953Y-97056718D01*
X23694624Y-97171805D01*
X23824744Y-97277964D01*
X23938371Y-97371163D01*
X24030566Y-97447371D01*
X24096389Y-97502557D01*
X24102058Y-97507384D01*
X24242398Y-97631415D01*
X24381091Y-97761821D01*
X24512472Y-97892716D01*
X24630874Y-98018216D01*
X24730632Y-98132438D01*
X24806079Y-98229496D01*
X24826897Y-98260186D01*
X24870288Y-98324658D01*
X24906046Y-98372186D01*
X24928310Y-98395181D01*
X24931830Y-98396030D01*
X24946190Y-98372903D01*
X24957536Y-98338486D01*
X24982016Y-98267813D01*
X25025137Y-98171027D01*
X25082843Y-98055957D01*
X25151076Y-97930437D01*
X25225776Y-97802296D01*
X25283778Y-97708910D01*
X25431656Y-97490126D01*
X25609129Y-97249091D01*
X25813712Y-96988821D01*
X26042920Y-96712332D01*
X26294266Y-96422641D01*
X26565264Y-96122761D01*
X26785281Y-95887317D01*
X27076356Y-95579914D01*
X27341422Y-95299370D01*
X27582818Y-95043148D01*
X27802880Y-94808711D01*
X28003945Y-94593523D01*
X28188350Y-94395046D01*
X28358434Y-94210744D01*
X28516533Y-94038079D01*
X28664984Y-93874516D01*
X28806125Y-93717517D01*
X28942293Y-93564545D01*
X29075825Y-93413063D01*
X29209059Y-93260536D01*
X29268823Y-93191707D01*
X29436542Y-92993607D01*
X29619123Y-92769791D01*
X29809730Y-92529136D01*
X30001527Y-92280519D01*
X30187675Y-92032818D01*
X30361340Y-91794909D01*
X30515684Y-91575670D01*
X30534324Y-91548490D01*
X30726838Y-91255477D01*
X30916827Y-90944709D01*
X31099745Y-90624593D01*
X31271049Y-90303536D01*
X31426195Y-89989947D01*
X31560638Y-89692230D01*
X31633034Y-89515656D01*
X31809641Y-89015073D01*
X31946056Y-88518334D01*
X32042251Y-88025771D01*
X32098201Y-87537716D01*
X32113876Y-87054501D01*
X32089251Y-86576460D01*
X32024298Y-86103925D01*
X31942814Y-85728237D01*
X31835121Y-85365528D01*
X31703305Y-85031845D01*
X31548265Y-84728116D01*
X31370899Y-84455268D01*
X31172107Y-84214230D01*
X30952787Y-84005930D01*
X30713837Y-83831294D01*
X30456157Y-83691252D01*
X30180645Y-83586731D01*
X29888199Y-83518659D01*
X29789008Y-83504459D01*
X29460506Y-83484842D01*
X29127765Y-83504906D01*
X28792255Y-83563895D01*
X28455446Y-83661055D01*
X28118807Y-83795631D01*
X27783808Y-83966869D01*
X27451918Y-84174013D01*
X27124608Y-84416310D01*
X26803346Y-84693004D01*
X26489603Y-85003341D01*
X26184848Y-85346565D01*
X26172146Y-85361834D01*
X26017060Y-85557647D01*
X25867967Y-85762923D01*
X25728251Y-85971951D01*
X25601297Y-86179020D01*
X25490490Y-86378418D01*
X25399215Y-86564435D01*
X25330855Y-86731358D01*
X25297349Y-86837949D01*
X25272612Y-86927808D01*
X25247122Y-87013339D01*
X25225718Y-87078423D01*
X25222509Y-87087156D01*
X25158872Y-87216593D01*
X25081572Y-87308838D01*
X24993453Y-87363272D01*
X24897357Y-87379280D01*
X24796126Y-87356244D01*
X24692602Y-87293546D01*
X24614342Y-87219214D01*
X24567394Y-87158496D01*
X24518571Y-87081320D01*
X24473815Y-86998952D01*
X24439069Y-86922656D01*
X24420276Y-86863696D01*
X24418553Y-86848077D01*
X24410180Y-86800875D01*
X24387538Y-86726293D01*
X24354298Y-86633635D01*
X24314130Y-86532205D01*
X24270706Y-86431307D01*
X24227696Y-86340245D01*
X24191836Y-86273472D01*
X24024219Y-86026259D01*
X23828754Y-85804399D01*
X23609279Y-85611255D01*
X23369633Y-85450188D01*
X23113653Y-85324562D01*
X23104482Y-85320863D01*
X22805673Y-85221543D01*
X22507395Y-85162790D01*
X22210687Y-85144568D01*
X21916591Y-85166839D01*
X21626147Y-85229567D01*
X21340397Y-85332715D01*
X21223119Y-85387538D01*
X20941566Y-85550270D01*
X20672511Y-85750042D01*
X20418174Y-85984376D01*
X20180776Y-86250791D01*
X19962536Y-86546806D01*
X19765675Y-86869942D01*
X19600129Y-87200561D01*
X19437510Y-87604535D01*
X19301371Y-88037621D01*
X19192156Y-88497472D01*
X19110309Y-88981743D01*
X19056271Y-89488087D01*
X19030487Y-90014157D01*
X19028183Y-90229515D01*
X17308943Y-90229515D01*
X17331906Y-89737598D01*
X17389301Y-89208466D01*
X17478206Y-88695073D01*
X17598065Y-88199726D01*
X17748318Y-87724728D01*
X17928408Y-87272384D01*
X18137778Y-86845001D01*
X18375846Y-86444919D01*
X18639335Y-86075083D01*
X18928108Y-85731387D01*
X19239697Y-85415653D01*
X19571631Y-85129706D01*
X19921443Y-84875370D01*
X20286665Y-84654470D01*
X20664827Y-84468828D01*
X21053461Y-84320270D01*
X21376254Y-84227882D01*
X21526867Y-84201258D01*
X21707154Y-84185840D01*
X21907570Y-84181453D01*
X22118571Y-84187922D01*
X22330612Y-84205072D01*
X22534149Y-84232728D01*
X22631961Y-84250895D01*
X22889463Y-84316314D01*
X23161114Y-84407981D01*
X23434861Y-84520819D01*
X23698655Y-84649753D01*
X23940445Y-84789706D01*
X23994752Y-84824962D01*
X24140771Y-84930642D01*
X24289045Y-85053453D01*
X24433723Y-85187291D01*
X24568956Y-85326050D01*
X24688894Y-85463624D01*
X24787687Y-85593907D01*
X24859485Y-85710794D01*
X24875938Y-85744672D01*
X24901542Y-85795984D01*
X24922175Y-85827124D01*
X24928328Y-85831449D01*
X24945193Y-85815159D01*
X24972945Y-85773694D01*
X24989731Y-85744672D01*
X25032485Y-85672735D01*
X25094554Y-85575710D01*
X25170719Y-85461157D01*
X25255764Y-85336635D01*
X25344470Y-85209702D01*
X25431621Y-85087919D01*
X25511998Y-84978842D01*
X25574674Y-84897229D01*
X25910345Y-84498717D01*
X26263987Y-84128721D01*
X26633530Y-83788536D01*
X27016904Y-83479457D01*
X27412039Y-83202778D01*
X27816864Y-82959793D01*
X28229308Y-82751796D01*
X28647302Y-82580083D01*
X29068775Y-82445948D01*
X29491657Y-82350686D01*
X29698896Y-82318571D01*
X29843070Y-82305512D01*
X30012460Y-82299703D01*
X30196271Y-82300702D01*
G37*
%TD*%
M02*
