%TF.GenerationSoftware,KiCad,Pcbnew,8.0.5*%
%TF.CreationDate,2024-09-30T13:41:22+02:00*%
%TF.ProjectId,eurovISOn,6575726f-7649-4534-9f6e-2e6b69636164,rev?*%
%TF.SameCoordinates,Original*%
%TF.FileFunction,Soldermask,Bot*%
%TF.FilePolarity,Negative*%
%FSLAX46Y46*%
G04 Gerber Fmt 4.6, Leading zero omitted, Abs format (unit mm)*
G04 Created by KiCad (PCBNEW 8.0.5) date 2024-09-30 13:41:22*
%MOMM*%
%LPD*%
G01*
G04 APERTURE LIST*
G04 Aperture macros list*
%AMRoundRect*
0 Rectangle with rounded corners*
0 $1 Rounding radius*
0 $2 $3 $4 $5 $6 $7 $8 $9 X,Y pos of 4 corners*
0 Add a 4 corners polygon primitive as box body*
4,1,4,$2,$3,$4,$5,$6,$7,$8,$9,$2,$3,0*
0 Add four circle primitives for the rounded corners*
1,1,$1+$1,$2,$3*
1,1,$1+$1,$4,$5*
1,1,$1+$1,$6,$7*
1,1,$1+$1,$8,$9*
0 Add four rect primitives between the rounded corners*
20,1,$1+$1,$2,$3,$4,$5,0*
20,1,$1+$1,$4,$5,$6,$7,0*
20,1,$1+$1,$6,$7,$8,$9,0*
20,1,$1+$1,$8,$9,$2,$3,0*%
%AMRotRect*
0 Rectangle, with rotation*
0 The origin of the aperture is its center*
0 $1 length*
0 $2 width*
0 $3 Rotation angle, in degrees counterclockwise*
0 Add horizontal line*
21,1,$1,$2,0,0,$3*%
%AMFreePoly0*
4,1,18,-0.410000,0.593000,-0.403758,0.624380,-0.385983,0.650983,-0.359380,0.668758,-0.328000,0.675000,0.328000,0.675000,0.359380,0.668758,0.385983,0.650983,0.403758,0.624380,0.410000,0.593000,0.410000,-0.593000,0.403758,-0.624380,0.385983,-0.650983,0.359380,-0.668758,0.328000,-0.675000,0.000000,-0.675000,-0.410000,-0.265000,-0.410000,0.593000,-0.410000,0.593000,$1*%
G04 Aperture macros list end*
%ADD10C,1.750000*%
%ADD11C,3.987800*%
%ADD12C,2.300000*%
%ADD13C,1.397000*%
%ADD14C,4.000000*%
%ADD15C,2.000000*%
%ADD16RoundRect,0.500000X0.500000X-0.500000X0.500000X0.500000X-0.500000X0.500000X-0.500000X-0.500000X0*%
%ADD17RoundRect,0.550000X0.550000X-1.150000X0.550000X1.150000X-0.550000X1.150000X-0.550000X-1.150000X0*%
%ADD18RoundRect,0.150000X0.150000X-0.587500X0.150000X0.587500X-0.150000X0.587500X-0.150000X-0.587500X0*%
%ADD19RoundRect,0.250000X0.300000X0.300000X-0.300000X0.300000X-0.300000X-0.300000X0.300000X-0.300000X0*%
%ADD20RoundRect,0.140000X-0.219203X-0.021213X-0.021213X-0.219203X0.219203X0.021213X0.021213X0.219203X0*%
%ADD21RoundRect,0.082000X-0.328000X-0.593000X0.328000X-0.593000X0.328000X0.593000X-0.328000X0.593000X0*%
%ADD22FreePoly0,0.000000*%
%ADD23RoundRect,0.140000X0.219203X0.021213X0.021213X0.219203X-0.219203X-0.021213X-0.021213X-0.219203X0*%
%ADD24RoundRect,0.082000X-0.593000X0.328000X-0.593000X-0.328000X0.593000X-0.328000X0.593000X0.328000X0*%
%ADD25FreePoly0,270.000000*%
%ADD26RoundRect,0.250000X-0.300000X-0.300000X0.300000X-0.300000X0.300000X0.300000X-0.300000X0.300000X0*%
%ADD27RoundRect,0.082000X0.328000X0.593000X-0.328000X0.593000X-0.328000X-0.593000X0.328000X-0.593000X0*%
%ADD28FreePoly0,180.000000*%
%ADD29RoundRect,0.140000X-0.170000X0.140000X-0.170000X-0.140000X0.170000X-0.140000X0.170000X0.140000X0*%
%ADD30RoundRect,0.135000X-0.185000X0.135000X-0.185000X-0.135000X0.185000X-0.135000X0.185000X0.135000X0*%
%ADD31RoundRect,0.150000X0.625000X-0.150000X0.625000X0.150000X-0.625000X0.150000X-0.625000X-0.150000X0*%
%ADD32RoundRect,0.250000X0.650000X-0.350000X0.650000X0.350000X-0.650000X0.350000X-0.650000X-0.350000X0*%
%ADD33RoundRect,0.050000X0.309359X-0.238649X-0.238649X0.309359X-0.309359X0.238649X0.238649X-0.309359X0*%
%ADD34RoundRect,0.050000X0.309359X0.238649X0.238649X0.309359X-0.309359X-0.238649X-0.238649X-0.309359X0*%
%ADD35RoundRect,0.144000X2.059095X0.000000X0.000000X2.059095X-2.059095X0.000000X0.000000X-2.059095X0*%
%ADD36RoundRect,0.140000X0.170000X-0.140000X0.170000X0.140000X-0.170000X0.140000X-0.170000X-0.140000X0*%
%ADD37RoundRect,0.082000X0.593000X-0.328000X0.593000X0.328000X-0.593000X0.328000X-0.593000X-0.328000X0*%
%ADD38FreePoly0,90.000000*%
%ADD39RoundRect,0.150000X0.512500X0.150000X-0.512500X0.150000X-0.512500X-0.150000X0.512500X-0.150000X0*%
%ADD40RoundRect,0.140000X0.021213X-0.219203X0.219203X-0.021213X-0.021213X0.219203X-0.219203X0.021213X0*%
%ADD41RoundRect,0.140000X-0.140000X-0.170000X0.140000X-0.170000X0.140000X0.170000X-0.140000X0.170000X0*%
%ADD42RotRect,1.400000X1.200000X315.000000*%
%ADD43RoundRect,0.140000X0.140000X0.170000X-0.140000X0.170000X-0.140000X-0.170000X0.140000X-0.170000X0*%
%ADD44RoundRect,0.135000X-0.226274X-0.035355X-0.035355X-0.226274X0.226274X0.035355X0.035355X0.226274X0*%
%ADD45RotRect,0.900000X0.300000X135.000000*%
%ADD46RotRect,1.650000X0.250000X45.000000*%
%ADD47RoundRect,0.150000X0.275000X-0.150000X0.275000X0.150000X-0.275000X0.150000X-0.275000X-0.150000X0*%
%ADD48RoundRect,0.175000X0.225000X-0.175000X0.225000X0.175000X-0.225000X0.175000X-0.225000X-0.175000X0*%
%ADD49R,1.700000X1.700000*%
%ADD50O,1.700000X1.700000*%
%ADD51RoundRect,0.140000X-0.021213X0.219203X-0.219203X0.021213X0.021213X-0.219203X0.219203X-0.021213X0*%
%ADD52C,0.990600*%
%ADD53C,0.787400*%
%ADD54RoundRect,0.135000X0.035355X-0.226274X0.226274X-0.035355X-0.035355X0.226274X-0.226274X0.035355X0*%
%ADD55R,1.700000X1.000000*%
G04 APERTURE END LIST*
D10*
%TO.C,MX49*%
X107632500Y-93662500D03*
D11*
X112712500Y-93662500D03*
D10*
X117792500Y-93662500D03*
D12*
X108902500Y-91122500D03*
X115252500Y-88582500D03*
%TD*%
D10*
%TO.C,MX3*%
X60007500Y-31750000D03*
D11*
X65087500Y-31750000D03*
D10*
X70167500Y-31750000D03*
D12*
X61277500Y-29210000D03*
X67627500Y-26670000D03*
%TD*%
D10*
%TO.C,MX18*%
X102870000Y-50800000D03*
D11*
X107950000Y-50800000D03*
D10*
X113030000Y-50800000D03*
D12*
X104140000Y-48260000D03*
X110490000Y-45720000D03*
%TD*%
D10*
%TO.C,MX43*%
X152876250Y-93662500D03*
D11*
X157956250Y-93662500D03*
D10*
X163036250Y-93662500D03*
D12*
X154146250Y-91122500D03*
X160496250Y-88582500D03*
%TD*%
D10*
%TO.C,MX12*%
X231457500Y-31750000D03*
D11*
X236537500Y-31750000D03*
D10*
X241617500Y-31750000D03*
D12*
X232727500Y-29210000D03*
X239077500Y-26670000D03*
%TD*%
D10*
%TO.C,MX33*%
X169545000Y-69850000D03*
D11*
X174625000Y-69850000D03*
D10*
X179705000Y-69850000D03*
D12*
X170815000Y-67310000D03*
X177165000Y-64770000D03*
%TD*%
D10*
%TO.C,MX4*%
X79057500Y-31750000D03*
D11*
X84137500Y-31750000D03*
D10*
X89217500Y-31750000D03*
D12*
X80327500Y-29210000D03*
X86677500Y-26670000D03*
%TD*%
D13*
%TO.C,OL2*%
X18415000Y-79375000D03*
X20955000Y-79375000D03*
X23495000Y-79375000D03*
X26035000Y-79375000D03*
%TD*%
D10*
%TO.C,MX51*%
X207645000Y-93662500D03*
D11*
X212725000Y-93662500D03*
D10*
X217805000Y-93662500D03*
D12*
X208915000Y-91122500D03*
X215265000Y-88582500D03*
%TD*%
D10*
%TO.C,MX24*%
X217170000Y-50800000D03*
D11*
X222250000Y-50800000D03*
D10*
X227330000Y-50800000D03*
D12*
X218440000Y-48260000D03*
X224790000Y-45720000D03*
%TD*%
D10*
%TO.C,MX13*%
X267176250Y-36512500D03*
D11*
X272256250Y-36512500D03*
D10*
X277336250Y-36512500D03*
D12*
X268446250Y-33972500D03*
X274796250Y-31432500D03*
%TD*%
D11*
%TO.C,S1*%
X264001250Y-24606250D03*
X264001250Y-48418750D03*
D14*
X279241250Y-24606250D03*
X279241250Y-48418750D03*
%TD*%
D10*
%TO.C,MX48*%
X62388750Y-93662500D03*
D11*
X67468750Y-93662500D03*
D10*
X72548750Y-93662500D03*
D12*
X63658750Y-91122500D03*
X70008750Y-88582500D03*
%TD*%
D10*
%TO.C,MX27*%
X48101250Y-69850000D03*
D11*
X53181250Y-69850000D03*
D10*
X58261250Y-69850000D03*
D12*
X49371250Y-67310000D03*
X55721250Y-64770000D03*
%TD*%
D15*
%TO.C,SW3*%
X19725000Y-39250000D03*
X24725000Y-39250000D03*
D16*
X22225000Y-39250000D03*
D17*
X16625000Y-31750000D03*
X27825000Y-31750000D03*
D15*
X24725000Y-24750000D03*
X19725000Y-24750000D03*
%TD*%
D10*
%TO.C,MX38*%
X269557500Y-69850000D03*
D11*
X274637500Y-69850000D03*
D10*
X279717500Y-69850000D03*
D12*
X270827500Y-67310000D03*
X277177500Y-64770000D03*
%TD*%
D15*
%TO.C,SW6*%
X19725000Y-77350000D03*
X24725000Y-77350000D03*
D16*
X22225000Y-77350000D03*
D17*
X16625000Y-69850000D03*
X27825000Y-69850000D03*
D15*
X24725000Y-62850000D03*
X19725000Y-62850000D03*
%TD*%
D10*
%TO.C,MX34*%
X188595000Y-69850000D03*
D11*
X193675000Y-69850000D03*
D10*
X198755000Y-69850000D03*
D12*
X189865000Y-67310000D03*
X196215000Y-64770000D03*
%TD*%
D10*
%TO.C,MX14*%
X17145000Y-50800000D03*
D11*
X22225000Y-50800000D03*
D10*
X27305000Y-50800000D03*
D12*
X18415000Y-48260000D03*
X24765000Y-45720000D03*
%TD*%
D10*
%TO.C,MX2*%
X40957500Y-31750000D03*
D11*
X46037500Y-31750000D03*
D10*
X51117500Y-31750000D03*
D12*
X42227500Y-29210000D03*
X48577500Y-26670000D03*
%TD*%
D10*
%TO.C,MX52*%
X229076250Y-93662500D03*
D11*
X234156250Y-93662500D03*
D10*
X239236250Y-93662500D03*
D12*
X230346250Y-91122500D03*
X236696250Y-88582500D03*
%TD*%
D14*
%TO.C,S3*%
X188912500Y-100647500D03*
D11*
X188912500Y-85407500D03*
D14*
X150812500Y-100647500D03*
D11*
X150812500Y-85407500D03*
%TD*%
D10*
%TO.C,MX53*%
X164782500Y-93662500D03*
D11*
X169862500Y-93662500D03*
D10*
X174942500Y-93662500D03*
D12*
X166052500Y-91122500D03*
X172402500Y-88582500D03*
%TD*%
D10*
%TO.C,MX23*%
X198120000Y-50800000D03*
D11*
X203200000Y-50800000D03*
D10*
X208280000Y-50800000D03*
D12*
X199390000Y-48260000D03*
X205740000Y-45720000D03*
%TD*%
D10*
%TO.C,MX47*%
X40957500Y-93662500D03*
D11*
X46037500Y-93662500D03*
D10*
X51117500Y-93662500D03*
D12*
X42227500Y-91122500D03*
X48577500Y-88582500D03*
%TD*%
D10*
%TO.C,MX31*%
X131445000Y-69850000D03*
D11*
X136525000Y-69850000D03*
D10*
X141605000Y-69850000D03*
D12*
X132715000Y-67310000D03*
X139065000Y-64770000D03*
%TD*%
D15*
%TO.C,SW4*%
X19725000Y-58300000D03*
X24725000Y-58300000D03*
D16*
X22225000Y-58300000D03*
D17*
X16625000Y-50800000D03*
X27825000Y-50800000D03*
D15*
X24725000Y-43800000D03*
X19725000Y-43800000D03*
%TD*%
D10*
%TO.C,MX11*%
X212407500Y-31750000D03*
D11*
X217487500Y-31750000D03*
D10*
X222567500Y-31750000D03*
D12*
X213677500Y-29210000D03*
X220027500Y-26670000D03*
%TD*%
D10*
%TO.C,MX40*%
X64770000Y-93662500D03*
D11*
X69850000Y-93662500D03*
D10*
X74930000Y-93662500D03*
D12*
X66040000Y-91122500D03*
X72390000Y-88582500D03*
%TD*%
D10*
%TO.C,MX42*%
X119538750Y-93662500D03*
D11*
X124618750Y-93662500D03*
D10*
X129698750Y-93662500D03*
D12*
X120808750Y-91122500D03*
X127158750Y-88582500D03*
%TD*%
D10*
%TO.C,MX50*%
X136207500Y-93662500D03*
D11*
X141287500Y-93662500D03*
D10*
X146367500Y-93662500D03*
D12*
X137477500Y-91122500D03*
X143827500Y-88582500D03*
%TD*%
D10*
%TO.C,MX5*%
X98107500Y-31750000D03*
D11*
X103187500Y-31750000D03*
D10*
X108267500Y-31750000D03*
D12*
X99377500Y-29210000D03*
X105727500Y-26670000D03*
%TD*%
D10*
%TO.C,MX17*%
X83820000Y-50800000D03*
D11*
X88900000Y-50800000D03*
D10*
X93980000Y-50800000D03*
D12*
X85090000Y-48260000D03*
X91440000Y-45720000D03*
%TD*%
D10*
%TO.C,MX9*%
X174307500Y-31750000D03*
D11*
X179387500Y-31750000D03*
D10*
X184467500Y-31750000D03*
D12*
X175577500Y-29210000D03*
X181927500Y-26670000D03*
%TD*%
D10*
%TO.C,MX16*%
X64770000Y-50800000D03*
D11*
X69850000Y-50800000D03*
D10*
X74930000Y-50800000D03*
D12*
X66040000Y-48260000D03*
X72390000Y-45720000D03*
%TD*%
D10*
%TO.C,MX37*%
X245745000Y-69850000D03*
D11*
X250825000Y-69850000D03*
D10*
X255905000Y-69850000D03*
D12*
X247015000Y-67310000D03*
X253365000Y-64770000D03*
%TD*%
D10*
%TO.C,MX25*%
X236220000Y-50800000D03*
D11*
X241300000Y-50800000D03*
D10*
X246380000Y-50800000D03*
D12*
X237490000Y-48260000D03*
X243840000Y-45720000D03*
%TD*%
D14*
%TO.C,S2*%
X131762500Y-100647500D03*
D11*
X131762500Y-85407500D03*
D14*
X93662500Y-100647500D03*
D11*
X93662500Y-85407500D03*
%TD*%
D10*
%TO.C,MX28*%
X74295000Y-69850000D03*
D11*
X79375000Y-69850000D03*
D10*
X84455000Y-69850000D03*
D12*
X75565000Y-67310000D03*
X81915000Y-64770000D03*
%TD*%
D10*
%TO.C,MX39*%
X43338750Y-93662500D03*
D11*
X48418750Y-93662500D03*
D10*
X53498750Y-93662500D03*
D12*
X44608750Y-91122500D03*
X50958750Y-88582500D03*
%TD*%
D10*
%TO.C,MX26*%
X17145000Y-69850000D03*
D11*
X22225000Y-69850000D03*
D10*
X27305000Y-69850000D03*
D12*
X18415000Y-67310000D03*
X24765000Y-64770000D03*
%TD*%
D13*
%TO.C,OL1*%
X26035000Y-23018750D03*
X23495000Y-23018750D03*
X20955000Y-23018750D03*
X18415000Y-23018750D03*
%TD*%
D14*
%TO.C,S4*%
X188912500Y-100647500D03*
D11*
X188912500Y-85407500D03*
D14*
X93662500Y-100647500D03*
D11*
X93662500Y-85407500D03*
%TD*%
D10*
%TO.C,MX22*%
X179070000Y-50800000D03*
D11*
X184150000Y-50800000D03*
D10*
X189230000Y-50800000D03*
D12*
X180340000Y-48260000D03*
X186690000Y-45720000D03*
%TD*%
D10*
%TO.C,MX36*%
X226695000Y-69850000D03*
D11*
X231775000Y-69850000D03*
D10*
X236855000Y-69850000D03*
D12*
X227965000Y-67310000D03*
X234315000Y-64770000D03*
%TD*%
D10*
%TO.C,MX8*%
X155257500Y-31750000D03*
D11*
X160337500Y-31750000D03*
D10*
X165417500Y-31750000D03*
D12*
X156527500Y-29210000D03*
X162877500Y-26670000D03*
%TD*%
D10*
%TO.C,MX10*%
X193357500Y-31750000D03*
D11*
X198437500Y-31750000D03*
D10*
X203517500Y-31750000D03*
D12*
X194627500Y-29210000D03*
X200977500Y-26670000D03*
%TD*%
D10*
%TO.C,MX44*%
X181451250Y-93662500D03*
D11*
X186531250Y-93662500D03*
D10*
X191611250Y-93662500D03*
D12*
X182721250Y-91122500D03*
X189071250Y-88582500D03*
%TD*%
D10*
%TO.C,MX32*%
X150495000Y-69850000D03*
D11*
X155575000Y-69850000D03*
D10*
X160655000Y-69850000D03*
D12*
X151765000Y-67310000D03*
X158115000Y-64770000D03*
%TD*%
D10*
%TO.C,MX45*%
X210026250Y-93662500D03*
D11*
X215106250Y-93662500D03*
D10*
X220186250Y-93662500D03*
D12*
X211296250Y-91122500D03*
X217646250Y-88582500D03*
%TD*%
D10*
%TO.C,MX41*%
X90963750Y-93662500D03*
D11*
X96043750Y-93662500D03*
D10*
X101123750Y-93662500D03*
D12*
X92233750Y-91122500D03*
X98583750Y-88582500D03*
%TD*%
D10*
%TO.C,MX46*%
X231457500Y-93662500D03*
D11*
X236537500Y-93662500D03*
D10*
X241617500Y-93662500D03*
D12*
X232727500Y-91122500D03*
X239077500Y-88582500D03*
%TD*%
D10*
%TO.C,MX35*%
X207645000Y-69850000D03*
D11*
X212725000Y-69850000D03*
D10*
X217805000Y-69850000D03*
D12*
X208915000Y-67310000D03*
X215265000Y-64770000D03*
%TD*%
D10*
%TO.C,MX21*%
X160020000Y-50800000D03*
D11*
X165100000Y-50800000D03*
D10*
X170180000Y-50800000D03*
D12*
X161290000Y-48260000D03*
X167640000Y-45720000D03*
%TD*%
D10*
%TO.C,MX20*%
X140970000Y-50800000D03*
D11*
X146050000Y-50800000D03*
D10*
X151130000Y-50800000D03*
D12*
X142240000Y-48260000D03*
X148590000Y-45720000D03*
%TD*%
D10*
%TO.C,MX15*%
X43338750Y-50800000D03*
D11*
X48418750Y-50800000D03*
D10*
X53498750Y-50800000D03*
D12*
X44608750Y-48260000D03*
X50958750Y-45720000D03*
%TD*%
D10*
%TO.C,MX29*%
X93345000Y-69850000D03*
D11*
X98425000Y-69850000D03*
D10*
X103505000Y-69850000D03*
D12*
X94615000Y-67310000D03*
X100965000Y-64770000D03*
%TD*%
D10*
%TO.C,MX30*%
X112395000Y-69850000D03*
D11*
X117475000Y-69850000D03*
D10*
X122555000Y-69850000D03*
D12*
X113665000Y-67310000D03*
X120015000Y-64770000D03*
%TD*%
D10*
%TO.C,MX1*%
X17145000Y-31750000D03*
D11*
X22225000Y-31750000D03*
D10*
X27305000Y-31750000D03*
D12*
X18415000Y-29210000D03*
X24765000Y-26670000D03*
%TD*%
D15*
%TO.C,SW5*%
X272137500Y-77350000D03*
X277137500Y-77350000D03*
D16*
X274637500Y-77350000D03*
D17*
X269037500Y-69850000D03*
X280237500Y-69850000D03*
D15*
X277137500Y-62850000D03*
X272137500Y-62850000D03*
%TD*%
D10*
%TO.C,MX19*%
X121920000Y-50800000D03*
D11*
X127000000Y-50800000D03*
D10*
X132080000Y-50800000D03*
D12*
X123190000Y-48260000D03*
X129540000Y-45720000D03*
%TD*%
D10*
%TO.C,MX6*%
X117157500Y-31750000D03*
D11*
X122237500Y-31750000D03*
D10*
X127317500Y-31750000D03*
D12*
X118427500Y-29210000D03*
X124777500Y-26670000D03*
%TD*%
D10*
%TO.C,MX7*%
X136207500Y-31750000D03*
D11*
X141287500Y-31750000D03*
D10*
X146367500Y-31750000D03*
D12*
X137477500Y-29210000D03*
X143827500Y-26670000D03*
%TD*%
D18*
%TO.C,U4*%
X263681250Y-73312500D03*
X261781250Y-73312500D03*
X262731250Y-71437500D03*
%TD*%
D19*
%TO.C,D3*%
X60931250Y-46037500D03*
X58131250Y-46037500D03*
%TD*%
D20*
%TO.C,C3*%
X251460141Y-92668543D03*
X252138963Y-93347365D03*
%TD*%
D21*
%TO.C,LED2*%
X282531250Y-38550000D03*
X281031250Y-38550000D03*
X282531250Y-44000000D03*
D22*
X281031250Y-44000000D03*
%TD*%
D19*
%TO.C,D40*%
X60931250Y-55562500D03*
X58131250Y-55562500D03*
%TD*%
D23*
%TO.C,C9*%
X260853629Y-79683280D03*
X260174807Y-79004458D03*
%TD*%
D24*
%TO.C,LED1*%
X281331250Y-53931250D03*
X281331250Y-52431250D03*
X275881250Y-53931250D03*
D25*
X275881250Y-52431250D03*
%TD*%
D19*
%TO.C,D33*%
X156975000Y-52387500D03*
X154175000Y-52387500D03*
%TD*%
D26*
%TO.C,D14*%
X31937500Y-49212500D03*
X34737500Y-49212500D03*
%TD*%
%TO.C,D26*%
X31937500Y-52387500D03*
X34737500Y-52387500D03*
%TD*%
D27*
%TO.C,LED7*%
X256425000Y-34475000D03*
X257925000Y-34475000D03*
X256425000Y-29025000D03*
D28*
X257925000Y-29025000D03*
%TD*%
D29*
%TO.C,C2*%
X258514600Y-92592144D03*
X258514600Y-93552144D03*
%TD*%
D19*
%TO.C,D24*%
X214125000Y-49212500D03*
X211325000Y-49212500D03*
%TD*%
%TO.C,D42*%
X99825000Y-55562500D03*
X97025000Y-55562500D03*
%TD*%
D29*
%TO.C,C11*%
X266700000Y-92788750D03*
X266700000Y-93748750D03*
%TD*%
D19*
%TO.C,D23*%
X195075000Y-49212500D03*
X192275000Y-49212500D03*
%TD*%
%TO.C,D28*%
X60931250Y-52387500D03*
X58131250Y-52387500D03*
%TD*%
%TO.C,D6*%
X118875000Y-46037500D03*
X116075000Y-46037500D03*
%TD*%
D21*
%TO.C,LED3*%
X282531250Y-29025000D03*
X281031250Y-29025000D03*
X282531250Y-34475000D03*
D22*
X281031250Y-34475000D03*
%TD*%
D30*
%TO.C,R5*%
X264475000Y-78071250D03*
X264475000Y-79091250D03*
%TD*%
D19*
%TO.C,D4*%
X80775000Y-46037500D03*
X77975000Y-46037500D03*
%TD*%
%TO.C,D7*%
X137925000Y-46037500D03*
X135125000Y-46037500D03*
%TD*%
%TO.C,D10*%
X195075000Y-46037500D03*
X192275000Y-46037500D03*
%TD*%
%TO.C,D9*%
X176025000Y-46037500D03*
X173225000Y-46037500D03*
%TD*%
D24*
%TO.C,LED9*%
X268631250Y-53931250D03*
X268631250Y-52431250D03*
X263181250Y-53931250D03*
D25*
X263181250Y-52431250D03*
%TD*%
D19*
%TO.C,D25*%
X233175000Y-49212500D03*
X230375000Y-49212500D03*
%TD*%
%TO.C,D22*%
X176025000Y-49212500D03*
X173225000Y-49212500D03*
%TD*%
D31*
%TO.C,J2*%
X252825000Y-41187500D03*
X252825000Y-40187500D03*
X252825000Y-39187500D03*
X252825000Y-38187500D03*
D32*
X248950000Y-42487500D03*
X248950000Y-36887500D03*
%TD*%
D33*
%TO.C,U3*%
X266362907Y-87110952D03*
X266080064Y-87393795D03*
X265797222Y-87676637D03*
X265514379Y-87959480D03*
X265231536Y-88242323D03*
X264948694Y-88525165D03*
X264665851Y-88808008D03*
X264383008Y-89090851D03*
X264100165Y-89373694D03*
X263817323Y-89656536D03*
X263534480Y-89939379D03*
X263251637Y-90222222D03*
X262968795Y-90505064D03*
X262685952Y-90787907D03*
D34*
X261501548Y-90787907D03*
X261218705Y-90505064D03*
X260935863Y-90222222D03*
X260653020Y-89939379D03*
X260370177Y-89656536D03*
X260087335Y-89373694D03*
X259804492Y-89090851D03*
X259521649Y-88808008D03*
X259238806Y-88525165D03*
X258955964Y-88242323D03*
X258673121Y-87959480D03*
X258390278Y-87676637D03*
X258107436Y-87393795D03*
X257824593Y-87110952D03*
D33*
X257824593Y-85926548D03*
X258107436Y-85643705D03*
X258390278Y-85360863D03*
X258673121Y-85078020D03*
X258955964Y-84795177D03*
X259238806Y-84512335D03*
X259521649Y-84229492D03*
X259804492Y-83946649D03*
X260087335Y-83663806D03*
X260370177Y-83380964D03*
X260653020Y-83098121D03*
X260935863Y-82815278D03*
X261218705Y-82532436D03*
X261501548Y-82249593D03*
D34*
X262685952Y-82249593D03*
X262968795Y-82532436D03*
X263251637Y-82815278D03*
X263534480Y-83098121D03*
X263817323Y-83380964D03*
X264100165Y-83663806D03*
X264383008Y-83946649D03*
X264665851Y-84229492D03*
X264948694Y-84512335D03*
X265231536Y-84795177D03*
X265514379Y-85078020D03*
X265797222Y-85360863D03*
X266080064Y-85643705D03*
X266362907Y-85926548D03*
D35*
X262093750Y-86518750D03*
%TD*%
D19*
%TO.C,D31*%
X118875000Y-52387500D03*
X116075000Y-52387500D03*
%TD*%
%TO.C,D12*%
X233175000Y-46037500D03*
X230375000Y-46037500D03*
%TD*%
D36*
%TO.C,C8*%
X262093750Y-79061250D03*
X262093750Y-78101250D03*
%TD*%
%TO.C,C1*%
X278473876Y-58774739D03*
X278473876Y-57814739D03*
%TD*%
D37*
%TO.C,LED10*%
X269531250Y-40850000D03*
X269531250Y-42350000D03*
X274981250Y-40850000D03*
D38*
X274981250Y-42350000D03*
%TD*%
D39*
%TO.C,U1*%
X282336376Y-57344739D03*
X282336376Y-58294739D03*
X282336376Y-59244739D03*
X280061376Y-59244739D03*
X280061376Y-57344739D03*
%TD*%
D40*
%TO.C,C18*%
X269409646Y-82283577D03*
X270088468Y-81604755D03*
%TD*%
D23*
%TO.C,C10*%
X260146324Y-80447636D03*
X259467502Y-79768814D03*
%TD*%
D37*
%TO.C,LED5*%
X263181250Y-19093750D03*
X263181250Y-20593750D03*
X268631250Y-19093750D03*
D38*
X268631250Y-20593750D03*
%TD*%
D30*
%TO.C,R1*%
X254827500Y-86961250D03*
X254827500Y-87981250D03*
%TD*%
D19*
%TO.C,D29*%
X80775000Y-52387500D03*
X77975000Y-52387500D03*
%TD*%
D41*
%TO.C,C16*%
X262251250Y-69800000D03*
X263211250Y-69800000D03*
%TD*%
D42*
%TO.C,Y1*%
X255408364Y-92877185D03*
X256963999Y-94432820D03*
X255761918Y-95634901D03*
X254206283Y-94079266D03*
%TD*%
D41*
%TO.C,C7*%
X262251250Y-74950000D03*
X263211250Y-74950000D03*
%TD*%
D40*
%TO.C,C15*%
X266971082Y-81108955D03*
X267649904Y-80430133D03*
%TD*%
D19*
%TO.C,D18*%
X99825000Y-49212500D03*
X97025000Y-49212500D03*
%TD*%
D43*
%TO.C,C17*%
X263211250Y-75943750D03*
X262251250Y-75943750D03*
%TD*%
D19*
%TO.C,D39*%
X40106250Y-55562500D03*
X37306250Y-55562500D03*
%TD*%
D44*
%TO.C,R6*%
X256492578Y-91898451D03*
X257213826Y-92619699D03*
%TD*%
D30*
%TO.C,R4*%
X265662500Y-78071250D03*
X265662500Y-79091250D03*
%TD*%
D19*
%TO.C,D8*%
X156975000Y-46037500D03*
X154175000Y-46037500D03*
%TD*%
%TO.C,D16*%
X60931250Y-49212500D03*
X58131250Y-49212500D03*
%TD*%
D45*
%TO.C,IC1*%
X272345280Y-85390869D03*
X271991726Y-85744423D03*
X271638173Y-86097976D03*
X271284619Y-86451530D03*
X269304720Y-84471631D03*
X269658274Y-84118077D03*
X270011827Y-83764524D03*
X270365381Y-83410970D03*
D46*
X270825000Y-84931250D03*
%TD*%
D19*
%TO.C,D35*%
X195075000Y-52387500D03*
X192275000Y-52387500D03*
%TD*%
D47*
%TO.C,J3*%
X251425000Y-41487500D03*
X251425000Y-40287500D03*
X251425000Y-39087500D03*
X251425000Y-37887500D03*
D48*
X247650000Y-42637500D03*
X247650000Y-36737500D03*
%TD*%
D19*
%TO.C,D46*%
X214125000Y-55562500D03*
X211325000Y-55562500D03*
%TD*%
D26*
%TO.C,D1*%
X31937500Y-46037500D03*
X34737500Y-46037500D03*
%TD*%
D20*
%TO.C,C13*%
X268104339Y-87766839D03*
X268783161Y-88445661D03*
%TD*%
D19*
%TO.C,D2*%
X40106250Y-46037500D03*
X37306250Y-46037500D03*
%TD*%
%TO.C,D37*%
X233175000Y-52387500D03*
X230375000Y-52387500D03*
%TD*%
%TO.C,D13*%
X273656250Y-57150000D03*
X270856250Y-57150000D03*
%TD*%
%TO.C,D15*%
X40106250Y-49212500D03*
X37306250Y-49212500D03*
%TD*%
%TO.C,D43*%
X137925000Y-55562500D03*
X135125000Y-55562500D03*
%TD*%
D49*
%TO.C,SW2*%
X278606250Y-98425000D03*
D50*
X278606250Y-95885000D03*
%TD*%
D51*
%TO.C,C6*%
X253754001Y-90521133D03*
X253075179Y-91199955D03*
%TD*%
D30*
%TO.C,R8*%
X17893094Y-82909862D03*
X17893094Y-83929862D03*
%TD*%
D19*
%TO.C,D41*%
X80775000Y-55562500D03*
X77975000Y-55562500D03*
%TD*%
%TO.C,D45*%
X195075000Y-55562500D03*
X192275000Y-55562500D03*
%TD*%
D52*
%TO.C,J4*%
X252888750Y-87471250D03*
X247808750Y-88487250D03*
X247808750Y-86455250D03*
D53*
X251618750Y-88106250D03*
X251618750Y-86836250D03*
X250348750Y-88106250D03*
X250348750Y-86836250D03*
X249078750Y-88106250D03*
X249078750Y-86836250D03*
%TD*%
D37*
%TO.C,LED4*%
X275881250Y-19093750D03*
X275881250Y-20593750D03*
X281331250Y-19093750D03*
D38*
X281331250Y-20593750D03*
%TD*%
D19*
%TO.C,D17*%
X80775000Y-49212500D03*
X77975000Y-49212500D03*
%TD*%
%TO.C,D38*%
X273656250Y-59531250D03*
X270856250Y-59531250D03*
%TD*%
%TO.C,D20*%
X137925000Y-49212500D03*
X135125000Y-49212500D03*
%TD*%
%TO.C,D34*%
X176025000Y-52387500D03*
X173225000Y-52387500D03*
%TD*%
%TO.C,D21*%
X156975000Y-49212500D03*
X154175000Y-49212500D03*
%TD*%
%TO.C,D36*%
X214125000Y-52387500D03*
X211325000Y-52387500D03*
%TD*%
D36*
%TO.C,C4*%
X263016372Y-79061250D03*
X263016372Y-78101250D03*
%TD*%
D19*
%TO.C,D44*%
X176025000Y-55562500D03*
X173225000Y-55562500D03*
%TD*%
D23*
%TO.C,C12*%
X256418568Y-82676050D03*
X255739746Y-81997228D03*
%TD*%
D19*
%TO.C,D30*%
X99825000Y-52387500D03*
X97025000Y-52387500D03*
%TD*%
%TO.C,D11*%
X214125000Y-46037500D03*
X211325000Y-46037500D03*
%TD*%
D51*
%TO.C,C14*%
X254497562Y-91239171D03*
X253818740Y-91917993D03*
%TD*%
D19*
%TO.C,D5*%
X99825000Y-46037500D03*
X97025000Y-46037500D03*
%TD*%
D27*
%TO.C,LED6*%
X256425000Y-24950000D03*
X257925000Y-24950000D03*
X256425000Y-19500000D03*
D28*
X257925000Y-19500000D03*
%TD*%
D19*
%TO.C,D32*%
X137925000Y-52387500D03*
X135125000Y-52387500D03*
%TD*%
%TO.C,D27*%
X40106250Y-52387500D03*
X37306250Y-52387500D03*
%TD*%
D40*
%TO.C,C5*%
X267764689Y-81797709D03*
X268443511Y-81118887D03*
%TD*%
D27*
%TO.C,LED8*%
X261981250Y-44000000D03*
X263481250Y-44000000D03*
X261981250Y-38550000D03*
D28*
X263481250Y-38550000D03*
%TD*%
D54*
%TO.C,R9*%
X273313268Y-86503380D03*
X274034516Y-85782132D03*
%TD*%
D55*
%TO.C,SW1*%
X275431250Y-99075000D03*
X281731250Y-99075000D03*
X275431250Y-95275000D03*
X281731250Y-95275000D03*
%TD*%
D30*
%TO.C,R10*%
X21205000Y-82943750D03*
X21205000Y-83963750D03*
%TD*%
D19*
%TO.C,D19*%
X118875000Y-49212500D03*
X116075000Y-49212500D03*
%TD*%
M02*
