M48
; DRILL file {KiCad 8.0.5} date 2024-09-30T13:41:22+0200
; FORMAT={-:-/ absolute / inch / decimal}
; #@! TF.CreationDate,2024-09-30T13:41:22+02:00
; #@! TF.GenerationSoftware,Kicad,Pcbnew,8.0.5
; #@! TF.FileFunction,Plated,1,2,PTH
FMAT,2
INCH
; #@! TA.AperFunction,Plated,PTH,ViaDrill
T1C0.0118
; #@! TA.AperFunction,Plated,PTH,ComponentDrill
T2C0.0138
; #@! TA.AperFunction,Plated,PTH,ComponentDrill
T3C0.0320
; #@! TA.AperFunction,Plated,PTH,ComponentDrill
T4C0.0394
; #@! TA.AperFunction,Plated,PTH,ComponentDrill
T5C0.0591
; #@! TA.AperFunction,Plated,PTH,ComponentDrill
T6C0.0600
; #@! TA.AperFunction,Plated,PTH,ComponentDrill
T7C0.1200
%
G90
G05
T1
X0.6724Y-3.2637
X0.6875Y-0.9688
X0.6875Y-3.0938
X0.8125Y-3.2655
X0.875Y-1.625
X0.875Y-2.375
X0.875Y-3.125
X1.1398Y-3.1058
X1.3125Y-2.0625
X1.5312Y-2.1875
X2.3438Y-2.1875
X3.125Y-2.1875
X3.875Y-2.1875
X4.625Y-2.0625
X5.375Y-2.1875
X6.125Y-2.0625
X6.875Y-2.1875
X7.625Y-2.1875
X8.375Y-2.1875
X9.125Y-2.0625
X9.75Y-2.9062
X9.75Y-2.9377
X9.75Y-2.9692
X9.75Y-3.0007
X9.75Y-3.0322
X9.75Y-3.0637
X9.75Y-3.0952
X9.75Y-3.1267
X9.75Y-3.1582
X9.75Y-3.1897
X9.75Y-3.2212
X9.75Y-3.2527
X9.75Y-3.2842
X9.75Y-3.3157
X9.75Y-3.3472
X9.8567Y-3.3827
X9.875Y-1.4375
X9.875Y-1.6875
X9.8946Y-3.5081
X9.9373Y-3.6163
X9.9375Y-3.5079
X9.9689Y-3.6439
X10.0252Y-3.5591
X10.0312Y-1.4688
X10.0347Y-3.3929
X10.0455Y-3.2043
X10.0625Y-3.5827
X10.0938Y-0.719
X10.0938Y-1.0312
X10.0938Y-1.0938
X10.0938Y-1.4062
X10.1562Y-0.719
X10.1562Y-1.0312
X10.1562Y-1.0938
X10.1562Y-1.4062
X10.1777Y-3.6066
X10.1882Y-3.114
X10.2188Y-1.0312
X10.2217Y-3.0865
X10.2415Y-3.446
X10.2424Y-3.7799
X10.25Y-1.4062
X10.2633Y-0.8125
X10.28Y-3.7803
X10.2956Y-2.7485
X10.3125Y-0.75
X10.3125Y-0.875
X10.3125Y-1.4688
X10.3125Y-1.7812
X10.3125Y-2.0625
X10.3125Y-2.125
X10.3125Y-3.7812
X10.3189Y-3.0442
X10.3205Y-3.2065
X10.344Y-3.7812
X10.3454Y-3.3008
X10.3455Y-2.65
X10.3468Y-2.8864
X10.3553Y-3.0461
X10.375Y-1.4688
X10.375Y-1.7812
X10.3755Y-3.7812
X10.3921Y-2.9898
X10.3924Y-2.9513
X10.4002Y-2.8125
X10.407Y-3.7812
X10.4125Y-3.0321
X10.4375Y-1.5938
X10.4375Y-1.7812
X10.4385Y-3.7812
X10.4592Y-3.0312
X10.4688Y-2.65
X10.47Y-3.7812
X10.4767Y-3.2259
X10.5005Y-3.7191
X10.5063Y-3.2365
X10.5312Y-3.7812
X10.5625Y-1.5938
X10.5627Y-3.7812
X10.5638Y-3.1403
X10.5706Y-3.2365
X10.5942Y-3.7812
X10.5944Y-3.1717
X10.6076Y-3.5073
X10.625Y-0.75
X10.625Y-0.8125
X10.625Y-2.0625
X10.625Y-2.125
X10.6257Y-3.7812
X10.6562Y-3.1875
X10.6572Y-3.7812
X10.6887Y-3.7812
X10.7188Y-2.3438
X10.7188Y-3.3125
X10.8125Y-0.75
X10.8125Y-0.8125
X10.8125Y-0.875
X10.8125Y-3.125
X10.875Y-1.5938
X10.875Y-1.6875
X10.875Y-2.0
X10.9259Y-2.3139
X10.9688Y-1.0938
X10.9688Y-3.9375
X11.0121Y-1.4688
X11.0625Y-1.0938
X11.0625Y-1.4062
X11.0625Y-1.4688
X11.0625Y-1.7812
X11.0698Y-2.2946
X11.0758Y-0.8522
X11.125Y-0.75
X11.125Y-1.0938
X11.125Y-1.4062
X11.125Y-1.4688
X11.125Y-1.7812
X11.125Y-2.0625
X11.125Y-2.125
X11.156Y-2.2951
T2
X10.2477Y-3.4062
X10.2832Y-3.3708
X10.2832Y-3.4417
X10.3187Y-3.3353
X10.3187Y-3.4062
X10.3187Y-3.4772
X10.3541Y-3.3708
X10.3541Y-3.4417
X10.3896Y-3.4062
T3
X0.725Y-0.9062
X0.725Y-3.125
X0.825Y-0.9062
X0.825Y-3.125
X0.925Y-0.9062
X0.925Y-3.125
X1.025Y-0.9062
X1.025Y-3.125
T4
X0.7766Y-0.9744
X0.7766Y-1.5453
X0.7766Y-1.7244
X0.7766Y-2.2953
X0.7766Y-2.4744
X0.7766Y-3.0453
X0.875Y-1.5453
X0.875Y-2.2953
X0.875Y-3.0453
X0.9734Y-0.9744
X0.9734Y-1.5453
X0.9734Y-1.7244
X0.9734Y-2.2953
X0.9734Y-2.4744
X0.9734Y-3.0453
X10.7141Y-2.4744
X10.7141Y-3.0453
X10.8125Y-3.0453
X10.9109Y-2.4744
X10.9109Y-3.0453
X10.9688Y-3.775
X10.9688Y-3.875
T6
X0.725Y-1.15
X0.725Y-1.9
X0.725Y-2.65
X0.975Y-1.05
X0.975Y-1.8
X0.975Y-2.55
X1.6625Y-1.15
X1.6625Y-3.5875
X1.7562Y-1.9
X1.7562Y-3.5875
X1.9125Y-1.05
X1.9125Y-3.4875
X1.9437Y-2.65
X2.0063Y-1.8
X2.0063Y-3.4875
X2.1938Y-2.55
X2.4125Y-1.15
X2.5063Y-3.5875
X2.6Y-1.9
X2.6Y-3.5875
X2.6625Y-1.05
X2.7563Y-3.4875
X2.85Y-1.8
X2.85Y-3.4875
X2.975Y-2.65
X3.1625Y-1.15
X3.225Y-2.55
X3.35Y-1.9
X3.4125Y-1.05
X3.6Y-1.8
X3.6313Y-3.5875
X3.725Y-2.65
X3.8813Y-3.4875
X3.9125Y-1.15
X3.975Y-2.55
X4.1Y-1.9
X4.1625Y-1.05
X4.2875Y-3.5875
X4.35Y-1.8
X4.475Y-2.65
X4.5375Y-3.4875
X4.6625Y-1.15
X4.725Y-2.55
X4.7562Y-3.5875
X4.85Y-1.9
X4.9125Y-1.05
X5.0062Y-3.4875
X5.1Y-1.8
X5.225Y-2.65
X5.4125Y-1.15
X5.4125Y-3.5875
X5.475Y-2.55
X5.6Y-1.9
X5.6625Y-1.05
X5.6625Y-3.4875
X5.85Y-1.8
X5.975Y-2.65
X6.0687Y-3.5875
X6.1625Y-1.15
X6.225Y-2.55
X6.3187Y-3.4875
X6.35Y-1.9
X6.4125Y-1.05
X6.5375Y-3.5875
X6.6Y-1.8
X6.725Y-2.65
X6.7875Y-3.4875
X6.9125Y-1.15
X6.975Y-2.55
X7.1Y-1.9
X7.1625Y-1.05
X7.1937Y-3.5875
X7.35Y-1.8
X7.4437Y-3.4875
X7.475Y-2.65
X7.6625Y-1.15
X7.725Y-2.55
X7.85Y-1.9
X7.9125Y-1.05
X8.1Y-1.8
X8.225Y-2.65
X8.225Y-3.5875
X8.3187Y-3.5875
X8.4125Y-1.15
X8.475Y-2.55
X8.475Y-3.4875
X8.5687Y-3.4875
X8.6Y-1.9
X8.6625Y-1.05
X8.85Y-1.8
X8.975Y-2.65
X9.0687Y-3.5875
X9.1625Y-1.15
X9.1625Y-3.5875
X9.225Y-2.55
X9.3187Y-3.4875
X9.35Y-1.9
X9.4125Y-1.05
X9.4125Y-3.4875
X9.6Y-1.8
X9.725Y-2.65
X9.975Y-2.55
X10.5687Y-1.3375
X10.6625Y-2.65
X10.8187Y-1.2375
X10.9125Y-2.55
T7
X3.6875Y-3.9625
X3.6875Y-3.9625
X5.1875Y-3.9625
X5.9375Y-3.9625
X7.4375Y-3.9625
X7.4375Y-3.9625
X10.9938Y-0.9688
X10.9938Y-1.9062
T5
G00X0.6545Y-1.2756
M15
G01X0.6545Y-1.2244
M16
G05
G00X0.6545Y-2.0256
M15
G01X0.6545Y-1.9744
M16
G05
G00X0.6545Y-2.7756
M15
G01X0.6545Y-2.7244
M16
G05
G00X1.0955Y-1.2756
M15
G01X1.0955Y-1.2244
M16
G05
G00X1.0955Y-2.0256
M15
G01X1.0955Y-1.9744
M16
G05
G00X1.0955Y-2.7756
M15
G01X1.0955Y-2.7244
M16
G05
G00X10.592Y-2.7756
M15
G01X10.592Y-2.7244
M16
G05
G00X11.033Y-2.7756
M15
G01X11.033Y-2.7244
M16
G05
M30
